<svg width="951" height="838" viewBox="0 0 951 838" fill="none" xmlns="http://www.w3.org/2000/svg">
<path fill-rule="evenodd" clip-rule="evenodd" d="M480.885 0H0V838H951V0H480.885ZM480.885 0C337.242 0 213.176 82.3985 154.93 201.737C142.095 193.67 128.054 189.226 113.341 189.226C52.4013 189.226 3 265.473 3 359.529C3 453.585 52.4013 529.832 113.341 529.832C129.31 529.832 144.486 524.597 158.189 515.177C201.594 599.625 278.292 664.718 371.322 693.785V814C371.322 827.254 382.067 838 395.322 838H566.45C579.705 838 590.45 827.254 590.45 814V693.784C683.962 664.566 760.973 598.946 804.255 513.859C815.653 520.004 827.903 523.345 840.659 523.345C901.598 523.345 951 447.097 951 353.042C951 258.986 901.598 182.738 840.659 182.738C827.253 182.738 814.407 186.428 802.521 193.185C742.61 78.4799 621.071 0 480.885 0Z" fill="url(#paint0_linear_1306_23)"/>
<mask id="path-2-inside-1_1306_23" fill="white">
<path fill-rule="evenodd" clip-rule="evenodd" d="M590.45 693.784C683.962 664.566 760.973 598.946 804.255 513.859C815.653 520.004 827.903 523.345 840.659 523.345C901.598 523.345 951 447.097 951 353.042C951 258.986 901.598 182.738 840.659 182.738C827.253 182.738 814.407 186.428 802.521 193.185C742.61 78.4799 621.071 0 480.885 0C337.242 0 213.176 82.3985 154.93 201.737C142.095 193.67 128.054 189.226 113.341 189.226C52.4013 189.226 3 265.473 3 359.529C3 453.585 52.4013 529.832 113.341 529.832C129.31 529.832 144.486 524.597 158.189 515.177C201.594 599.625 278.292 664.718 371.322 693.785V814C371.322 827.254 382.067 838 395.322 838H566.45C579.705 838 590.45 827.254 590.45 814V693.784Z"/>
</mask>
<path d="M804.255 513.859L806.628 509.458L802.121 507.027L799.799 511.592L804.255 513.859ZM590.45 693.784L588.959 689.012L585.45 690.108V693.784H590.45ZM802.521 193.185L798.089 195.5L800.488 200.092L804.992 197.532L802.521 193.185ZM154.93 201.737L152.269 205.97L156.981 208.932L159.423 203.93L154.93 201.737ZM158.189 515.177L162.636 512.891L160.038 507.838L155.356 511.057L158.189 515.177ZM371.322 693.785H376.322V690.109L372.813 689.012L371.322 693.785ZM799.799 511.592C757.128 595.477 681.188 660.195 588.959 689.012L591.941 698.557C686.737 668.938 764.818 602.416 808.712 516.126L799.799 511.592ZM840.659 518.345C828.802 518.345 817.362 515.245 806.628 509.458L801.882 518.26C813.944 524.763 827.004 528.345 840.659 528.345V518.345ZM946 353.042C946 399.248 933.856 440.849 914.485 470.745C895.083 500.691 868.869 518.345 840.659 518.345V528.345C873.388 528.345 902.344 507.875 922.878 476.183C943.443 444.442 956 400.891 956 353.042H946ZM840.659 187.738C868.869 187.738 895.083 205.392 914.485 235.338C933.856 265.234 946 306.835 946 353.042H956C956 305.192 943.443 261.641 922.878 229.9C902.344 198.208 873.388 177.738 840.659 177.738V187.738ZM804.992 197.532C816.198 191.161 828.201 187.738 840.659 187.738V177.738C826.306 177.738 812.615 181.695 800.05 188.838L804.992 197.532ZM480.885 5C619.168 5 739.022 82.4092 798.089 195.5L806.953 190.87C746.199 74.5506 622.973 -5 480.885 -5V5ZM159.423 203.93C216.848 86.275 339.191 5 480.885 5V-5C335.293 -5 209.504 78.522 150.436 199.544L159.423 203.93ZM113.341 194.226C127.009 194.226 140.139 198.346 152.269 205.97L157.59 197.504C144.05 188.994 129.099 184.226 113.341 184.226V194.226ZM8 359.529C8 313.322 20.1441 271.722 39.5143 241.825C58.9164 211.879 85.1305 194.226 113.341 194.226V184.226C80.6118 184.226 51.6554 204.695 31.1219 236.387C10.5565 268.129 -2 311.68 -2 359.529H8ZM113.341 524.832C85.1305 524.832 58.9164 507.178 39.5143 477.233C20.1441 447.336 8 405.736 8 359.529H-2C-2 407.378 10.5565 450.929 31.1219 482.67C51.6554 514.362 80.6118 534.832 113.341 534.832V524.832ZM155.356 511.057C142.375 519.98 128.17 524.832 113.341 524.832V534.832C130.449 534.832 146.597 529.213 161.021 519.297L155.356 511.057ZM372.813 689.012C281.06 660.345 205.428 596.146 162.636 512.891L153.742 517.463C197.76 603.103 275.524 669.092 369.831 698.557L372.813 689.012ZM376.322 814V693.785H366.322V814H376.322ZM395.322 833C384.829 833 376.322 824.493 376.322 814H366.322C366.322 830.016 379.306 843 395.322 843V833ZM566.45 833H395.322V843H566.45V833ZM585.45 814C585.45 824.493 576.943 833 566.45 833V843C582.466 843 595.45 830.016 595.45 814H585.45ZM585.45 693.784V814H595.45V693.784H585.45Z" fill="#FF00FF" mask="url(#path-2-inside-1_1306_23)"/>
<defs>
<linearGradient id="paint0_linear_1306_23" x1="475.5" y1="0" x2="475.5" y2="838" gradientUnits="userSpaceOnUse">
<stop stop-color="#FF00FF"/>
<stop offset="0.659" stop-color="#9900FF"/>
</linearGradient>
</defs>
</svg>
