<svg width="52" height="51" viewBox="0 0 52 51" fill="none" xmlns="http://www.w3.org/2000/svg">
<rect x="2" y="0.043457" width="49.8737" height="49.4073" fill="#9900FF"/>
<path d="M27.6441 7.29451C28.0346 6.90398 28.0346 6.27082 27.6441 5.8803L21.2802 -0.483665C20.8896 -0.87419 20.2565 -0.87419 19.8659 -0.483665C19.4754 -0.0931411 19.4754 0.540024 19.8659 0.930548L25.5228 6.5874L19.8659 12.2443C19.4754 12.6348 19.4754 13.2679 19.8659 13.6585C20.2565 14.049 20.8896 14.049 21.2802 13.6585L27.6441 7.29451ZM26.937 41.9067C17.4293 41.9067 9.72656 34.2214 9.72656 24.7471H7.72656C7.72656 35.3313 16.33 43.9067 26.937 43.9067V41.9067ZM9.72656 24.7471C9.72656 15.2727 17.4293 7.5874 26.937 7.5874V5.5874C16.33 5.5874 7.72656 14.1628 7.72656 24.7471H9.72656Z" fill="white"/>
<path d="M26.2308 39.0907C25.8403 39.4813 25.8403 40.1144 26.2308 40.505L32.5948 46.8689C32.9853 47.2594 33.6184 47.2594 34.009 46.8689C34.3995 46.4784 34.3995 45.8452 34.009 45.4547L28.3521 39.7979L34.009 34.141C34.3995 33.7505 34.3995 33.1173 34.009 32.7268C33.6184 32.3363 32.9853 32.3363 32.5948 32.7268L26.2308 39.0907ZM26.9379 10.6954C34.7241 10.6954 41.0313 16.989 41.0313 24.7466L43.0313 24.7466C43.0313 15.8791 35.8234 8.69536 26.9379 8.69536L26.9379 10.6954ZM41.0313 24.7466C41.0313 32.5043 34.7241 38.7979 26.9379 38.7979L26.9379 40.7979C35.8234 40.7979 43.0313 33.6141 43.0313 24.7466L41.0313 24.7466Z" fill="white"/>
<path d="M2.16353 0.0435281L51.9993 49.4895" stroke="white" stroke-width="2"/>
<line y1="-1" x2="70.0866" y2="-1" transform="matrix(-0.70926 0.704947 0.706926 0.707288 51.875 0.043457)" stroke="white" stroke-width="2"/>
</svg>
