<svg width="102" height="101" viewBox="0 0 102 101" fill="none" xmlns="http://www.w3.org/2000/svg">
<rect x="2" y="0.0869141" width="99.8293" height="98.8959" fill="#FF00FF"/>
<path d="M52.9763 14.2462C53.5621 13.6604 53.5621 12.7107 52.9763 12.1249L43.4304 2.57895C42.8446 1.99316 41.8949 1.99316 41.3091 2.57895C40.7233 3.16473 40.7233 4.11448 41.3091 4.70027L49.7944 13.1855L41.3091 21.6708C40.7233 22.2566 40.7233 23.2064 41.3091 23.7921C41.8949 24.3779 42.8446 24.3779 43.4304 23.7921L52.9763 14.2462ZM51.9157 84.3839C32.6089 84.3839 16.9648 68.7774 16.9648 49.5347H13.9648C13.9648 70.4422 30.96 87.3839 51.9157 87.3839V84.3839ZM16.9648 49.5347C16.9648 30.292 32.6089 14.6855 51.9157 14.6855V11.6855C30.96 11.6855 13.9648 28.6272 13.9648 49.5347H16.9648Z" fill="white"/>
<path d="M50.8548 78.6005C50.269 79.1863 50.269 80.136 50.8548 80.7218L60.4007 90.2677C60.9865 90.8535 61.9363 90.8535 62.522 90.2677C63.1078 89.6819 63.1078 88.7322 62.522 88.1464L54.0368 79.6611L62.522 71.1759C63.1078 70.5901 63.1078 69.6403 62.522 69.0545C61.9363 68.4687 60.9865 68.4687 60.4007 69.0545L50.8548 78.6005ZM51.9154 20.9067C67.7763 20.9067 80.627 33.7275 80.627 49.5339L83.627 49.5339C83.627 32.0627 69.4253 17.9067 51.9154 17.9067L51.9154 20.9067ZM80.627 49.5339C80.627 65.3403 67.7763 78.1611 51.9154 78.1611L51.9154 81.1611C69.4253 81.1611 83.627 67.0051 83.627 49.5339L80.627 49.5339Z" fill="white"/>
<path d="M2.32893 0.0871277L102.082 99.0603" stroke="white" stroke-width="3"/>
<line y1="-1.5" x2="140.288" y2="-1.5" transform="matrix(-0.70926 0.704947 0.706926 0.707288 101.83 0.0869141)" stroke="white" stroke-width="3"/>
</svg>
