<svg width="602" height="337" viewBox="0 0 602 337" fill="none" xmlns="http://www.w3.org/2000/svg">
<path d="M557.057 56.6561C557.918 59.6718 557.357 63.2905 554.97 67.6173C552.577 71.953 548.465 76.7751 542.653 81.9876C531.037 92.4046 513.07 103.999 490.003 116.038C443.907 140.097 377.926 165.688 302.997 187.066C228.069 208.443 158.517 221.52 106.665 225.405C80.7186 227.35 59.338 226.982 43.9748 224.261C36.2874 222.9 30.2494 220.974 25.9293 218.554C21.6181 216.138 19.2327 213.36 18.3723 210.344C17.5119 207.328 18.0723 203.71 20.4599 199.383C22.8523 195.047 26.9651 190.225 32.777 185.013C44.3922 174.596 62.3598 163.001 85.4265 150.962C131.523 126.903 197.504 101.312 272.432 79.9347C347.361 58.5574 416.913 45.4804 468.764 41.5948C494.711 39.6504 516.092 40.0187 531.455 42.7387C539.142 44.0998 545.18 46.0259 549.5 48.4465C553.811 50.8621 556.197 53.6404 557.057 56.6561Z" stroke="white" stroke-width="5"/>
<path d="M582.841 126.601C583.701 129.617 583.141 133.236 580.753 137.563C578.36 141.898 574.248 146.72 568.436 151.933C556.821 162.35 538.853 173.944 515.786 185.984C469.69 210.043 403.709 235.634 328.78 257.011C253.852 278.388 184.3 291.465 132.449 295.351C106.502 297.295 85.1212 296.927 69.758 294.207C62.0706 292.846 56.0326 290.92 51.7125 288.499C47.4013 286.083 45.0159 283.305 44.1555 280.289C43.2951 277.274 43.8555 273.655 46.2431 269.328C48.6355 264.993 52.7483 260.17 58.5602 254.958C70.1754 244.541 88.143 232.947 111.21 220.907C157.306 196.848 223.287 171.257 298.216 149.88C373.144 128.503 442.696 115.426 494.547 111.54C520.494 109.596 541.875 109.964 557.238 112.684C564.925 114.045 570.963 115.971 575.283 118.392C579.595 120.807 581.98 123.586 582.841 126.601Z" stroke="white" stroke-width="5"/>
<path d="M42.7594 281.951C33.9523 271.102 12.8922 248.255 16.3383 209.836" stroke="white" stroke-width="5"/>
<path d="M558.415 55.0111C567.222 65.8603 588.538 90.6221 585.091 129.041" stroke="white" stroke-width="5"/>
<path d="M325.071 194.599L440.184 153.165C453.577 148.344 468.317 155.463 472.868 168.951C477.252 181.945 470.535 196.073 457.69 200.876L343.095 243.723C329.318 248.875 314.003 241.661 309.201 227.758C304.527 214.224 311.599 199.448 325.071 194.599Z" stroke="white" stroke-width="5"/>
<rect x="49.2146" y="245.372" width="23.559" height="7.069" rx="3.5345" transform="rotate(3.14276 49.2146 245.372)" stroke="white" stroke-width="5"/>
<circle cx="495.746" cy="159.037" r="8.73212" stroke="white" stroke-width="5"/>
<path d="M289.355 150.74C288.504 136.274 283.305 101.523 272.379 78.2414M355.088 133.509C354.237 119.043 349.804 84.5467 338.878 61.2656" stroke="white" stroke-width="5"/>
<circle cx="403.718" cy="82.8374" r="2.69094" fill="#9FCCFF" stroke="white"/>
<circle cx="482.599" cy="73.1363" r="2.69094" fill="white" stroke="white"/>
<circle cx="428.99" cy="79.5171" r="2.69094" fill="#9FCCFF" stroke="white"/>
<circle cx="455.539" cy="76.1988" r="2.69094" fill="#9FCCFF" stroke="white"/>
</svg>
