<svg width="646" height="670" viewBox="0 0 646 670" fill="none" xmlns="http://www.w3.org/2000/svg">
<path d="M405.439 387.703C406.101 352.568 418.013 335 441.176 335C445.146 335 449.007 335.808 452.757 337.423C456.617 339.039 460.092 341.664 463.18 345.298C466.268 348.731 468.75 353.275 470.625 358.929C472.5 364.583 473.438 371.347 473.438 379.222V470.393C473.438 476.653 474.982 479.783 478.07 479.783C478.622 479.783 479.284 479.682 480.056 479.48C480.938 479.278 481.876 478.975 482.868 478.571V497.957C481.545 498.966 480.166 499.673 478.732 500.077C477.408 500.683 476.03 500.985 474.596 500.985C469.632 500.985 465.937 499.067 463.511 495.23C461.195 491.394 459.926 485.235 459.706 476.754C451.433 493.918 441.01 502.5 428.436 502.5C424.576 502.5 420.991 501.389 417.682 499.168C414.373 497.149 411.505 494.221 409.079 490.384C406.652 486.346 404.722 481.499 403.288 475.845C401.965 470.191 401.303 463.831 401.303 456.763C401.303 442.83 403.454 431.623 407.755 423.142C412.057 414.459 418.344 409.209 426.616 407.391L452.26 401.636C456.893 400.829 459.209 394.569 459.209 382.857C459.209 365.693 452.426 357.111 438.859 357.111C432.683 357.111 427.995 359.534 424.796 364.381C421.598 369.227 419.667 377.001 419.006 387.703H405.439ZM458.713 417.084C457.72 418.901 455.569 420.618 452.26 422.233C450.716 422.839 448.455 423.546 445.477 424.353C442.609 425.161 439.025 426.07 434.723 427.08C428.326 428.695 423.638 431.623 420.66 435.863C417.682 440.104 416.193 445.758 416.193 452.825C416.193 461.508 417.406 468.273 419.833 473.119C422.37 477.966 426.451 480.389 432.076 480.389C434.944 480.389 437.922 479.581 441.01 477.966C444.209 476.148 447.076 473.725 449.613 470.696C452.26 467.465 454.411 463.528 456.066 458.883C457.831 454.239 458.713 448.989 458.713 443.133V417.084Z" fill="#FF00FF"/>
<path d="M385.766 335H401.302L367.478 502.5H352.265L319.736 335H336.244L359.872 471.434H360.195L385.766 335Z" fill="#FF00FF"/>
<path d="M319.736 586.099C319.736 574.992 321.53 564.391 325.118 554.295C328.706 544.198 333.975 535.313 340.927 527.64C347.878 519.967 356.399 513.909 366.489 509.467C376.58 504.822 388.128 502.5 401.134 502.5C414.139 502.5 425.687 504.822 435.778 509.467C446.093 513.909 454.726 519.967 461.677 527.64C468.628 535.313 473.898 544.198 477.486 554.295C481.073 564.391 482.867 574.992 482.867 586.099C482.867 597.205 481.073 607.806 477.486 617.902C473.898 627.999 468.628 636.985 461.677 644.86C454.95 652.533 446.429 658.692 436.114 663.336C426.024 667.779 414.363 670 401.134 670C388.128 670 376.58 667.779 366.489 663.336C356.399 658.692 347.878 652.533 340.927 644.86C333.975 637.186 328.706 628.302 325.118 618.205C321.53 608.109 319.736 597.407 319.736 586.099ZM350.008 586.099C350.008 593.772 350.905 601.243 352.699 608.513C354.717 615.58 357.744 622.042 361.78 627.898C365.817 633.552 371.086 638.095 377.589 641.528C384.092 644.961 391.94 646.677 401.134 646.677C410.103 646.677 417.839 644.961 424.342 641.528C430.845 637.893 436.226 633.249 440.487 627.595C444.747 621.739 447.774 615.176 449.568 607.907C451.586 600.637 452.596 593.368 452.596 586.099C452.596 578.627 451.586 571.358 449.568 564.29C447.774 557.021 444.747 550.559 440.487 544.905C436.226 539.251 430.845 534.708 424.342 531.275C417.839 527.64 410.103 525.823 401.134 525.823C392.164 525.823 384.428 527.539 377.925 530.972C371.647 534.405 366.377 538.948 362.117 544.602C358.081 550.054 355.053 556.415 353.035 563.684C351.017 570.954 350.008 578.425 350.008 586.099Z" fill="#FF00FF"/>
<path d="M646 670H612.302V469.498C612.302 455.799 611.663 443.761 610.387 433.383C609.111 422.59 606.813 413.665 603.494 406.608C600.431 399.136 596.091 393.532 590.474 389.796C584.858 386.059 577.837 384.191 569.413 384.191C560.478 384.191 552.691 387.097 546.054 392.909C539.416 398.721 533.927 406.608 529.587 416.571C525.247 426.533 521.929 438.157 519.631 451.44C517.589 464.309 516.568 478.008 516.568 492.537V670H482.869V344.34H514.653V390.418H515.419C531.247 353.473 551.415 335 575.923 335C598.899 335 616.259 344.755 628.002 364.266C640.001 383.776 646 411.797 646 448.327V670Z" fill="#FF00FF"/>
<path d="M319.736 0H645.998V40.1253H391.662V142.771H645.998V182.897H391.662V294.874H645.998V335H319.736V0Z" fill="#FF00FF"/>
<path d="M64.9844 670H0V0H162.126C209.469 0 245.199 15.5524 269.317 46.6574C293.881 77.1402 306.164 121.62 306.164 180.097C306.164 219.29 300.581 251.639 289.415 277.145C278.696 302.651 262.171 323.802 239.839 340.599C261.278 353.041 276.016 368.593 284.056 387.256C292.095 405.297 296.561 431.736 297.454 466.574L301.474 591.615C301.921 609.656 303.484 623.031 306.164 631.741C308.843 640.45 315.543 648.226 326.262 655.069V670H245.869C243.636 660.668 241.626 648.848 239.839 634.54C238.499 619.61 237.383 604.057 236.49 587.883C235.596 571.708 234.926 556.156 234.48 541.225C234.48 525.673 234.48 512.609 234.48 502.033C234.48 488.347 233.81 474.35 232.47 460.042C231.13 445.733 227.78 432.98 222.421 421.783C217.508 409.963 210.139 400.631 200.313 393.788C190.934 386.323 178.205 382.59 162.126 382.59H64.9844V670ZM64.9844 305.139H155.427C184.904 305.139 206.342 295.186 219.741 275.278C233.14 255.371 239.839 226.755 239.839 189.429C239.839 150.859 233.587 122.553 221.081 104.512C208.575 86.4716 190.264 77.4512 166.146 77.4512H64.9844V305.139Z" fill="#FF00FF"/>
</svg>
