<svg width="134" height="167" viewBox="0 0 134 167" fill="none" xmlns="http://www.w3.org/2000/svg">
<path d="M24.4915 163V133.749H109.509V163V165H111.509H130H132V163V112.664V110.664H130H115.766V4V2H113.766H33.3498H31.3498V4C31.3498 13.2833 31.2068 22.5266 30.9208 31.7301C30.6357 40.902 29.9943 50.0341 28.9967 59.1265C28.0003 68.1281 26.5769 77.0906 24.7264 86.0144C22.9776 94.3719 20.6546 102.588 17.757 110.664H4H2V112.664V163V165H4H22.4915H24.4915V163ZM54.137 25.0848H91.9846V110.664H42.0335C44.0252 104.474 45.6548 98.0726 46.9232 91.4603C48.4384 83.9338 49.629 76.3279 50.4951 68.6427C51.4303 60.8996 52.1499 53.1956 52.6538 45.5306C53.1781 38.5494 53.6725 31.7341 54.137 25.0848Z" fill="black" stroke="#9900FF" stroke-width="4"/>
</svg>
