<svg width="383" height="335" viewBox="0 0 383 335" fill="none" xmlns="http://www.w3.org/2000/svg">
<path d="M149.141 184.308H168.218V331V333H170.218H213.728H215.728V331V184.308H234.563L319.588 331.998L320.165 333H321.322H375H378.536L376.714 329.97L274.017 159.138L372.9 5.08032L374.877 2H371.216H318.72H317.608L317.021 2.94532L234.607 135.731H215.728V4V2H213.728H170.218H168.218V4V135.731H149.109L67.6396 2.95404L67.0542 2H65.9349H13.2023H9.55147L11.5169 5.07667L109.927 159.131L6.29006 329.963L4.44741 333H8H61.6785H62.8301L63.4082 332.004L149.141 184.308Z" fill="black" stroke="#9900FF" stroke-width="4"/>
</svg>
