<svg width="164" height="168" viewBox="0 0 164 168" fill="none" xmlns="http://www.w3.org/2000/svg">
<path d="M0.736328 84.0985C0.736328 72.9924 2.53023 62.3912 6.11799 52.2947C9.70575 42.1983 14.9753 33.3134 21.9265 25.6401C28.8778 17.9668 37.3988 11.909 47.4893 7.46654C57.5799 2.82218 69.128 0.5 82.1336 0.5C95.1392 0.5 106.687 2.82218 116.778 7.46654C127.093 11.909 135.726 17.9668 142.677 25.6401C149.628 33.3134 154.898 42.1983 158.486 52.2947C162.073 62.3912 163.867 72.9924 163.867 84.0985C163.867 95.2046 162.073 105.806 158.486 115.902C154.898 125.999 149.628 134.985 142.677 142.86C135.95 150.533 127.429 156.692 117.114 161.336C107.024 165.779 95.3635 168 82.1336 168C69.128 168 57.5799 165.779 47.4893 161.336C37.3988 156.692 28.8778 150.533 21.9265 142.86C14.9753 135.186 9.70575 126.302 6.11799 116.205C2.53023 106.109 0.736328 95.4065 0.736328 84.0985ZM31.008 84.0985C31.008 91.7718 31.905 99.2432 33.6989 106.513C35.717 113.58 38.7442 120.042 42.7804 125.898C46.8166 131.552 52.0861 136.095 58.5889 139.528C65.0917 142.961 72.94 144.677 82.1336 144.677C91.103 144.677 98.8391 142.961 105.342 139.528C111.845 135.893 117.226 131.249 121.487 125.595C125.747 119.739 128.774 113.176 130.568 105.907C132.586 98.6374 133.596 91.3679 133.596 84.0985C133.596 76.6271 132.586 69.3577 130.568 62.2902C128.774 55.0208 125.747 48.559 121.487 42.905C117.226 37.251 111.845 32.7076 105.342 29.2748C98.8391 25.6401 91.103 23.8228 82.1336 23.8228C73.1642 23.8228 65.4281 25.5392 58.9253 28.9719C52.6467 32.4047 47.3772 36.9481 43.1168 42.6022C39.0805 48.0542 36.0534 54.415 34.0352 61.6844C32.0171 68.9539 31.008 76.4252 31.008 84.0985Z" fill="#FF00FF"/>
</svg>
