<svg width="327" height="670" viewBox="0 0 327 670" fill="none" xmlns="http://www.w3.org/2000/svg">
<path d="M64.9844 670H0V0H162.126C209.469 0 245.199 15.5524 269.317 46.6574C293.881 77.1402 306.164 121.62 306.164 180.097C306.164 219.29 300.581 251.639 289.415 277.145C278.696 302.651 262.171 323.802 239.839 340.599C261.278 353.041 276.016 368.593 284.056 387.256C292.095 405.297 296.561 431.736 297.454 466.574L301.474 591.615C301.921 609.656 303.484 623.031 306.164 631.741C308.843 640.45 315.543 648.226 326.262 655.069V670H245.869C243.636 660.668 241.626 648.848 239.839 634.54C238.499 619.61 237.383 604.057 236.49 587.883C235.596 571.708 234.926 556.156 234.48 541.225C234.48 525.673 234.48 512.609 234.48 502.033C234.48 488.347 233.81 474.35 232.47 460.042C231.13 445.733 227.78 432.98 222.421 421.783C217.508 409.963 210.139 400.631 200.313 393.788C190.934 386.323 178.205 382.59 162.126 382.59H64.9844V670ZM64.9844 305.139H155.427C184.904 305.139 206.342 295.186 219.741 275.278C233.14 255.371 239.839 226.755 239.839 189.429C239.839 150.859 233.587 122.553 221.081 104.512C208.575 86.4716 190.264 77.4512 166.146 77.4512H64.9844V305.139Z" fill="#FF00FF"/>
</svg>
