<svg width="230" height="222" viewBox="0 0 230 222" fill="none" xmlns="http://www.w3.org/2000/svg">
<path d="M143.098 117.409L143.056 117.417C138.798 118.201 132.601 119.11 124.488 120.143C124.486 120.143 124.485 120.143 124.484 120.143L124.231 118.159C116.426 119.191 106.669 120.352 94.9614 121.642L143.098 117.409ZM143.098 117.409L143.14 117.4C147.693 116.356 151.501 115.269 154.54 114.131C155.911 113.617 157.155 113.083 158.256 112.522V142.152C158.256 149.165 156.018 155.431 151.496 161.016L151.476 161.041L151.458 161.066C147.136 166.76 141.498 171.618 134.503 175.627C127.769 179.4 120.132 182.434 111.577 184.717C103.317 186.744 95.3789 187.75 87.7566 187.75C72.652 187.75 62.1502 184.685 55.7854 178.988C49.6833 173.258 46.5274 165.2 46.5274 154.535C46.5274 146.234 50.1943 139.609 57.797 134.527C65.5054 129.375 77.8823 125.681 95.1894 123.629L143.098 117.409ZM13.2592 71.2544L13.1757 73.3345H15.2576H52.1825H53.9364L54.1654 71.5957C55.9164 58.3039 60.9718 48.9494 69.1024 43.1669C77.3257 37.3184 89.6023 34.2495 106.219 34.2495C124.549 34.2495 137.966 36.9826 146.738 42.1925C155.347 47.305 159.606 54.8657 159.606 65.1429C159.606 72.3785 158.078 77.6113 155.308 81.1253C152.579 84.5863 148.425 86.6599 142.531 87.1423L142.507 87.1442L142.484 87.1466L72.6914 94.4988C72.6899 94.499 72.6885 94.4991 72.687 94.4993C49.9137 96.8484 32.3288 103.659 20.195 115.151C8.03398 126.41 2 141.283 2 159.566C2 168.868 3.85751 177.306 7.61387 184.838L7.62847 184.868L7.64403 184.896C11.6805 192.368 17.1158 198.771 23.933 204.097L23.9525 204.112L23.9723 204.127C30.7885 209.186 38.8095 213.022 48.0044 215.659C57.2184 218.559 67.1714 220 77.8499 220C111.043 220 138.919 209.808 161.344 189.374C162.554 198.534 166.06 205.606 172.087 210.291L172.104 210.305L172.122 210.318C179.23 215.594 189.799 218.065 203.485 218.065C207.492 218.065 211.36 217.67 215.084 216.876C219.095 216.341 222.959 215.409 226.674 214.078L228 213.604V212.195V187.429V185.01L225.625 185.464C222.969 185.971 220.472 186.35 218.131 186.601L218.116 186.603L218.101 186.604C216.051 186.856 214.335 186.976 212.941 186.976C209.022 186.976 206.455 186.043 204.863 184.528C203.291 183.032 202.333 180.645 202.333 176.98V60.4991C202.333 50.0833 199.685 41.0238 194.311 33.4174C189.015 25.9216 182.017 19.9159 173.36 15.3951C164.76 10.6471 155.113 7.23224 144.436 5.13449C134.095 3.04391 123.457 2 112.523 2C80.8188 2 56.4779 7.63425 39.7866 19.1892C22.9823 30.8224 14.181 48.2818 13.2592 71.2544Z" fill="white" stroke="#FF00FF" stroke-width="4"/>
</svg>
