<svg width="157" height="345" viewBox="0 0 157 345" fill="none" xmlns="http://www.w3.org/2000/svg">
<path d="M52.5319 3.71422L52.2844 2H50.5524H23.1686H21.1452L21.1688 4.0233C21.2784 13.4268 22.7035 21.9642 25.4766 29.6112L25.4833 29.6297L25.4903 29.648C28.3659 37.1172 32.3096 43.5395 37.3368 48.8835C42.3749 54.2391 48.4189 58.3295 55.4443 61.1536C62.4765 63.9804 70.2512 65.3773 78.7416 65.3773C87.232 65.3773 95.0067 63.9804 102.039 61.1536L102.051 61.1486L102.064 61.1434C109.178 58.172 115.266 54.0141 120.3 48.6647C125.443 43.3146 129.393 36.8814 132.163 29.3971L132.168 29.3846C134.94 21.741 136.366 13.2801 136.476 4.02369L136.5 2H134.476H106.931H105.173L104.947 3.74367C103.688 13.4911 100.932 20.8828 96.8307 26.0949C92.8982 30.9461 86.9914 33.5017 78.7416 33.5017C70.6277 33.5017 64.7739 30.89 60.8299 25.8889C56.7001 20.499 53.8946 13.1528 52.5319 3.71422ZM4 96.2784H2V98.2784V341V343H4H37.9881H39.276L39.8089 341.828L121.2 162.752V341V343H123.2H153H155V341V98.2784V96.2784H153H119.012H117.725L117.192 97.4496L35.6389 276.539V98.2784V96.2784H33.6389H4Z" fill="black" stroke="#9900FF" stroke-width="4"/>
</svg>
