<svg width="51" height="171" viewBox="0 0 51 171" fill="none" xmlns="http://www.w3.org/2000/svg">
<path d="M3.99318 54.7312L3.9749 56.7493H5.9931H13.287H15.2416L15.2865 54.7953C15.5113 45.0066 16.4685 37.9012 18.0595 33.3293L18.0595 33.3293L18.0634 33.318C18.8534 31.0034 19.7854 29.4625 20.7618 28.5194C21.6905 27.6223 22.7034 27.2172 23.8886 27.2172C25.1278 27.2172 26.1694 27.5834 27.0931 28.3211C28.0487 29.0843 28.9662 30.3191 29.7714 32.177L29.7772 32.1903L29.7832 32.2036C31.4057 35.8033 32.3205 42.0764 32.3205 51.3087C32.3205 57.3044 31.9636 61.489 31.3224 64.0036L31.3217 64.0063C31.009 65.2397 30.6627 66.0982 30.3266 66.6578C29.9896 67.2191 29.7469 67.344 29.6874 67.3673L29.6695 67.3744L29.6516 67.3818L16.9032 72.6795C14.7624 73.5289 12.8332 75.2044 11.0738 77.4605C9.23595 79.8171 7.69186 83.068 6.38313 87.0973C5.05948 91.0768 4.00674 96.0322 3.2058 101.931C2.39833 107.781 2 114.71 2 122.702C2 130.034 2.39926 136.535 3.20746 142.195L3.20816 142.2C4.01152 147.728 5.08175 152.449 6.43704 156.333L6.44157 156.346C7.81095 160.188 9.39623 163.262 11.2601 165.435L11.2656 165.441L11.2712 165.448C13.1449 167.595 15.3584 169 17.9093 169C20.4346 169 22.7206 168.172 24.701 166.565C26.5739 165.139 28.2077 163.218 29.6288 160.867L29.6384 160.851L29.6478 160.835C31.012 158.479 32.2345 155.814 33.3219 152.849C33.6999 155.676 34.231 158.097 34.9396 160.076L34.9503 160.106L34.962 160.136C35.709 162.03 36.6965 163.628 38.037 164.694L38.048 164.703L38.0592 164.712C39.4293 165.771 41.0423 166.276 42.8018 166.276C44.0566 166.276 45.2409 165.927 46.2492 165.16C46.9454 164.647 47.6365 164.088 48.3229 163.482L49 162.885V161.982V143.776V140.14L45.9293 142.086C45.5396 142.333 45.1594 142.581 44.7885 142.829C44.775 142.798 44.7609 142.765 44.7463 142.728C44.6649 142.525 44.5799 142.254 44.4989 141.904C44.1435 140.268 43.9536 138.272 43.9536 135.891V46.5778C43.9536 38.7647 43.4553 32.0908 42.4376 26.5819C41.4595 21.0417 40.1334 16.4566 38.417 12.8903C36.7269 9.28455 34.6969 6.48016 32.2407 4.68295C29.8927 2.94458 27.3516 2 24.6519 2C21.5029 2 18.6148 3.08676 16.0366 5.15183C13.4193 7.17441 11.3159 10.398 9.61203 14.5691C7.88908 18.7869 6.55795 24.2157 5.58397 30.8002C4.6045 37.3262 4.07849 45.3101 3.99318 54.7312ZM29.8452 92.1558C30.6628 91.6597 31.4315 91.095 32.1509 90.4634V108.796C32.1509 113.122 31.9143 116.996 31.4482 120.425C30.9776 123.888 30.3587 126.946 29.5986 129.607C28.8338 132.285 27.9729 134.547 27.0276 136.413C26.087 138.229 25.1487 139.67 24.2245 140.767C23.2809 141.888 22.4161 142.691 21.638 143.227C20.8474 143.676 20.3432 143.783 20.072 143.783C19.5711 143.783 18.9625 143.574 18.2178 142.735C17.4611 141.882 16.6932 140.46 16.0007 138.302C15.3404 136.156 14.7957 133.463 14.3816 130.2C13.998 126.954 13.8028 123.167 13.8028 118.831C13.8028 115.085 14.0388 111.908 14.4943 109.281L14.4962 109.27C14.9579 106.515 15.5986 104.245 16.392 102.428C17.1991 100.58 18.1131 99.169 19.1007 98.1355C20.1331 97.0553 21.2346 96.2529 22.4027 95.6986C23.6052 95.1445 24.806 94.6372 26.0052 94.1766L26.0661 94.1532L26.1253 94.1259C27.4337 93.5227 28.6741 92.8663 29.8452 92.1558Z" fill="black" stroke="#9900FF" stroke-width="4"/>
</svg>
