<svg width="304" height="176" viewBox="0 0 304 176" fill="none" xmlns="http://www.w3.org/2000/svg">
<path d="M298.276 117.203L299.116 114.591H296.372H242.251H241.27L240.67 115.367C237.94 118.893 234.503 122.497 230.344 126.175L230.326 126.191L230.308 126.207C226.474 129.767 221.328 133.058 214.81 136.05C208.342 139.02 200.237 141.492 190.461 143.442C180.754 145.379 168.8 146.359 154.57 146.359C140.574 146.359 128.02 145.186 116.896 142.858C105.96 140.427 96.6847 137.041 89.0355 132.728C81.3913 128.417 75.5967 123.294 71.5685 117.391C67.9318 111.972 65.8655 106.03 65.3652 99.5303H300H302V97.5303V83.9367C302 70.0547 298.157 57.9076 290.424 47.5856C282.946 37.2365 272.399 28.7252 258.873 22.0133C245.557 15.2071 229.64 10.1824 211.156 6.90668C192.679 3.63219 172.303 2 150.035 2C139.462 2 128.493 2.74501 117.13 4.23215C105.752 5.62262 94.5761 7.80735 83.6024 10.7865C72.8135 13.6717 62.5268 17.4039 52.7445 21.9848C42.9274 26.4833 34.2104 31.8925 26.6063 38.2199L26.6063 38.2199L26.5977 38.2271C19.167 44.4811 13.164 51.6586 8.60635 59.758L8.5993 59.7705L8.59243 59.7831C4.18597 67.8841 2 76.9352 2 86.8918C2 101.65 5.93773 114.579 13.8662 125.591C21.7295 136.512 32.4599 145.569 45.9927 152.783L46.0033 152.789L46.0139 152.794C59.7225 159.894 75.8357 165.218 94.3252 168.792L94.3322 168.793L94.3392 168.795C113.021 172.268 133.301 174 155.175 174C175.233 174 193.505 172.367 209.981 169.087C226.612 165.915 241.067 161.692 253.324 156.401C265.553 151.122 275.526 145.109 283.184 138.332C290.815 131.579 295.915 124.545 298.276 117.203ZM235.174 56.4236L235.187 56.4416L235.2 56.4594C238.987 61.591 241.222 67.3612 241.902 73.81H65.646C66.8587 68.0875 69.4854 62.7832 73.5658 57.8811L73.571 57.8747L73.5763 57.8684C78.2145 52.2016 84.4391 47.2876 92.3091 43.1531L92.3175 43.1487L92.3259 43.1442C100.199 38.9121 109.392 35.6197 119.93 33.2878L119.938 33.286L119.947 33.284C130.461 30.8602 141.999 29.6412 154.57 29.6412C167.767 29.6412 179.728 30.7163 190.461 32.8533L190.47 32.855L190.478 32.8567C201.214 34.8968 210.28 37.943 217.718 41.9602L217.736 41.97L217.754 41.9795C225.385 45.9001 231.161 50.7274 235.174 56.4236Z" fill="black" stroke="#9900FF" stroke-width="4"/>
</svg>
