<svg width="164" height="335" viewBox="0 0 164 335" fill="none" xmlns="http://www.w3.org/2000/svg">
<path d="M164 335H130.302V134.498C130.302 120.799 129.663 108.761 128.387 98.3828C127.111 87.5898 124.813 78.6648 121.494 71.6078C118.431 64.1357 114.091 58.5316 108.474 54.7955C102.858 51.0595 95.8374 49.1914 87.4128 49.1914C78.4776 49.1914 70.6912 52.0972 64.0537 57.9089C57.4161 63.7205 51.9273 71.6078 47.5874 81.5706C43.2474 91.5334 39.9287 103.157 37.6311 116.44C35.5887 129.309 34.5676 143.008 34.5676 157.537V335H0.869141V9.34017H32.6529V55.4182H33.4187C49.2468 18.4727 69.4148 0 93.9227 0C116.899 0 134.259 9.75526 146.002 29.2658C158.001 48.7763 164 76.7967 164 113.327V335Z" fill="#FF00FF"/>
</svg>
