<svg width="133" height="335" viewBox="0 0 133 335" fill="none" xmlns="http://www.w3.org/2000/svg">
<path d="M101.385 120.421L101.386 120.424C103.05 134.522 103.884 150.068 103.884 167.069C103.884 184.26 103.05 200.095 101.385 214.579C99.7208 228.868 97.2302 241.099 93.9313 251.295C90.6315 261.493 86.5894 269.385 81.8653 275.07C77.318 280.453 72.1942 282.984 66.4372 282.984C60.6828 282.984 55.561 280.455 51.0152 275.077C46.3707 269.39 42.3691 261.495 39.0687 251.295C35.7699 241.099 33.2793 228.869 31.6148 214.58C29.95 200.096 29.1156 184.26 29.1156 167.069C29.1156 150.068 29.9501 134.522 31.6143 120.424L31.6147 120.421C33.2792 106.132 35.7698 93.9008 39.0687 83.7054C42.3715 73.498 46.3724 65.7078 51.0054 60.2218L51.0158 60.2095L51.026 60.197C55.584 54.6199 60.7048 52.0158 66.4372 52.0158C72.1696 52.0158 77.2904 54.6199 81.8484 60.197L81.8639 60.216L81.8799 60.2347C86.5904 65.7179 90.6302 73.5032 93.9313 83.7054C97.2302 93.9008 99.7208 106.132 101.385 120.421ZM126.709 235.797L126.709 235.795C129.572 215.361 131 192.45 131 167.069C131 142.07 129.572 119.445 126.709 99.2027C123.847 78.9709 119.714 61.6593 114.288 47.2958C108.865 32.9423 102.158 21.8227 94.0915 14.0737C86.0595 6.08444 76.8196 2 66.4372 2C56.053 2 46.8119 6.08578 38.7789 14.0776C30.7984 21.8259 24.134 32.9439 18.712 47.2958C13.2856 61.6593 9.15277 78.9709 6.29107 99.2027C3.42783 119.445 2 142.07 2 167.069C2 192.45 3.42769 215.361 6.2907 235.795L6.29107 235.797C9.15277 256.029 13.2856 273.341 18.712 287.704C24.1357 302.061 30.7992 313.267 38.77 321.201L38.779 321.21L38.7881 321.219C46.8273 329.021 56.0661 333 66.4372 333C76.8083 333 86.047 329.021 94.0863 321.219L94.0915 321.214L94.0967 321.209C102.155 313.274 108.863 302.065 114.288 287.704C119.714 273.341 123.847 256.029 126.709 235.797Z" fill="black" stroke="#9900FF" stroke-width="4"/>
</svg>
