<svg width="655" height="493" viewBox="0 0 655 493" fill="none" xmlns="http://www.w3.org/2000/svg">
<path d="M643.77 332.041L644.627 329.419H641.869H527.079H525.43L525.115 331.037C522.606 343.951 515.487 355.836 503.576 366.691C491.582 377.036 476.547 386.271 458.431 394.377L458.414 394.384L458.398 394.392C441.167 402.487 421.754 408.861 400.147 413.503C379.406 417.562 358.669 419.59 337.935 419.59C267.697 419.59 215.153 406.488 179.991 380.593C146.25 355.114 129.105 319.339 128.627 273.013H651H653V271.013C653 235.785 647.315 202.01 635.938 169.699C625.407 136.729 607.854 107.871 583.297 83.1452C559.568 58.3767 527.989 38.6821 488.644 24.0123C449.224 9.3144 401.143 2 344.458 2C286.054 2 235.412 8.43432 192.566 21.345C149.763 34.2426 113.87 52.147 84.9366 75.0955L84.9248 75.1049L84.9132 75.1144C56.8602 98.0602 35.7912 125.152 21.7426 156.384L21.7329 156.405L21.7237 156.427C8.56611 187.628 2 221.746 2 258.756C2 291.734 9.02218 322.675 23.0725 351.554L23.0869 351.583L23.1022 351.612C38.0313 379.902 59.1007 404.344 86.276 424.935L86.2881 424.944L86.3004 424.953C114.351 445.544 148.488 461.686 188.67 473.411L188.681 473.414C229.767 485.148 276.482 491 328.804 491C368.927 491 406.46 487.196 441.397 479.577C476.318 472.544 507.356 462.281 534.492 448.769L534.5 448.765C562.499 434.671 585.741 417.908 604.187 398.454L604.197 398.443L604.207 398.432C622.649 378.393 635.848 356.261 643.77 332.041ZM473.687 110.643L473.696 110.65L473.706 110.657C503.985 133.237 522.755 165.533 529.94 207.731H128.636C128.965 190.172 133.641 173.683 142.68 158.234C152.963 141.563 166.679 127.173 183.86 115.066C201.039 102.96 221.699 93.417 245.873 86.4636L245.885 86.4603L245.897 86.4567C270.902 78.9337 298.533 75.1607 328.804 75.1607C394.727 75.1607 442.896 87.1082 473.687 110.643Z" fill="white" stroke="#FF00FF" stroke-width="4"/>
</svg>
