<svg width="82" height="168" viewBox="0 0 82 168" fill="none" xmlns="http://www.w3.org/2000/svg">
<path d="M4.43891 52.7034C5.1007 17.5678 17.0129 0 40.1755 0C44.1462 0 48.0067 0.807709 51.7568 2.42314C55.6172 4.03858 59.0917 6.66365 62.18 10.2984C65.2684 13.7312 67.7501 18.2746 69.6251 23.9286C71.5002 29.5826 72.4377 36.3472 72.4377 44.2224V135.393C72.4377 141.653 73.9819 144.783 77.0703 144.783C77.6218 144.783 78.2835 144.682 79.0556 144.48C79.938 144.278 80.8755 143.975 81.8682 143.571V162.957C80.5446 163.966 79.1659 164.673 77.732 165.077C76.4085 165.683 75.0297 165.985 73.5959 165.985C68.6324 165.985 64.9374 164.067 62.5109 160.23C60.1946 156.394 58.9262 150.235 58.7056 141.754C50.4333 158.918 40.0101 167.5 27.4361 167.5C23.5757 167.5 19.991 166.389 16.682 164.168C13.3731 162.149 10.5053 159.221 8.07877 155.384C5.65221 151.346 3.722 146.499 2.28812 140.845C0.964544 135.191 0.302734 128.831 0.302734 121.763C0.302734 107.83 2.45359 96.6229 6.75521 88.1419C11.0568 79.459 17.3438 74.2088 25.6162 72.3915L51.2605 66.6365C55.893 65.8288 58.2092 59.569 58.2092 47.8571C58.2092 30.6932 51.4259 22.1112 37.8593 22.1112C31.6826 22.1112 26.9949 24.5343 23.7963 29.3806C20.5976 34.2269 18.6674 42.0012 18.0056 52.7034H4.43891ZM57.7129 82.084C56.7202 83.9014 54.5694 85.6178 51.2605 87.2332C49.7163 87.839 47.4552 88.5458 44.4771 89.3535C41.6094 90.1612 38.0247 91.0699 33.7231 92.0795C27.3258 93.6949 22.6381 96.6229 19.6601 100.863C16.682 105.104 15.193 110.758 15.193 117.825C15.193 126.508 16.4063 133.273 18.8328 138.119C21.3697 142.966 25.4507 145.389 31.0759 145.389C33.9437 145.389 36.9217 144.581 40.0101 142.966C43.2087 141.148 46.0765 138.725 48.6133 135.696C51.2605 132.465 53.4113 128.528 55.0658 123.883C56.8305 119.239 57.7129 113.989 57.7129 108.133V82.084Z" fill="#FF00FF"/>
</svg>
