<svg width="230" height="321" viewBox="0 0 230 321" fill="none" xmlns="http://www.w3.org/2000/svg">
<path d="M163.41 306.259L163.418 306.254L163.427 306.249C177.727 297.408 189.536 285.684 198.847 271.101C208.433 256.188 215.683 239.197 220.612 220.148C225.54 201.108 228 181.129 228 160.217C228 139.305 225.54 119.326 220.612 100.286C215.682 81.2336 208.429 64.4226 198.832 49.8769C189.22 35.3072 177.262 23.7744 162.961 15.3116C148.887 6.42338 132.802 2 114.771 2C96.7363 2 80.6492 6.42511 66.5731 15.3168C52.5766 23.7817 40.7755 35.3139 31.1677 49.8769C21.5714 64.4226 14.3179 81.2336 9.3875 100.286C4.46002 119.326 2 139.305 2 160.217C2 181.503 4.45927 201.671 9.3875 220.714C14.3179 239.766 21.5714 256.577 31.1677 271.123C40.7746 285.685 52.5708 297.4 66.5562 306.239L66.573 306.249L66.59 306.259C80.6657 314.769 96.7461 319 114.771 319C133.094 319 149.329 314.772 163.41 306.259ZM178.724 200.573L178.72 200.594L178.716 200.615C176.308 214.014 172.253 226.073 166.565 236.81C160.896 247.138 153.758 255.587 145.159 262.192C136.695 268.32 126.597 271.418 114.771 271.418C102.618 271.418 92.3638 268.309 83.9037 262.176C75.3314 255.963 68.3592 247.725 62.9976 237.416C57.597 226.654 53.5349 214.759 50.8214 201.721C48.4051 188.266 47.1959 174.432 47.1959 160.217C47.1959 146.007 48.5567 132.178 51.2758 118.729C53.99 105.304 58.05 93.613 63.4313 83.6299C69.1062 73.2907 76.0931 65.0348 84.3749 58.8139C92.8408 52.6817 102.941 49.5823 114.771 49.5823C126.581 49.5823 136.67 52.8586 145.137 59.3569L145.159 59.3736L145.181 59.3897C153.767 65.6137 160.902 73.8696 166.572 84.2027C172.252 94.5529 176.308 106.417 178.716 119.819L178.721 119.845L178.726 119.872C181.444 132.94 182.804 146.388 182.804 160.217C182.804 173.665 181.445 187.117 178.724 200.573Z" fill="white" stroke="#FF00FF" stroke-width="4"/>
</svg>
