<svg width="323" height="222" viewBox="0 0 323 222" fill="none" xmlns="http://www.w3.org/2000/svg">
<path d="M323 222H256.277V89.1301C256.277 80.052 255.013 72.0743 252.486 65.197C249.959 58.0446 245.409 52.1301 238.838 47.4535C232.772 42.5019 224.179 38.7881 213.059 36.3123C201.938 33.8364 188.038 32.5985 171.357 32.5985C153.665 32.5985 138.248 34.5242 125.106 38.3755C111.963 42.2268 101.095 47.4535 92.5023 54.0558C83.9092 60.658 77.338 68.3606 72.7887 77.1636C68.7449 85.6915 66.723 94.7695 66.723 104.398V222H0V6.1896H62.9319V36.7249H64.4484C95.7879 12.2416 135.721 0 184.246 0C229.739 0 264.112 6.46468 287.364 19.3941C311.121 32.3234 323 50.8922 323 75.1004V222Z" fill="black"/>
</svg>
