<svg width="251" height="110" viewBox="0 0 251 110" fill="none" xmlns="http://www.w3.org/2000/svg">
<path d="M225.791 23.7891H231.074V47.0594H239.601C241.286 47.0594 242.788 47.5214 244.109 48.4453C245.43 49.3307 246.55 50.6203 247.468 52.314C248.387 53.9693 249.086 55.9903 249.564 58.3771C250.062 60.7253 250.311 63.3814 250.311 66.3456C250.311 69.3482 250.062 72.0429 249.564 74.4296C249.086 76.7778 248.387 78.7988 247.468 80.4926C246.55 82.1479 245.43 83.4182 244.109 84.3036C242.788 85.189 241.286 85.6317 239.601 85.6317H225.791V23.7891ZM231.074 77.1435H238.568C239.487 77.1435 240.338 76.951 241.123 76.5661C241.927 76.1811 242.616 75.5652 243.19 74.7183C243.765 73.8329 244.214 72.7165 244.54 71.3692C244.865 69.9834 245.028 68.3088 245.028 66.3456C245.028 64.4208 244.856 62.7848 244.511 61.4374C244.186 60.0901 243.717 58.993 243.104 58.1461C242.511 57.2607 241.784 56.6255 240.922 56.2406C240.08 55.8171 239.132 55.6054 238.08 55.6054H231.074V77.1435Z" fill="#9900FF"/>
<path d="M204.571 33.0279H193.977V23.7891H220.449V33.0279H209.854V85.6317H204.571V33.0279Z" fill="#9900FF"/>
<path d="M185.135 54.625C185.135 51.1989 184.944 48.0615 184.561 45.2129C184.178 42.3257 183.604 39.8428 182.838 37.7641C182.072 35.6853 181.125 34.0685 179.996 32.9137C178.885 31.7203 177.593 31.1236 176.119 31.1236C174.646 31.1236 173.353 31.7203 172.243 32.9137C171.133 34.0685 170.195 35.6853 169.43 37.7641C168.664 39.8428 168.09 42.3257 167.707 45.2129C167.324 48.0615 167.133 51.1989 167.133 54.625C167.133 58.0896 167.324 61.2847 167.707 64.2103C168.09 67.0974 168.664 69.5804 169.43 71.6591C170.195 73.7379 171.133 75.3739 172.243 76.5673C173.353 77.7221 174.646 78.2996 176.119 78.2996C177.593 78.2996 178.885 77.7221 179.996 76.5673C181.125 75.3739 182.072 73.7379 182.838 71.6591C183.604 69.5804 184.178 67.0974 184.561 64.2103C184.944 61.2847 185.135 58.0896 185.135 54.625ZM190.418 54.625C190.418 59.7064 190.093 64.2873 189.442 68.3678C188.791 72.4098 187.853 75.8551 186.628 78.7038C185.403 81.5524 183.9 83.7466 182.12 85.2865C180.359 86.7878 178.359 87.5384 176.119 87.5384C173.88 87.5384 171.88 86.7878 170.119 85.2865C168.358 83.7466 166.865 81.5524 165.64 78.7038C164.415 75.8551 163.477 72.4098 162.826 68.3678C162.175 64.2873 161.85 59.7064 161.85 54.625C161.85 49.6206 162.175 45.0974 162.826 41.0554C163.477 37.0134 164.415 33.5681 165.64 30.7194C166.865 27.8708 168.358 25.6958 170.119 24.1945C171.88 22.6547 173.88 21.8848 176.119 21.8848C178.359 21.8848 180.359 22.6547 182.12 24.1945C183.9 25.6958 185.403 27.8708 186.628 30.7194C187.853 33.5681 188.791 37.0134 189.442 41.0554C190.093 45.0974 190.418 49.6206 190.418 54.625Z" fill="#9900FF"/>
<path d="M130.639 23.7903H135.922V32.2785H136.036C136.381 30.8542 136.812 29.5068 137.329 28.2365C137.864 26.9661 138.496 25.869 139.224 24.9451C139.97 23.9828 140.822 23.2321 141.779 22.6932C142.755 22.1542 143.865 21.8848 145.109 21.8848C146.756 21.8848 148.335 22.5199 149.847 23.7903C151.359 25.0606 152.699 26.9661 153.867 29.5068C155.034 32.0475 155.963 35.2426 156.652 39.0921C157.341 42.9032 157.685 47.3494 157.685 52.4308C157.685 58.7825 157.36 64.1911 156.709 68.6565C156.077 73.0835 155.168 76.702 153.981 79.5122C152.814 82.3223 151.397 84.3626 149.732 85.6329C148.067 86.9033 146.21 87.5384 144.162 87.5384C143.147 87.5384 142.2 87.269 141.319 86.73C140.439 86.1911 139.645 85.4982 138.936 84.6513C138.247 83.7659 137.654 82.8035 137.156 81.7641C136.659 80.6863 136.285 79.6469 136.036 78.646H135.922V110H130.639V23.7903ZM135.807 55.0292C135.807 58.3783 135.97 61.4771 136.295 64.3258C136.62 67.1359 137.118 69.5804 137.788 71.6591C138.477 73.7379 139.329 75.3739 140.343 76.5673C141.377 77.7221 142.592 78.2996 143.99 78.2996C145.444 78.2996 146.698 77.7221 147.751 76.5673C148.823 75.3739 149.703 73.7379 150.392 71.6591C151.082 69.5804 151.589 67.1359 151.914 64.3258C152.24 61.4771 152.402 58.3783 152.402 55.0292C152.402 51.5261 152.24 48.3118 151.914 45.3861C151.589 42.4605 151.082 39.939 150.392 37.8218C149.703 35.7046 148.823 34.0685 147.751 32.9137C146.698 31.7203 145.444 31.1236 143.99 31.1236C142.592 31.1236 141.377 31.7203 140.343 32.9137C139.329 34.0685 138.477 35.7046 137.788 37.8218C137.118 39.939 136.62 42.4605 136.295 45.3861C135.97 48.3118 135.807 51.5261 135.807 55.0292Z" fill="#9900FF"/>
<path d="M119.672 54.625C119.672 51.1989 119.481 48.0615 119.098 45.2129C118.715 42.3257 118.141 39.8428 117.375 37.7641C116.609 35.6853 115.662 34.0685 114.533 32.9137C113.422 31.7203 112.13 31.1236 110.657 31.1236C109.183 31.1236 107.891 31.7203 106.78 32.9137C105.67 34.0685 104.732 35.6853 103.967 37.7641C103.201 39.8428 102.627 42.3257 102.244 45.2129C101.861 48.0615 101.67 51.1989 101.67 54.625C101.67 58.0896 101.861 61.2847 102.244 64.2103C102.627 67.0974 103.201 69.5804 103.967 71.6591C104.732 73.7379 105.67 75.3739 106.78 76.5673C107.891 77.7221 109.183 78.2996 110.657 78.2996C112.13 78.2996 113.422 77.7221 114.533 76.5673C115.662 75.3739 116.609 73.7379 117.375 71.6591C118.141 69.5804 118.715 67.0974 119.098 64.2103C119.481 61.2847 119.672 58.0896 119.672 54.625ZM124.955 54.625C124.955 59.7064 124.63 64.2873 123.979 68.3678C123.328 72.4098 122.39 75.8551 121.165 78.7038C119.94 81.5524 118.437 83.7467 116.657 85.2865C114.896 86.7878 112.896 87.5384 110.657 87.5384C108.417 87.5384 106.417 86.7878 104.656 85.2865C102.895 83.7467 101.402 81.5524 100.177 78.7038C98.9516 75.8551 98.0137 72.4098 97.3629 68.3678C96.7121 64.2873 96.3867 59.7064 96.3867 54.625C96.3867 49.6206 96.7121 45.0974 97.3629 41.0554C98.0137 37.0134 98.9516 33.5681 100.177 30.7194C101.402 27.8708 102.895 25.6958 104.656 24.1945C106.417 22.6547 108.417 21.8848 110.657 21.8848C112.896 21.8848 114.896 22.6547 116.657 24.1945C118.437 25.6958 119.94 27.8708 121.165 30.7194C122.39 33.5681 123.328 37.0134 123.979 41.0554C124.63 45.0974 124.955 49.6206 124.955 54.625Z" fill="#9900FF"/>
<path d="M89.3514 0C89.3131 0.577429 89.2557 1.28959 89.1791 2.13649C89.1217 2.94489 88.9973 3.81103 88.8059 4.73492C88.6145 5.6588 88.3465 6.60194 88.002 7.56432C87.6766 8.4882 87.2363 9.35435 86.6812 10.1627C86.375 10.5862 86.0974 10.9519 85.8486 11.2599C85.5997 11.5678 85.2839 11.8373 84.9011 12.0683C84.5183 12.2992 84.0302 12.4917 83.4368 12.6457C82.8434 12.7997 82.049 12.8959 81.0537 12.9344L78.8716 13.0499C77.3786 13.1269 76.0291 13.7428 74.8232 14.8977C73.6365 16.014 72.5837 17.5923 71.6649 19.6326C70.7653 21.6343 70.0188 24.0595 69.4254 26.9082C68.832 29.7568 68.3918 32.9327 68.1046 36.4358C68.5066 34.896 69.0043 33.3946 69.5977 31.9318C70.191 30.4305 70.928 29.1024 71.8085 27.9476C72.689 26.7542 73.7226 25.8111 74.9094 25.1182C76.0961 24.3867 77.4743 24.021 79.0439 24.021C80.824 24.021 82.5084 24.6562 84.0971 25.9266C85.705 27.1969 87.1023 29.1024 88.2891 31.6431C89.495 34.1838 90.452 37.3404 91.1603 41.1129C91.8685 44.8855 92.2226 49.2739 92.2226 54.2783C92.2226 55.8566 92.1652 57.7814 92.0503 60.0526C91.9355 62.2853 91.7058 64.6335 91.3612 67.0972C91.0167 69.5609 90.519 72.0246 89.8682 74.4883C89.2366 76.9135 88.3848 79.0885 87.3129 81.0133C86.2601 82.938 84.9681 84.4971 83.4368 85.6904C81.9246 86.9223 80.1062 87.5382 77.9815 87.5382C77.101 87.5382 76.1631 87.3842 75.1678 87.0763C74.1916 86.8068 73.2058 86.2871 72.2104 85.5172C71.2342 84.7473 70.2772 83.6694 69.3392 82.2836C68.4205 80.8978 67.5783 79.127 66.8126 76.9713C66.4298 75.8934 66.047 74.6616 65.6641 73.2757C65.3004 71.8514 64.9655 70.1384 64.6592 68.1366C64.353 66.1349 64.1041 63.7674 63.9127 61.0342C63.7404 58.3011 63.6543 55.0675 63.6543 51.3334C63.6543 48.8697 63.7117 46.0788 63.8266 42.9607C63.9414 39.8426 64.1424 36.6667 64.4295 33.4331C64.7166 30.1995 65.0995 27.0814 65.578 24.0788C66.0565 21.0377 66.669 18.3815 67.4156 16.1103C68.2195 13.6466 69.0617 11.6448 69.9422 10.105C70.8227 8.5652 71.7606 7.35259 72.756 6.4672C73.7513 5.58181 74.8232 4.94664 75.9717 4.56169C77.1202 4.17673 78.3643 3.92652 79.7042 3.81103L81.5705 3.69555C82.183 3.65705 82.6998 3.59931 83.1209 3.52232C83.5612 3.40683 83.9249 3.2336 84.212 3.00263C84.4991 2.77166 84.7288 2.4252 84.9011 1.96326C85.0734 1.50132 85.2169 0.846896 85.3318 0H89.3514ZM68.9373 55.8374C68.9373 56.9922 68.966 58.3588 69.0234 59.9371C69.1 61.5154 69.2435 63.1707 69.4541 64.903C69.6646 66.5968 69.9709 68.2906 70.3729 69.9844C70.7748 71.6782 71.3012 73.1987 71.952 74.5461C72.622 75.8549 73.445 76.9328 74.4212 77.7797C75.3975 78.5881 76.5651 78.9923 77.9241 78.9923C79.4363 78.9923 80.7092 78.5111 81.7428 77.5487C82.7764 76.5478 83.6282 75.2775 84.2981 73.7377C84.9681 72.1594 85.4753 70.4271 85.8199 68.5408C86.1835 66.6545 86.442 64.826 86.5951 63.0552C86.7674 61.2459 86.8631 59.6099 86.8822 58.1471C86.9205 56.6458 86.9396 55.5102 86.9396 54.7403C86.9396 51.9301 86.7769 49.1777 86.4515 46.483C86.1453 43.7884 85.638 41.4016 84.9298 39.3229C84.2407 37.2442 83.3315 35.5696 82.2022 34.2993C81.092 33.0289 79.7234 32.3938 78.0964 32.3938C76.5076 32.3938 75.139 33.0289 73.9906 34.2993C72.8421 35.5311 71.8946 37.2249 71.1481 39.3806C70.4016 41.4979 69.8465 43.9808 69.4828 46.8295C69.1191 49.6396 68.9373 52.6423 68.9373 55.8374Z" fill="#9900FF"/>
<path d="M54.2092 54.625C54.2092 51.1989 54.0177 48.0615 53.6349 45.2129C53.2521 42.3257 52.6779 39.8428 51.9122 37.7641C51.1466 35.6853 50.1991 34.0685 49.0697 32.9137C47.9595 31.7203 46.6675 31.1236 45.1936 31.1236C43.7198 31.1236 42.4277 31.7203 41.3175 32.9137C40.2073 34.0685 39.2694 35.6853 38.5038 37.7641C37.7381 39.8428 37.1639 42.3257 36.781 45.2129C36.3982 48.0615 36.2068 51.1989 36.2068 54.625C36.2068 58.0896 36.3982 61.2847 36.781 64.2103C37.1639 67.0974 37.7381 69.5804 38.5038 71.6591C39.2694 73.7379 40.2073 75.3739 41.3175 76.5673C42.4277 77.7221 43.7198 78.2996 45.1936 78.2996C46.6675 78.2996 47.9595 77.7221 49.0697 76.5673C50.1991 75.3739 51.1466 73.7379 51.9122 71.6591C52.6779 69.5804 53.2521 67.0974 53.6349 64.2103C54.0177 61.2847 54.2092 58.0896 54.2092 54.625ZM59.4921 54.625C59.4921 59.7064 59.1667 64.2873 58.5159 68.3678C57.8651 72.4098 56.9272 75.8551 55.7022 78.7038C54.4771 81.5524 52.9745 83.7466 51.1944 85.2865C49.4334 86.7878 47.4332 87.5384 45.1936 87.5384C42.9541 87.5384 40.9538 86.7878 39.1928 85.2865C37.4319 83.7466 35.9388 81.5524 34.7138 78.7038C33.4888 75.8551 32.5508 72.4098 31.9 68.3678C31.2492 64.2873 30.9238 59.7064 30.9238 54.625C30.9238 49.6206 31.2492 45.0974 31.9 41.0554C32.5508 37.0134 33.4888 33.5681 34.7138 30.7194C35.9388 27.8708 37.4319 25.6958 39.1928 24.1945C40.9538 22.6547 42.9541 21.8848 45.1936 21.8848C47.4332 21.8848 49.4334 22.6547 51.1944 24.1945C52.9745 25.6958 54.4771 27.8708 55.7022 30.7194C56.9272 33.5681 57.8651 37.0134 58.5159 41.0554C59.1667 45.0974 59.4921 49.6206 59.4921 54.625Z" fill="#9900FF"/>
<path d="M19.6389 33.0279H5.28298V85.6317H0V23.7891H24.9506V85.6317H19.6389V33.0279Z" fill="#9900FF"/>
</svg>
