<svg width="126" height="175" viewBox="0 0 126 175" fill="none" xmlns="http://www.w3.org/2000/svg">
<path d="M104.945 108.532C104.945 113.216 105.429 116.908 106.399 119.61C107.369 122.312 108.518 123.663 109.845 123.663C111.461 123.663 113.026 122.342 114.541 119.7C117.093 115.317 118.369 108.142 118.369 98.1744V85.1146C117.807 86.3756 117.084 87.4264 116.2 88.267C115.315 89.1076 114.447 89.7081 113.596 90.0683L110.815 91.3293C109.147 92.1099 107.897 93.3408 107.063 95.022C105.651 97.8442 104.945 102.348 104.945 108.532ZM116.072 75.7476C117.127 75.2673 117.833 73.7061 118.19 71.0641C118.394 69.623 118.497 67.5515 118.497 64.8495C118.497 59.3253 117.935 55.3324 116.812 52.8705C115.706 50.3486 114.115 49.0877 112.04 49.0877C109.641 49.0877 107.939 51.3694 106.935 55.9328C106.374 58.4547 106.008 62.2075 105.838 67.1912H101.55C101.635 55.3023 102.724 47.0462 104.817 42.4227C106.927 37.7392 109.368 35.3975 112.142 35.3975C115.357 35.3975 117.969 37.5591 119.977 41.8823C121.967 46.2055 122.963 52.9306 122.963 62.0574V117.629C122.963 119.31 123.056 120.661 123.244 121.682C123.448 122.703 123.865 123.213 124.494 123.213C124.698 123.213 124.928 123.183 125.183 123.123C125.438 123.003 125.711 122.853 126 122.673V134.652C125.285 135.372 124.741 135.823 124.366 136.003C123.992 136.183 123.482 136.273 122.835 136.273C121.253 136.273 120.104 134.291 119.39 130.328C119.015 128.227 118.752 125.255 118.599 121.412C117.663 125.735 116.319 129.488 114.566 132.67C112.814 135.853 110.883 137.444 108.773 137.444C106.238 137.444 104.162 134.742 102.546 129.338C100.946 123.874 100.146 117.059 100.146 108.892C100.146 99.9457 100.938 93.0105 102.52 88.0869C104.102 83.1632 106.178 80.1309 108.747 78.99L116.072 75.7476Z" fill="#9900FF"/>
<path d="M57.8828 37.7378H62.4257V51.428C63.5146 46.6845 64.5014 43.2319 65.3862 41.0703C66.9004 37.4075 68.6189 35.5762 70.5415 35.5762C72.7194 35.5762 74.4718 37.4676 75.799 41.2504C76.5476 43.412 77.2282 46.5944 77.8407 50.7975C78.8616 45.6337 80.0611 41.8208 81.4392 39.359C82.8174 36.8371 84.3657 35.5762 86.0842 35.5762C89.7593 35.5762 92.2604 40.2597 93.5875 49.6267C94.3021 54.6704 94.6594 61.4555 94.6594 69.9819V134.2H89.8869V67.1898C89.8869 60.765 89.4275 56.3517 88.5087 53.9499C87.6069 51.5481 86.501 50.3472 85.1909 50.3472C83.3874 50.3472 81.8306 52.4788 80.5205 56.742C79.2274 61.0052 78.5808 68.1205 78.5808 78.0879V134.2H73.9104V71.2428C73.9104 64.6979 73.6892 59.9244 73.2468 56.9221C72.5492 52.4188 71.2476 50.1671 69.342 50.1671C67.6065 50.1671 66.0242 52.5389 64.595 57.2824C63.1828 62.0259 62.4767 70.6124 62.4767 83.0417V134.2H57.8828V37.7378Z" fill="#9900FF"/>
<path d="M38.4357 36.0264C40.5796 36.0264 42.4511 37.8878 44.0505 41.6105C44.9182 43.7121 45.803 46.7744 46.7047 50.7974V38.6383H50.9413V126.364C50.9413 138.613 50.4309 148.28 49.41 155.366C47.5044 168.455 43.9059 175 38.6144 175C35.6709 175 33.1953 172.659 31.1876 167.975C29.1799 163.352 28.057 156.086 27.8188 146.179H32.4892C32.7104 150.502 33.1528 153.834 33.8163 156.176C34.8542 159.779 36.4876 161.58 38.7165 161.58C42.2385 161.58 44.5439 157.197 45.6328 148.43C46.2794 143.267 46.5771 134.05 46.5261 120.78C45.6073 125.703 44.5014 129.366 43.2083 131.768C41.9152 134.17 40.2052 135.371 38.0784 135.371C35.1179 135.371 32.5233 131.678 30.2944 124.292C28.0825 116.847 26.9766 104.568 26.9766 87.4548C26.9766 71.3027 28.091 58.6933 30.3199 49.6265C32.5658 40.5598 35.2711 36.0264 38.4357 36.0264ZM46.7047 85.5634C46.7047 73.6145 46.0072 64.7579 44.612 58.9935C43.2168 53.2292 41.4388 50.3471 39.278 50.3471C36.0452 50.3471 33.8334 55.6911 32.6423 66.3791C32.0128 72.0833 31.6981 79.5589 31.6981 88.8058C31.6981 99.674 32.3191 107.96 33.5611 113.664C34.8202 119.309 36.5046 122.131 38.6144 122.131C41.9152 122.131 44.2377 116.877 45.5818 106.369C46.3304 100.425 46.7047 93.4893 46.7047 85.5634Z" fill="#9900FF"/>
<path d="M3.80272 23.0572C3.87077 16.3322 4.20255 11.4085 4.79806 8.28619C5.86996 2.76206 7.93721 0 10.9998 0C11.289 0 11.5868 0.0300216 11.8931 0.0900665C12.1993 0.150111 12.5481 0.24018 12.9394 0.36027V15.1313C12.463 15.0112 12.1142 14.9512 11.8931 14.9512C11.6889 14.8911 11.4932 14.8611 11.3061 14.8611C9.91088 14.8611 9.07717 16.1521 8.80494 18.734C8.53271 21.2559 8.3966 27.7407 8.3966 38.1885H12.9394V50.9781H8.34556V134.2H3.80272V50.9781H0V38.1885H3.80272V23.0572ZM17.3547 20.2651V1.89141H21.9486V20.2651H17.3547ZM17.3547 38.1885H21.9486V134.2H17.3547V38.1885Z" fill="#9900FF"/>
</svg>
