<svg width="341" height="606" viewBox="0 0 341 606" fill="none" xmlns="http://www.w3.org/2000/svg">
<path d="M280.97 188.855C281.095 154.049 281.86 124.748 283.267 100.952C284.675 76.8002 286.578 57.266 288.979 42.349C291.379 27.432 294.214 16.777 297.484 10.384C300.794 3.6358 304.395 0.261719 308.285 0.261719C311.513 0.261719 314.638 3.10306 317.659 8.78573C320.722 14.4684 323.433 23.7027 325.792 36.4888C328.151 48.9196 330.034 65.2573 331.441 85.5018C332.889 105.391 333.614 129.72 333.614 158.489V490.392C333.614 499.626 333.903 507.618 334.483 514.366C335.062 520.759 335.993 523.955 337.276 523.955C337.856 523.955 338.456 523.6 339.077 522.89C339.697 521.824 340.339 520.759 341.001 519.693V587.353C340.049 589.484 339.097 591.437 338.145 593.213C337.235 594.989 336.138 595.877 334.855 595.877C332.869 595.877 331.151 594.456 329.703 591.615C328.295 588.773 327.095 584.156 326.102 577.763C325.15 571.015 324.405 562.491 323.867 552.191C323.329 541.536 322.977 528.573 322.812 513.3C321.405 526.442 319.915 538.695 318.342 550.06C316.769 561.07 315.011 570.838 313.065 579.362C311.12 587.53 308.947 593.923 306.547 598.541C304.147 603.513 301.436 605.999 298.415 605.999C295.849 605.999 293.345 602.447 290.903 595.344C288.503 588.241 286.33 577.763 284.385 563.912C282.481 550.06 280.95 533.012 279.791 512.768C278.632 492.168 278.053 468.372 278.053 441.379C278.053 411.9 278.632 386.506 279.791 365.196C280.95 343.531 282.46 325.595 284.323 311.388C286.185 296.826 288.316 285.638 290.717 277.825C293.117 270.011 295.559 264.861 298.042 262.375L316.728 242.663C318.508 240.887 319.894 235.027 320.887 225.082C321.922 214.783 322.439 198.445 322.439 176.069C322.439 141.618 321.115 116.934 318.466 102.017C315.859 86.7449 312.093 79.1088 307.168 79.1088C302.119 79.1088 298.353 88.3431 295.869 106.812C293.386 124.925 291.979 152.273 291.648 188.855H280.97ZM322.191 298.069C321.281 303.752 320.142 308.547 318.777 312.453C317.452 316.005 315.983 319.024 314.369 321.51C312.755 323.996 311.037 326.305 309.216 328.436C307.395 330.212 305.574 332.165 303.754 334.296C301.684 336.782 299.78 340.334 298.042 344.951C296.304 349.568 294.793 355.606 293.51 363.065C292.227 370.523 291.234 379.58 290.531 390.235C289.827 400.535 289.475 412.788 289.475 426.995C289.475 443.333 289.765 457.717 290.344 470.148C290.965 482.578 291.793 493.056 292.828 501.58C293.904 510.104 295.187 516.497 296.676 520.759C298.166 525.021 299.801 527.152 301.581 527.152C302.698 527.152 303.981 526.086 305.43 523.955C306.878 521.469 308.368 517.918 309.899 513.3C311.431 508.683 312.921 502.823 314.369 495.72C315.859 488.261 317.183 479.382 318.342 469.082C319.501 458.782 320.432 447.062 321.136 433.921C321.839 420.779 322.191 406.04 322.191 389.702V298.069Z" fill="white"/>
<path d="M235.218 103.092H212.311V17.8516H269.548V103.092H246.64V588.427H235.218V103.092Z" fill="white"/>
<path d="M206.227 387.571C206.061 401.423 205.73 416.517 205.233 432.855C204.778 449.193 204.095 465.53 203.185 481.868C202.274 497.851 201.095 513.3 199.646 528.217C198.239 543.134 196.501 556.453 194.432 568.174C192.404 579.539 190.003 588.596 187.23 595.344C184.457 602.447 181.291 605.999 177.732 605.999C175.787 605.999 173.738 603.868 171.586 599.606C169.434 595.699 167.324 588.951 165.254 579.362C163.226 569.772 161.281 557.519 159.419 542.602C157.598 527.33 155.984 508.506 154.577 486.13C153.211 463.755 152.114 437.828 151.287 408.349C150.459 378.515 150.045 344.419 150.045 306.061C150.045 258.823 150.831 216.381 152.404 178.733C153.977 140.73 156.067 108.588 158.674 82.3053C161.323 56.0229 164.385 35.7784 167.862 21.5717C171.379 7.36503 175.063 0.261719 178.912 0.261719C182.388 0.261719 185.451 3.45822 188.099 9.85122C190.79 16.2442 193.128 24.7682 195.114 35.4232C197.101 46.0782 198.777 58.5091 200.143 72.7158C201.509 86.5673 202.605 101.307 203.433 116.934C204.302 132.206 204.944 147.834 205.357 163.816C205.813 179.799 206.102 195.071 206.227 209.633H195.549C194.97 170.919 193.397 140.553 190.831 118.532C188.306 96.512 184.747 85.5018 180.153 85.5018C177.008 85.5018 174.256 91.0069 171.897 102.017C169.579 113.027 167.634 128.477 166.061 148.366C164.53 167.901 163.371 191.697 162.585 219.755C161.84 247.458 161.467 278.002 161.467 311.388C161.467 349.036 161.881 381.534 162.709 408.881C163.537 435.874 164.716 458.25 166.248 476.008C167.779 493.411 169.641 506.375 171.835 514.899C174.07 523.068 176.594 527.152 179.408 527.152C181.395 527.152 183.278 524.133 185.058 518.095C186.837 511.702 188.431 502.645 189.838 490.925C191.245 478.849 192.445 464.11 193.438 446.707C194.432 429.303 195.135 409.592 195.549 387.571H206.227Z" fill="white"/>
<path d="M79.7109 17.8516H91.1335V455.24H91.3818L124.035 17.8516H137.134V588.427H125.65V151.039H125.401L92.8096 588.427H79.7109V17.8516Z" fill="white"/>
<path d="M51.4636 103.092H26.0112L25.5145 240.009C25.2662 309.266 24.6454 367.158 23.6522 413.685C22.6589 459.857 21.2932 496.972 19.5549 525.03C17.8581 553.088 15.7888 572.978 13.347 584.698C10.9052 596.419 8.11168 602.279 4.96633 602.279C3.80752 602.279 2.79356 600.681 1.92445 597.484C1.09673 594.643 0.455247 591.624 0 588.427V502.122C1.61406 507.449 3.04188 510.113 4.28346 510.113C5.15257 510.113 5.98029 508.87 6.76663 506.384C7.59435 503.898 8.35999 499.103 9.06356 492C9.80851 484.896 10.4914 474.951 11.1122 462.165C11.733 449.024 12.271 431.976 12.7262 411.021C13.2229 390.067 13.616 364.672 13.9057 334.838C14.2368 305.004 14.4644 269.487 14.5886 228.288L15.1473 17.8516H62.8862V588.427H51.4636V103.092Z" fill="white"/>
</svg>
