<svg width="966" height="167" viewBox="0 0 966 167" fill="none" xmlns="http://www.w3.org/2000/svg">
<path d="M863.898 51.9833C864.109 42.3894 865.411 34.3129 867.805 27.7538C870.198 21.0968 873.436 15.7125 877.519 11.6008C881.601 7.48912 886.423 4.55221 891.984 2.79006C897.615 0.930019 903.739 0 910.356 0C915.846 0 921.16 0.783178 926.299 2.34953C931.508 3.91588 936.118 6.46121 940.131 9.9855C944.143 13.4119 947.346 17.9152 949.739 23.4953C952.203 28.9775 953.434 35.6835 953.434 43.6131V135.098C953.434 137.643 953.927 139.846 954.913 141.706C955.898 143.468 957.482 144.349 959.664 144.349C960.649 144.349 961.67 144.251 962.726 144.055C963.782 143.762 964.873 143.468 965.999 143.174V161.824C964.38 162.411 962.761 162.95 961.142 163.439C959.594 163.929 957.728 164.173 955.546 164.173C952.167 164.173 949.246 163.782 946.783 162.999C944.389 162.215 942.348 160.943 940.659 159.181C939.04 157.321 937.773 154.971 936.858 152.132C935.942 149.195 935.344 145.622 935.063 141.412C932.669 145.034 930.135 148.412 927.46 151.545C924.786 154.579 921.794 157.272 918.486 159.621C915.177 161.873 911.482 163.635 907.399 164.908C903.317 166.278 898.706 166.963 893.568 166.963C889.203 166.963 884.945 165.984 880.792 164.026C876.709 162.069 873.014 159.181 869.705 155.363C866.467 151.545 863.863 146.846 861.892 141.265C859.921 135.587 858.936 129.028 858.936 121.588C858.936 113.463 859.921 106.463 861.892 100.589C863.863 94.6175 866.432 89.6737 869.6 85.7578C872.767 81.744 876.392 78.6603 880.475 76.5065C884.558 74.3528 888.711 72.9333 892.934 72.248L924.715 66.8147C927.742 66.3252 930.1 64.7099 931.789 61.9688C933.549 59.1298 934.429 54.6265 934.429 48.459C934.429 38.963 932.177 32.1592 927.672 28.0475C923.237 23.8379 916.831 21.7331 908.455 21.7331C899.867 21.7331 893.462 24.2785 889.239 29.3691C885.015 34.3619 882.622 41.8999 882.059 51.9833H863.898ZM934.007 82.0867C932.458 83.653 930.522 84.9746 928.2 86.0515C925.947 87.0305 923.448 87.8626 920.703 88.5479C917.958 89.2331 915.037 89.8695 911.939 90.4569C908.842 90.9463 905.745 91.4848 902.648 92.0722C899.128 92.7574 895.89 93.7364 892.934 95.0091C889.978 96.2817 887.408 97.946 885.226 100.002C883.044 102.058 881.355 104.554 880.158 107.491C878.962 110.33 878.363 113.707 878.363 117.623C878.363 122.127 878.856 126.091 879.841 129.518C880.897 132.944 882.305 135.832 884.065 138.182C885.895 140.531 888.077 142.293 890.611 143.468C893.145 144.643 895.926 145.23 898.952 145.23C900.853 145.23 903.035 144.937 905.499 144.349C907.962 143.664 910.496 142.685 913.101 141.412C915.705 140.14 918.239 138.524 920.703 136.566C923.237 134.511 925.49 132.063 927.46 129.224C929.431 126.385 931.015 123.154 932.212 119.532C933.408 115.91 934.007 111.847 934.007 107.344V82.0867Z" fill="white"/>
<path d="M745.643 4.84766H793.79C807.586 4.84766 817.898 8.42089 824.726 15.5674C831.624 22.7139 835.073 33.0909 835.073 46.6986C835.073 53.943 833.806 60.0616 831.272 65.0543C828.738 70.0471 825.395 74.4524 821.242 78.2704C827.225 81.4031 831.976 85.9064 835.496 91.7802C839.015 97.654 840.775 105.241 840.775 114.541C840.775 121.884 839.895 128.492 838.135 134.365C836.376 140.239 833.701 145.232 830.111 149.344C826.521 153.455 821.946 156.637 816.385 158.889C810.894 161.042 804.383 162.119 796.851 162.119H745.643V4.84766ZM765.07 140.533H794.634C799.773 140.533 804.031 139.995 807.41 138.918C810.859 137.743 813.604 136.079 815.646 133.925C817.687 131.771 819.13 129.177 819.975 126.142C820.819 123.107 821.242 119.681 821.242 115.863C821.242 112.045 820.819 108.619 819.975 105.584C819.13 102.451 817.687 99.8567 815.646 97.8009C813.604 95.6472 810.859 94.0319 807.41 92.955C804.031 91.7802 799.773 91.1928 794.634 91.1928H765.07V140.533ZM765.07 71.3687H794.423C800.969 71.3687 806.143 69.5576 809.944 65.9354C813.745 62.3132 815.646 56.6841 815.646 49.0482C815.646 44.7407 815.118 41.1675 814.062 38.3284C813.006 35.3915 811.598 33.042 809.838 31.2798C808.079 29.5177 806.073 28.294 803.82 27.6087C801.638 26.8255 799.386 26.434 797.063 26.434H765.07V71.3687Z" fill="white"/>
<path d="M704.255 83.2614C704.255 74.5486 703.551 66.57 702.143 59.3256C700.735 51.9833 698.623 45.669 695.808 40.3825C692.992 35.0961 689.508 30.9844 685.355 28.0475C681.272 25.0127 676.521 23.4953 671.101 23.4953C665.681 23.4953 660.93 25.0127 656.847 28.0475C652.764 30.9844 649.315 35.0961 646.5 40.3825C643.684 45.669 641.572 51.9833 640.164 59.3256C638.757 66.57 638.053 74.5486 638.053 83.2614C638.053 92.0722 638.757 100.198 640.164 107.638C641.572 114.98 643.684 121.294 646.5 126.581C649.315 131.867 652.764 136.028 656.847 139.063C660.93 142 665.681 143.468 671.101 143.468C676.521 143.468 681.272 142 685.355 139.063C689.508 136.028 692.992 131.867 695.808 126.581C698.623 121.294 700.735 114.98 702.143 107.638C703.551 100.198 704.255 92.0722 704.255 83.2614ZM723.682 83.2614C723.682 96.1838 722.486 107.834 720.092 118.211C717.699 128.49 714.25 137.252 709.745 144.496C705.24 151.74 699.715 157.321 693.168 161.236C686.692 165.054 679.337 166.963 671.101 166.963C662.865 166.963 655.509 165.054 649.034 161.236C642.558 157.321 637.067 151.74 632.562 144.496C628.057 137.252 624.608 128.49 622.215 118.211C619.822 107.834 618.625 96.1838 618.625 83.2614C618.625 70.5348 619.822 59.0319 622.215 48.7527C624.608 38.4735 628.057 29.7117 632.562 22.4674C637.067 15.223 642.558 9.6918 649.034 5.87381C655.509 1.95793 662.865 0 671.101 0C679.337 0 686.692 1.95793 693.168 5.87381C699.715 9.6918 705.24 15.223 709.745 22.4674C714.25 29.7117 717.699 38.4735 720.092 48.7527C722.486 59.0319 723.682 70.5348 723.682 83.2614Z" fill="white"/>
<path d="M577.235 28.3429H533.945L533.101 66.0822C532.678 85.1722 531.622 101.129 529.933 113.954C528.244 126.681 525.921 136.911 522.964 144.645C520.078 152.378 516.559 157.861 512.406 161.091C508.253 164.322 503.502 165.937 498.152 165.937C496.181 165.937 494.456 165.497 492.978 164.616C491.57 163.832 490.479 163 489.705 162.119V138.33C492.45 139.799 494.879 140.533 496.99 140.533C498.469 140.533 499.876 140.19 501.214 139.505C502.622 138.82 503.924 137.498 505.121 135.54C506.388 133.582 507.549 130.841 508.605 127.317C509.661 123.695 510.576 118.996 511.35 113.22C512.195 107.444 512.863 100.444 513.356 92.2208C513.919 83.9974 514.306 74.2077 514.518 62.8516L515.468 4.84766H596.663V162.119H577.235V28.3429Z" fill="white"/>
<path d="M380.529 51.9833C380.74 42.3894 382.042 34.3129 384.436 27.7538C386.829 21.0968 390.067 15.7125 394.149 11.6008C398.232 7.48912 403.054 4.55221 408.615 2.79006C414.246 0.930019 420.37 0 426.986 0C432.477 0 437.791 0.783178 442.93 2.34953C448.139 3.91588 452.749 6.46121 456.762 9.9855C460.774 13.4119 463.977 17.9152 466.37 23.4953C468.833 28.9775 470.065 35.6835 470.065 43.6131V135.098C470.065 137.643 470.558 139.846 471.543 141.706C472.529 143.468 474.113 144.349 476.295 144.349C477.28 144.349 478.301 144.251 479.357 144.055C480.413 143.762 481.504 143.468 482.63 143.174V161.824C481.011 162.411 479.392 162.95 477.773 163.439C476.224 163.929 474.359 164.173 472.177 164.173C468.798 164.173 465.877 163.782 463.413 162.999C461.02 162.215 458.979 160.943 457.289 159.181C455.67 157.321 454.403 154.971 453.488 152.132C452.573 149.195 451.975 145.622 451.693 141.412C449.3 145.034 446.766 148.412 444.091 151.545C441.416 154.579 438.425 157.272 435.117 159.621C431.808 161.873 428.113 163.635 424.03 164.908C419.947 166.278 415.337 166.963 410.198 166.963C405.834 166.963 401.576 165.984 397.423 164.026C393.34 162.069 389.644 159.181 386.336 155.363C383.098 151.545 380.494 146.846 378.523 141.265C376.552 135.587 375.566 129.028 375.566 121.588C375.566 113.463 376.552 106.463 378.523 100.589C380.494 94.6175 383.063 89.6737 386.231 85.7578C389.398 81.744 393.023 78.6603 397.106 76.5065C401.188 74.3528 405.341 72.9333 409.565 72.248L441.346 66.8147C444.373 66.3252 446.731 64.7099 448.42 61.9688C450.18 59.1298 451.06 54.6265 451.06 48.459C451.06 38.963 448.807 32.1592 444.302 28.0475C439.868 23.8379 433.462 21.7331 425.086 21.7331C416.498 21.7331 410.093 24.2785 405.869 29.3691C401.646 34.3619 399.253 41.8999 398.69 51.9833H380.529ZM450.638 82.0867C449.089 83.653 447.153 84.9746 444.83 86.0515C442.578 87.0305 440.079 87.8626 437.334 88.5479C434.589 89.2331 431.667 89.8695 428.57 90.4569C425.473 90.9463 422.376 91.4848 419.279 92.0722C415.759 92.7574 412.521 93.7364 409.565 95.0091C406.609 96.2817 404.039 97.946 401.857 100.002C399.675 102.058 397.986 104.554 396.789 107.491C395.592 110.33 394.994 113.707 394.994 117.623C394.994 122.127 395.487 126.091 396.472 129.518C397.528 132.944 398.936 135.832 400.696 138.182C402.526 140.531 404.708 142.293 407.242 143.468C409.776 144.643 412.556 145.23 415.583 145.23C417.484 145.23 419.666 144.937 422.13 144.349C424.593 143.664 427.127 142.685 429.732 141.412C432.336 140.14 434.87 138.524 437.334 136.566C439.868 134.511 442.12 132.063 444.091 129.224C446.062 126.385 447.646 123.154 448.843 119.532C450.039 115.91 450.638 111.847 450.638 107.344V82.0867Z" fill="white"/>
<path d="M332.49 98.682C328.267 100.248 323.621 101.57 318.553 102.647C313.555 103.724 308.874 104.262 304.51 104.262C289.376 104.262 278.149 100.248 270.829 92.2208C263.508 84.0953 259.848 71.3197 259.848 53.8941V4.84766H279.275V48.4608C279.275 54.3346 279.768 59.4253 280.754 63.7327C281.809 68.0402 283.499 71.6134 285.822 74.4524C288.145 77.1936 291.206 79.2494 295.008 80.62C298.809 81.9905 303.49 82.6758 309.05 82.6758C310.529 82.6758 312.288 82.48 314.33 82.0884C316.441 81.6968 318.588 81.2073 320.77 80.62C322.952 80.0326 325.064 79.3962 327.105 78.711C329.217 77.9278 331.012 77.1446 332.49 76.3614V4.84766H352.024V162.119H332.49V98.682Z" fill="white"/>
<path d="M222.997 83.2614C222.997 74.5486 222.293 66.57 220.885 59.3256C219.477 51.9833 217.366 45.669 214.55 40.3825C211.734 35.0961 208.25 30.9844 204.097 28.0475C200.014 25.0127 195.263 23.4953 189.843 23.4953C184.423 23.4953 179.672 25.0127 175.589 28.0475C171.506 30.9844 168.057 35.0961 165.242 40.3825C162.426 45.669 160.314 51.9833 158.907 59.3256C157.499 66.57 156.795 74.5486 156.795 83.2614C156.795 92.0722 157.499 100.198 158.907 107.638C160.314 114.98 162.426 121.294 165.242 126.581C168.057 131.867 171.506 136.028 175.589 139.063C179.672 142 184.423 143.468 189.843 143.468C195.263 143.468 200.014 142 204.097 139.063C208.25 136.028 211.734 131.867 214.55 126.581C217.366 121.294 219.477 114.98 220.885 107.638C222.293 100.198 222.997 92.0722 222.997 83.2614ZM242.425 83.2614C242.425 96.1838 241.228 107.834 238.835 118.211C236.441 128.49 232.992 137.252 228.487 144.496C223.982 151.74 218.457 157.321 211.91 161.236C205.435 165.054 198.079 166.963 189.843 166.963C181.607 166.963 174.252 165.054 167.776 161.236C161.3 157.321 155.809 151.74 151.304 144.496C146.799 137.252 143.35 128.49 140.957 118.211C138.564 107.834 137.367 96.1838 137.367 83.2614C137.367 70.5348 138.564 59.0319 140.957 48.7527C143.35 38.4735 146.799 29.7117 151.304 22.4674C155.809 15.223 161.3 9.6918 167.776 5.87381C174.252 1.95793 181.607 0 189.843 0C198.079 0 205.435 1.95793 211.91 5.87381C218.457 9.6918 223.982 15.223 228.487 22.4674C232.992 29.7117 236.441 38.4735 238.835 48.7527C241.228 59.0319 242.425 70.5348 242.425 83.2614Z" fill="white"/>
<path d="M0 4.84766H28.2969L58.1775 133.778H58.5998L88.9028 4.84766H115.51V162.119H97.3496V35.5384H96.9273L67.0467 162.119H48.4637L18.583 35.5384H18.1607V162.119H0V4.84766Z" fill="white"/>
</svg>
