<svg width="126" height="175" viewBox="0 0 126 175" fill="none" xmlns="http://www.w3.org/2000/svg">
<path d="M125.92 87.3853C125.871 92.737 125.765 97.974 125.601 103.096C125.437 108.219 125.222 112.806 124.957 116.858C124.691 120.91 124.376 124.159 124.013 126.606C123.655 129.128 123.256 130.39 122.818 130.39C122.339 130.39 121.896 129.052 121.489 126.376C121.086 123.624 120.736 119.534 120.439 114.106C120.147 108.601 119.917 101.72 119.749 93.4633C119.58 85.2064 119.496 75.4969 119.496 64.3349C119.496 56.8425 119.543 50.0765 119.636 44.0367C119.733 37.9205 119.861 32.4924 120.021 27.7523C120.185 22.9358 120.373 18.8073 120.586 15.367C120.798 11.8501 121.022 8.98318 121.256 6.76606C121.496 4.47248 121.739 2.79052 121.987 1.72019C122.235 0.573397 122.474 0 122.705 0C123.192 0 123.637 1.26147 124.04 3.78441C124.443 6.30734 124.788 10.1682 125.076 15.367C125.368 20.4893 125.594 26.9495 125.754 34.7477C125.918 42.4694 125.999 51.5673 125.999 62.0413V72.5917H120.798C120.803 78.555 120.851 83.9832 120.944 88.8761C121.037 93.6927 121.17 97.8211 121.343 101.261C121.516 104.702 121.724 107.378 121.967 109.289C122.215 111.124 122.494 112.041 122.804 112.041C123.119 112.041 123.384 111.277 123.601 109.748C123.818 108.219 124 106.269 124.146 103.899C124.292 101.529 124.41 98.8914 124.498 95.9862C124.591 93.081 124.669 90.2141 124.731 87.3853H125.92ZM124.771 55.7339C124.762 49.7706 124.709 44.4572 124.611 39.7936C124.518 35.13 124.385 31.2309 124.213 28.0963C124.044 24.8853 123.841 22.4771 123.601 20.8716C123.362 19.1896 123.097 18.3486 122.804 18.3486C122.525 18.3486 122.268 19.3043 122.034 21.2156C121.799 23.0505 121.593 25.6498 121.416 29.0138C121.239 32.3012 121.097 36.2385 120.991 40.8257C120.884 45.3364 120.82 50.3058 120.798 55.7339H124.771Z" fill="#FF00FF"/>
<path d="M111.668 3.78613H112.89V97.9375H112.917L116.411 3.78613H117.813V126.607H116.584V32.4559H116.557L113.07 126.607H111.668V3.78613Z" fill="#FF00FF"/>
<path d="M104.211 3.78613H105.433V53.3274H108.755V3.78613H109.984V126.607H108.755V71.676H105.433V126.607H104.211V3.78613Z" fill="#FF00FF"/>
<path d="M96.1032 40.5963C96.1165 33.104 96.1985 26.7966 96.349 21.6743C96.4996 16.4755 96.7033 12.2706 96.9602 9.05963C97.217 5.84862 97.5204 3.55504 97.8702 2.1789C98.2245 0.726298 98.6098 0 99.0261 0C99.3715 0 99.7059 0.611622 100.029 1.83486C100.357 3.05811 100.647 5.04587 100.899 7.79817C101.152 10.474 101.353 13.9908 101.504 18.3486C101.659 22.63 101.736 27.867 101.736 34.0596V105.505C101.736 107.492 101.767 109.213 101.829 110.665C101.891 112.041 101.991 112.729 102.128 112.729C102.19 112.729 102.255 112.653 102.321 112.5C102.387 112.271 102.456 112.041 102.527 111.812V126.376C102.425 126.835 102.323 127.255 102.221 127.638C102.124 128.02 102.007 128.211 101.869 128.211C101.657 128.211 101.473 127.905 101.318 127.294C101.167 126.682 101.039 125.688 100.933 124.312C100.831 122.859 100.751 121.024 100.693 118.807C100.636 116.514 100.598 113.723 100.581 110.436C100.43 113.265 100.271 115.902 100.102 118.349C99.934 120.719 99.7458 122.821 99.5376 124.656C99.3295 126.414 99.097 127.791 98.8401 128.784C98.5833 129.855 98.2932 130.39 97.9699 130.39C97.6953 130.39 97.4274 129.625 97.1661 128.096C96.9092 126.567 96.6767 124.312 96.4686 121.33C96.2649 118.349 96.101 114.679 95.977 110.321C95.853 105.887 95.791 100.765 95.791 94.9541C95.791 88.6086 95.853 83.1422 95.977 78.555C96.101 73.8914 96.2627 70.0306 96.4619 66.9725C96.6612 63.8379 96.8893 61.4297 97.1462 59.7477C97.403 58.0657 97.6643 56.9572 97.93 56.422L99.9295 52.1789C100.12 51.7966 100.268 50.5352 100.375 48.3945C100.485 46.1774 100.541 42.6606 100.541 37.844C100.541 30.4281 100.399 25.1147 100.116 21.9037C99.8366 18.6162 99.4335 16.9725 98.9065 16.9725C98.3663 16.9725 97.9632 18.9602 97.6975 22.9358C97.4318 26.8349 97.2812 32.7217 97.2458 40.5963H96.1032ZM100.514 64.1055C100.417 65.3287 100.295 66.3609 100.149 67.2018C100.007 67.9664 99.8498 68.6162 99.6771 69.1514C99.5044 69.6865 99.3206 70.1835 99.1258 70.6422C98.9309 71.0245 98.736 71.445 98.5412 71.9037C98.3198 72.4388 98.116 73.2034 97.93 74.1973C97.744 75.1911 97.5824 76.4908 97.4451 78.0963C97.3078 79.7018 97.2015 81.6514 97.1262 83.945C97.051 86.1621 97.0133 88.7997 97.0133 91.8578C97.0133 95.3746 97.0443 98.4709 97.1063 101.147C97.1727 103.823 97.2613 106.078 97.372 107.913C97.4872 109.748 97.6245 111.124 97.7839 112.041C97.9433 112.959 98.1183 113.417 98.3087 113.417C98.4283 113.417 98.5655 113.188 98.7205 112.729C98.8755 112.194 99.035 111.43 99.1988 110.436C99.3627 109.442 99.5221 108.18 99.6771 106.651C99.8366 105.046 99.9783 103.135 100.102 100.917C100.226 98.7003 100.326 96.1774 100.401 93.3486C100.476 90.5199 100.514 87.3471 100.514 83.8303V64.1055Z" fill="#FF00FF"/>
<path d="M88.123 3.78613H91.1522C92.0202 3.78613 92.669 6.57665 93.0986 12.1577C93.5326 17.7387 93.7496 25.8427 93.7496 36.4696C93.7496 42.1271 93.6699 46.9054 93.5104 50.8045C93.351 54.7036 93.1407 58.1439 92.8794 61.1256C93.2558 63.5721 93.5547 67.0889 93.7762 71.676C93.9976 76.2632 94.1083 82.1883 94.1083 89.4513C94.1083 95.1852 94.0529 100.346 93.9422 104.933C93.8315 109.52 93.6632 113.419 93.4374 116.63C93.2115 119.841 92.9237 122.326 92.5738 124.084C92.2284 125.766 91.8187 126.607 91.3449 126.607H88.123V3.78613ZM89.3453 109.749H91.2054C91.5286 109.749 91.7966 109.329 92.0091 108.488C92.2261 107.571 92.3989 106.271 92.5273 104.589C92.6557 102.907 92.7465 100.881 92.7997 98.5109C92.8528 96.1409 92.8794 93.465 92.8794 90.4834C92.8794 87.5017 92.8528 84.8259 92.7997 82.4559C92.7465 80.0094 92.6557 77.9834 92.5273 76.3779C92.3989 74.6959 92.2261 73.4345 92.0091 72.5935C91.7966 71.676 91.5286 71.2173 91.2054 71.2173H89.3453V109.749ZM89.3453 55.7357H91.1921C91.6039 55.7357 91.9294 54.3213 92.1686 51.4926C92.4077 48.6638 92.5273 44.2678 92.5273 38.3045C92.5273 34.9406 92.4941 32.15 92.4276 29.9329C92.3612 27.6393 92.2726 25.8045 92.1619 24.4283C92.0512 23.0522 91.925 22.0965 91.7833 21.5614C91.646 20.9497 91.5043 20.6439 91.3581 20.6439H89.3453V55.7357Z" fill="#FF00FF"/>
<path d="M85.2155 65.0229C85.2155 58.2187 85.1712 51.9878 85.0827 46.3303C84.9941 40.5963 84.8612 35.6651 84.6841 31.5367C84.5069 27.4083 84.2877 24.1972 84.0264 21.9037C83.7696 19.5336 83.4706 18.3486 83.1296 18.3486C82.7886 18.3486 82.4897 19.5336 82.2329 21.9037C81.976 24.1972 81.759 27.4083 81.5818 31.5367C81.4047 35.6651 81.2718 40.5963 81.1833 46.3303C81.0947 51.9878 81.0504 58.2187 81.0504 65.0229C81.0504 71.9037 81.0947 78.2492 81.1833 84.0596C81.2718 89.7936 81.4047 94.7248 81.5818 98.8532C81.759 102.982 81.976 106.231 82.2329 108.601C82.4897 110.894 82.7886 112.041 83.1296 112.041C83.4706 112.041 83.7696 110.894 84.0264 108.601C84.2877 106.231 84.5069 102.982 84.6841 98.8532C84.8612 94.7248 84.9941 89.7936 85.0827 84.0596C85.1712 78.2492 85.2155 71.9037 85.2155 65.0229ZM86.4378 65.0229C86.4378 75.1147 86.3625 84.2125 86.212 92.3165C86.0614 100.344 85.8444 107.187 85.5609 112.844C85.2775 118.502 84.9299 122.859 84.518 125.917C84.1106 128.899 83.6478 130.39 83.1296 130.39C82.6115 130.39 82.1487 128.899 81.7413 125.917C81.3338 122.859 80.9884 118.502 80.705 112.844C80.4215 107.187 80.2045 100.344 80.054 92.3165C79.9034 84.2125 79.8281 75.1147 79.8281 65.0229C79.8281 55.0841 79.9034 46.1009 80.054 38.0734C80.2045 30.0459 80.4215 23.2034 80.705 17.5459C80.9884 11.8884 81.3338 7.5688 81.7413 4.58715C82.1487 1.52905 82.6115 0 83.1296 0C83.6478 0 84.1106 1.52905 84.518 4.58715C84.9299 7.5688 85.2775 11.8884 85.5609 17.5459C85.8444 23.2034 86.0614 30.0459 86.212 38.0734C86.3625 46.1009 86.4378 55.0841 86.4378 65.0229Z" fill="#FF00FF"/>
<path d="M71.8867 3.78441H73.109V20.6422H73.1356C73.2153 17.8135 73.3149 15.1376 73.4345 12.6147C73.5585 10.0917 73.7047 7.91284 73.8729 6.07798C74.0457 4.16667 74.2427 2.67584 74.4642 1.6055C74.69 0.535162 74.9469 0 75.2347 0C75.6156 0 75.981 1.26147 76.3308 3.78441C76.6807 6.30734 76.9907 10.0917 77.2608 15.1376C77.531 20.1835 77.7458 26.529 77.9052 34.1743C78.0646 41.7431 78.1443 50.5734 78.1443 60.6651C78.1443 73.2798 78.0691 84.0214 77.9185 92.8899C77.7723 101.682 77.562 108.869 77.2874 114.45C77.0173 120.031 76.6895 124.083 76.3043 126.606C75.919 129.128 75.4894 130.39 75.0155 130.39C74.7808 130.39 74.5616 129.855 74.3579 128.784C74.1542 127.714 73.9704 126.338 73.8065 124.656C73.6471 122.898 73.5098 120.986 73.3947 118.922C73.2795 116.781 73.1932 114.717 73.1356 112.729H73.109V175H71.8867V3.78441ZM73.0824 65.8257C73.0824 72.4771 73.1201 78.6315 73.1954 84.289C73.2707 89.87 73.3858 94.7248 73.5408 98.8532C73.7002 102.982 73.8973 106.231 74.132 108.601C74.3712 110.894 74.6524 112.041 74.9757 112.041C75.3122 112.041 75.6023 110.894 75.8459 108.601C76.0939 106.231 76.2976 102.982 76.457 98.8532C76.6165 94.7248 76.7338 89.87 76.8091 84.289C76.8844 78.6315 76.922 72.4771 76.922 65.8257C76.922 58.8685 76.8844 52.4847 76.8091 46.6743C76.7338 40.8639 76.6165 35.8563 76.457 31.6514C76.2976 27.4465 76.0939 24.1972 75.8459 21.9037C75.6023 19.5336 75.3122 18.3486 74.9757 18.3486C74.6524 18.3486 74.3712 19.5336 74.132 21.9037C73.8973 24.1972 73.7002 27.4465 73.5408 31.6514C73.3858 35.8563 73.2707 40.8639 73.1954 46.6743C73.1201 52.4847 73.0824 58.8685 73.0824 65.8257Z" fill="#FF00FF"/>
<path d="M64.0586 3.78613H65.2809V97.9375H65.3075L68.8016 3.78613H70.2033V126.607H68.9743V32.4559H68.9478L65.4602 126.607H64.0586V3.78613Z" fill="#FF00FF"/>
<path d="M55.1055 3.78613H56.8858L58.7657 104.474H58.7923L60.6988 3.78613H62.3728V126.607H61.2302V27.754H61.2037L59.3237 126.607H58.1546L56.2746 27.754H56.2481V126.607H55.1055V3.78613Z" fill="#FF00FF"/>
<path d="M46.1562 3.78613H47.9365L49.8165 104.474H49.8431L51.7496 3.78613H53.4236V126.607H52.281V27.754H52.2544L50.3745 126.607H49.2053L47.3254 27.754H47.2988V126.607H46.1562V3.78613Z" fill="#FF00FF"/>
<path d="M38.0466 40.5963C38.0599 33.104 38.1418 26.7966 38.2924 21.6743C38.443 16.4755 38.6467 12.2706 38.9035 9.05963C39.1604 5.84862 39.4637 3.55504 39.8136 2.1789C40.1679 0.726298 40.5532 0 40.9695 0C41.3149 0 41.6493 0.611622 41.9726 1.83486C42.3003 3.05811 42.5903 5.04587 42.8428 7.79817C43.0952 10.474 43.2967 13.9908 43.4473 18.3486C43.6023 22.63 43.6798 27.867 43.6798 34.0596V105.505C43.6798 107.492 43.7108 109.213 43.7728 110.665C43.8348 112.041 43.9344 112.729 44.0717 112.729C44.1337 112.729 44.1979 112.653 44.2644 112.5C44.3308 112.271 44.3994 112.041 44.4703 111.812V126.376C44.3684 126.835 44.2666 127.255 44.1647 127.638C44.0673 128.02 43.9499 128.211 43.8126 128.211C43.6001 128.211 43.4163 127.905 43.2613 127.294C43.1107 126.682 42.9823 125.688 42.876 124.312C42.7741 122.859 42.6944 121.024 42.6368 118.807C42.5793 116.514 42.5416 113.723 42.5239 110.436C42.3733 113.265 42.2139 115.902 42.0456 118.349C41.8773 120.719 41.6891 122.821 41.481 124.656C41.2728 126.414 41.0403 127.791 40.7835 128.784C40.5266 129.855 40.2365 130.39 39.9132 130.39C39.6387 130.39 39.3707 129.625 39.1095 128.096C38.8526 126.567 38.6201 124.312 38.412 121.33C38.2082 118.349 38.0444 114.679 37.9204 110.321C37.7964 105.887 37.7344 100.765 37.7344 94.9541C37.7344 88.6086 37.7964 83.1422 37.9204 78.555C38.0444 73.8914 38.206 70.0306 38.4053 66.9725C38.6046 63.8379 38.8327 61.4297 39.0895 59.7477C39.3464 58.0657 39.6077 56.9572 39.8734 56.422L41.8729 52.1789C42.0633 51.7966 42.2117 50.5352 42.318 48.3945C42.4287 46.1774 42.4841 42.6606 42.4841 37.844C42.4841 30.4281 42.3423 25.1147 42.0589 21.9037C41.7799 18.6162 41.3769 16.9725 40.8499 16.9725C40.3096 16.9725 39.9066 18.9602 39.6409 22.9358C39.3752 26.8349 39.2246 32.7217 39.1892 40.5963H38.0466ZM42.4575 64.1055C42.3601 65.3287 42.2383 66.3609 42.0921 67.2018C41.9504 67.9664 41.7932 68.6162 41.6205 69.1514C41.4478 69.6865 41.264 70.1835 41.0691 70.6422C40.8743 71.0245 40.6794 71.445 40.4845 71.9037C40.2631 72.4388 40.0594 73.2034 39.8734 74.1973C39.6874 75.1911 39.5257 76.4908 39.3885 78.0963C39.2512 79.7018 39.1449 81.6514 39.0696 83.945C38.9943 86.1621 38.9567 88.7997 38.9567 91.8578C38.9567 95.3746 38.9877 98.4709 39.0497 101.147C39.1161 103.823 39.2047 106.078 39.3154 107.913C39.4305 109.748 39.5678 111.124 39.7272 112.041C39.8867 112.959 40.0616 113.417 40.252 113.417C40.3716 113.417 40.5089 113.188 40.6639 112.729C40.8189 112.194 40.9783 111.43 41.1422 110.436C41.306 109.442 41.4655 108.18 41.6205 106.651C41.7799 105.046 41.9216 103.135 42.0456 100.917C42.1696 98.7003 42.2693 96.1774 42.3446 93.3486C42.4198 90.5199 42.4575 87.3471 42.4575 83.8303V64.1055Z" fill="#FF00FF"/>
<path d="M29.793 3.78441H31.0153V20.6422H31.0418C31.1215 17.8135 31.2212 15.1376 31.3408 12.6147C31.4648 10.0917 31.6109 7.91284 31.7792 6.07798C31.9519 4.16667 32.149 2.67584 32.3704 1.6055C32.5963 0.535162 32.8531 0 33.141 0C33.5219 0 33.8872 1.26147 34.2371 3.78441C34.5869 6.30734 34.8969 10.0917 35.1671 15.1376C35.4372 20.1835 35.652 26.529 35.8114 34.1743C35.9709 41.7431 36.0506 50.5734 36.0506 60.6651C36.0506 73.2798 35.9753 84.0214 35.8247 92.8899C35.6786 101.682 35.4682 108.869 35.1937 114.45C34.9235 120.031 34.5958 124.083 34.2105 126.606C33.8252 129.128 33.3956 130.39 32.9218 130.39C32.6871 130.39 32.4678 129.855 32.2641 128.784C32.0604 127.714 31.8766 126.338 31.7128 124.656C31.5533 122.898 31.4161 120.986 31.3009 118.922C31.1858 116.781 31.0994 114.717 31.0418 112.729H31.0153V175H29.793V3.78441ZM30.9887 65.8257C30.9887 72.4771 31.0263 78.6315 31.1016 84.289C31.1769 89.87 31.2921 94.7248 31.4471 98.8532C31.6065 102.982 31.8036 106.231 32.0383 108.601C32.2774 110.894 32.5586 112.041 32.8819 112.041C33.2185 112.041 33.5086 110.894 33.7521 108.601C34.0001 106.231 34.2039 102.982 34.3633 98.8532C34.5227 94.7248 34.6401 89.87 34.7154 84.289C34.7906 78.6315 34.8283 72.4771 34.8283 65.8257C34.8283 58.8685 34.7906 52.4847 34.7154 46.6743C34.6401 40.8639 34.5227 35.8563 34.3633 31.6514C34.2039 27.4465 34.0001 24.1972 33.7521 21.9037C33.5086 19.5336 33.2185 18.3486 32.8819 18.3486C32.5586 18.3486 32.2774 19.5336 32.0383 21.9037C31.8036 24.1972 31.6065 27.4465 31.4471 31.6514C31.2921 35.8563 31.1769 40.8639 31.1016 46.6743C31.0263 52.4847 30.9887 58.8685 30.9887 65.8257Z" fill="#FF00FF"/>
<path d="M23.6914 3.78613H28.1089V22.1348H24.9137V126.607H23.6914V3.78613Z" fill="#FF00FF"/>
<path d="M20.7858 65.0229C20.7858 58.2187 20.7415 51.9878 20.653 46.3303C20.5644 40.5963 20.4315 35.6651 20.2544 31.5367C20.0773 27.4083 19.858 24.1972 19.5968 21.9037C19.3399 19.5336 19.041 18.3486 18.7 18.3486C18.359 18.3486 18.06 19.5336 17.8032 21.9037C17.5463 24.1972 17.3293 27.4083 17.1522 31.5367C16.975 35.6651 16.8422 40.5963 16.7536 46.3303C16.665 51.9878 16.6207 58.2187 16.6207 65.0229C16.6207 71.9037 16.665 78.2492 16.7536 84.0596C16.8422 89.7936 16.975 94.7248 17.1522 98.8532C17.3293 102.982 17.5463 106.231 17.8032 108.601C18.06 110.894 18.359 112.041 18.7 112.041C19.041 112.041 19.3399 110.894 19.5968 108.601C19.858 106.231 20.0773 102.982 20.2544 98.8532C20.4315 94.7248 20.5644 89.7936 20.653 84.0596C20.7415 78.2492 20.7858 71.9037 20.7858 65.0229ZM22.0081 65.0229C22.0081 75.1147 21.9328 84.2125 21.7823 92.3165C21.6317 100.344 21.4147 107.187 21.1313 112.844C20.8478 118.502 20.5002 122.859 20.0883 125.917C19.6809 128.899 19.2181 130.39 18.7 130.39C18.1818 130.39 17.719 128.899 17.3116 125.917C16.9042 122.859 16.5587 118.502 16.2753 112.844C15.9919 107.187 15.7749 100.344 15.6243 92.3165C15.4737 84.2125 15.3984 75.1147 15.3984 65.0229C15.3984 55.0841 15.4737 46.1009 15.6243 38.0734C15.7749 30.0459 15.9919 23.2034 16.2753 17.5459C16.5587 11.8884 16.9042 7.5688 17.3116 4.58715C17.719 1.52905 18.1818 0 18.7 0C19.2181 0 19.6809 1.52905 20.0883 4.58715C20.5002 7.5688 20.8478 11.8884 21.1313 17.5459C21.4147 23.2034 21.6317 30.0459 21.7823 38.0734C21.9328 46.1009 22.0081 55.0841 22.0081 65.0229Z" fill="#FF00FF"/>
<path d="M7.45703 3.78441H8.67933V20.6422H8.7059C8.78561 17.8135 8.88526 15.1376 9.00483 12.6147C9.12883 10.0917 9.27497 7.91284 9.44326 6.07798C9.61598 4.16667 9.81305 2.67584 10.0345 1.6055C10.2603 0.535162 10.5172 0 10.8051 0C11.1859 0 11.5513 1.26147 11.9011 3.78441C12.251 6.30734 12.561 10.0917 12.8311 15.1376C13.1013 20.1835 13.3161 26.529 13.4755 34.1743C13.6349 41.7431 13.7146 50.5734 13.7146 60.6651C13.7146 73.2798 13.6394 84.0214 13.4888 92.8899C13.3426 101.682 13.1323 108.869 12.8577 114.45C12.5876 120.031 12.2599 124.083 11.8746 126.606C11.4893 129.128 11.0597 130.39 10.5858 130.39C10.3511 130.39 10.1319 129.855 9.92819 128.784C9.72448 127.714 9.54069 126.338 9.37683 124.656C9.2174 122.898 9.08012 120.986 8.96497 118.922C8.84983 116.781 8.76347 114.717 8.7059 112.729H8.67933V175H7.45703V3.78441ZM8.65275 65.8257C8.65275 72.4771 8.6904 78.6315 8.76568 84.289C8.84097 89.87 8.95611 94.7248 9.11112 98.8532C9.27054 102.982 9.46762 106.231 9.70233 108.601C9.94148 110.894 10.2227 112.041 10.546 112.041C10.8826 112.041 11.1726 110.894 11.4162 108.601C11.6642 106.231 11.8679 102.982 12.0274 98.8532C12.1868 94.7248 12.3041 89.87 12.3794 84.289C12.4547 78.6315 12.4924 72.4771 12.4924 65.8257C12.4924 58.8685 12.4547 52.4847 12.3794 46.6743C12.3041 40.8639 12.1868 35.8563 12.0274 31.6514C11.8679 27.4465 11.6642 24.1972 11.4162 21.9037C11.1726 19.5336 10.8826 18.3486 10.546 18.3486C10.2227 18.3486 9.94148 19.5336 9.70233 21.9037C9.46762 24.1972 9.27054 27.4465 9.11112 31.6514C8.95611 35.8563 8.84097 40.8639 8.76568 46.6743C8.6904 52.4847 8.65275 58.8685 8.65275 65.8257Z" fill="#FF00FF"/>
<path d="M4.54375 22.1348H1.22229V126.607H0V3.78613H5.77269V126.607H4.54375V22.1348Z" fill="#FF00FF"/>
</svg>
