<svg width="464" height="167" viewBox="0 0 464 167" fill="none" xmlns="http://www.w3.org/2000/svg">
<path d="M384.81 51.9833C384.974 42.3894 385.984 34.3129 387.84 27.7538C389.696 21.0968 392.207 15.7125 395.374 11.6008C398.54 7.48912 402.28 4.55221 406.593 2.79006C410.961 0.930019 415.71 0 420.842 0C425.101 0 429.223 0.783178 433.208 2.34953C437.248 3.91588 440.824 6.46121 443.936 9.9855C447.048 13.4119 449.532 17.9152 451.388 23.4953C453.299 28.9775 454.254 35.6835 454.254 43.6131V135.098C454.254 137.643 454.636 139.846 455.401 141.706C456.165 143.468 457.393 144.349 459.086 144.349C459.85 144.349 460.642 144.251 461.461 144.055C462.28 143.762 463.126 143.468 463.999 143.174V161.824C462.744 162.411 461.488 162.95 460.232 163.439C459.031 163.929 457.584 164.173 455.892 164.173C453.272 164.173 451.006 163.782 449.095 162.999C447.239 162.215 445.656 160.943 444.345 159.181C443.09 157.321 442.107 154.971 441.397 152.132C440.687 149.195 440.223 145.622 440.005 141.412C438.149 145.034 436.183 148.412 434.109 151.545C432.034 154.579 429.714 157.272 427.148 159.621C424.582 161.873 421.716 163.635 418.549 164.908C415.383 166.278 411.807 166.963 407.822 166.963C404.437 166.963 401.134 165.984 397.913 164.026C394.746 162.069 391.88 159.181 389.314 155.363C386.803 151.545 384.783 146.846 383.254 141.265C381.725 135.587 380.961 129.028 380.961 121.588C380.961 113.463 381.725 106.463 383.254 100.589C384.783 94.6175 386.775 89.6737 389.232 85.7578C391.689 81.744 394.5 78.6603 397.667 76.5065C400.833 74.3528 404.054 72.9333 407.33 72.248L431.98 66.8147C434.327 66.3252 436.156 64.7099 437.466 61.9688C438.831 59.1298 439.514 54.6265 439.514 48.459C439.514 38.963 437.767 32.1592 434.273 28.0475C430.833 23.8379 425.865 21.7331 419.368 21.7331C412.708 21.7331 407.74 24.2785 404.464 29.3691C401.188 34.3619 399.332 41.8999 398.895 51.9833H384.81ZM439.186 82.0867C437.985 83.653 436.484 84.9746 434.682 86.0515C432.935 87.0305 430.997 87.8626 428.868 88.5479C426.739 89.2331 424.473 89.8695 422.071 90.4569C419.669 90.9463 417.266 91.4848 414.864 92.0722C412.134 92.7574 409.623 93.7364 407.33 95.0091C405.037 96.2817 403.044 97.946 401.352 100.002C399.66 102.058 398.349 104.554 397.421 107.491C396.493 110.33 396.029 113.707 396.029 117.623C396.029 122.127 396.411 126.091 397.176 129.518C397.994 132.944 399.086 135.832 400.451 138.182C401.871 140.531 403.563 142.293 405.529 143.468C407.494 144.643 409.65 145.23 411.998 145.23C413.472 145.23 415.164 144.937 417.075 144.349C418.986 143.664 420.951 142.685 422.971 141.412C424.991 140.14 426.957 138.524 428.868 136.566C430.833 134.511 432.58 132.063 434.109 129.224C435.637 126.385 436.866 123.154 437.794 119.532C438.722 115.91 439.186 111.847 439.186 107.344V82.0867Z" fill="#9900FF"/>
<path d="M291.617 4.84766H306.685V68.2849H347.631V4.84766H362.781V162.119H347.631V91.7802H306.685V162.119H291.617V4.84766Z" fill="#9900FF"/>
<path d="M193.676 4.84766H208.744V125.408H209.071L252.147 4.84766H269.426V162.119H254.276V41.559H253.948L210.955 162.119H193.676V4.84766Z" fill="#9900FF"/>
<path d="M156.414 28.3429H122.838L122.183 66.0822C121.855 85.1722 121.036 101.129 119.726 113.954C118.416 126.681 116.614 136.911 114.321 144.645C112.083 152.378 109.353 157.861 106.132 161.091C102.911 164.322 99.2259 165.937 95.0767 165.937C93.5481 165.937 92.2105 165.497 91.064 164.616C89.9722 163.832 89.1259 163 88.5254 162.119V138.33C90.6546 139.799 92.5381 140.533 94.1759 140.533C95.3224 140.533 96.4143 140.19 97.4516 139.505C98.5435 138.82 99.5535 137.498 100.482 135.54C101.464 133.582 102.365 130.841 103.184 127.317C104.003 123.695 104.713 118.996 105.313 113.22C105.968 107.444 106.487 100.444 106.869 92.2208C107.306 83.9974 107.606 74.2077 107.77 62.8516L108.507 4.84766H171.482V162.119H156.414V28.3429Z" fill="#9900FF"/>
<path d="M3.84892 51.9833C4.0127 42.3894 5.0227 34.3129 6.87892 27.7538C8.73514 21.0968 11.2465 15.7125 14.413 11.6008C17.5795 7.48912 21.3192 4.55221 25.6322 2.79006C29.9997 0.930019 34.7495 0 39.8814 0C44.1397 0 48.2616 0.783178 52.247 2.34953C56.287 3.91588 59.863 6.46121 62.9749 9.9855C66.0868 13.4119 68.5708 17.9152 70.427 23.4953C72.3379 28.9775 73.2933 35.6835 73.2933 43.6131V135.098C73.2933 137.643 73.6754 139.846 74.4397 141.706C75.2041 143.468 76.4324 144.349 78.1249 144.349C78.8892 144.349 79.6808 144.251 80.4997 144.055C81.3187 143.762 82.1649 143.468 83.0384 143.174V161.824C81.7827 162.411 80.527 162.95 79.2714 163.439C78.0703 163.929 76.6235 164.173 74.9311 164.173C72.3106 164.173 70.0449 163.782 68.1341 162.999C66.2779 162.215 64.6946 160.943 63.3843 159.181C62.1287 157.321 61.146 154.971 60.4362 152.132C59.7265 149.195 59.2624 145.622 59.0441 141.412C57.1878 145.034 55.2224 148.412 53.1479 151.545C51.0733 154.579 48.753 157.272 46.187 159.621C43.6211 161.873 40.7549 163.635 37.5884 164.908C34.4219 166.278 30.8459 166.963 26.8605 166.963C23.4757 166.963 20.1727 165.984 16.9516 164.026C13.7851 162.069 10.9189 159.181 8.35297 155.363C5.84162 151.545 3.82162 146.846 2.29297 141.265C0.764324 135.587 0 129.028 0 121.588C0 113.463 0.764324 106.463 2.29297 100.589C3.82162 94.6175 5.81432 89.6737 8.27108 85.7578C10.7278 81.744 13.5395 78.6603 16.7059 76.5065C19.8724 74.3528 23.0935 72.9333 26.3692 72.248L51.0187 66.8147C53.3662 66.3252 55.1951 64.7099 56.5054 61.9688C57.8703 59.1298 58.5527 54.6265 58.5527 48.459C58.5527 38.963 56.8057 32.1592 53.3116 28.0475C49.8722 23.8379 44.9041 21.7331 38.4073 21.7331C31.7468 21.7331 26.7787 24.2785 23.503 29.3691C20.2273 34.3619 18.3711 41.8999 17.9343 51.9833H3.84892ZM58.2251 82.0867C57.0241 83.653 55.5227 84.9746 53.7211 86.0515C51.9741 87.0305 50.036 87.8626 47.9068 88.5479C45.7776 89.2331 43.5119 89.8695 41.1097 90.4569C38.7076 90.9463 36.3054 91.4848 33.9032 92.0722C31.1735 92.7574 28.6622 93.7364 26.3692 95.0091C24.0762 96.2817 22.0835 97.946 20.3911 100.002C18.6987 102.058 17.3884 104.554 16.4603 107.491C15.5322 110.33 15.0681 113.707 15.0681 117.623C15.0681 122.127 15.4503 126.091 16.2146 129.518C17.0335 132.944 18.1254 135.832 19.4903 138.182C20.9097 140.531 22.6022 142.293 24.5676 143.468C26.533 144.643 28.6895 145.23 31.037 145.23C32.5111 145.23 34.2035 144.937 36.1143 144.349C38.0251 143.664 39.9905 142.685 42.0105 141.412C44.0305 140.14 45.996 138.524 47.9068 136.566C49.8722 134.511 51.6192 132.063 53.1479 129.224C54.6765 126.385 55.9049 123.154 56.833 119.532C57.7611 115.91 58.2251 111.847 58.2251 107.344V82.0867Z" fill="#9900FF"/>
</svg>
