<svg width="126" height="175" viewBox="0 0 126 175" fill="none" xmlns="http://www.w3.org/2000/svg">
<path d="M125.85 87.3853C125.758 92.737 125.557 97.974 125.248 103.096C124.938 108.219 124.532 112.806 124.029 116.858C123.527 120.91 122.932 124.159 122.246 126.606C121.568 129.128 120.814 130.39 119.985 130.39C119.081 130.39 118.243 129.052 117.473 126.376C116.711 123.624 116.05 119.534 115.489 114.106C114.936 108.601 114.501 101.72 114.182 93.4633C113.864 85.2064 113.705 75.4969 113.705 64.3349C113.705 56.8425 113.793 50.0765 113.969 44.0367C114.153 37.9205 114.396 32.4924 114.697 27.7523C115.007 22.9358 115.363 18.8073 115.765 15.367C116.167 11.8501 116.59 8.98318 117.033 6.76606C117.486 4.47248 117.946 2.79052 118.415 1.72019C118.884 0.573397 119.336 0 119.771 0C120.693 0 121.534 1.26147 122.296 3.78441C123.058 6.30734 123.711 10.1682 124.255 15.367C124.808 20.4893 125.235 26.9495 125.536 34.7477C125.846 42.4694 126.001 51.5673 126.001 62.0413V72.5917H116.167C116.175 78.555 116.267 83.9832 116.443 88.8761C116.619 93.6927 116.87 97.8211 117.197 101.261C117.523 104.702 117.917 107.378 118.377 109.289C118.846 111.124 119.374 112.041 119.96 112.041C120.554 112.041 121.057 111.277 121.467 109.748C121.877 108.219 122.221 106.269 122.497 103.899C122.773 101.529 122.995 98.8914 123.163 95.9862C123.338 93.081 123.485 90.2141 123.602 87.3853H125.85ZM123.678 55.7339C123.661 49.7706 123.56 44.4572 123.376 39.7936C123.2 35.13 122.949 31.2309 122.623 28.0963C122.304 24.8853 121.919 22.4771 121.467 20.8716C121.015 19.1896 120.512 18.3486 119.96 18.3486C119.432 18.3486 118.947 19.3043 118.503 21.2156C118.059 23.0505 117.67 25.6498 117.335 29.0138C117 32.3012 116.732 36.2385 116.531 40.8257C116.33 45.3364 116.209 50.3058 116.167 55.7339H123.678Z" fill="#9900FF"/>
<path d="M99.373 3.78613H101.684V97.9375H101.734L108.341 3.78613H110.991V126.607H108.667V32.4558H108.617L102.023 126.607H99.373V3.78613Z" fill="#9900FF"/>
<path d="M85.0547 3.78613H87.3657V53.3274H93.6456V3.78613H95.9692V126.607H93.6456V71.676H87.3657V126.607H85.0547V3.78613Z" fill="#9900FF"/>
<path d="M70.7114 40.5963C70.7365 33.104 70.8914 26.7966 71.1761 21.6743C71.4608 16.4755 71.846 12.2706 72.3316 9.05963C72.8173 5.84862 73.3908 3.55504 74.0523 2.1789C74.7222 0.726298 75.4506 0 76.2377 0C76.8908 0 77.523 0.611622 78.1342 1.83486C78.7539 3.05811 79.3023 5.04587 79.7796 7.79817C80.2569 10.474 80.6378 13.9908 80.9225 18.3486C81.2156 22.63 81.3621 27.867 81.3621 34.0596V105.505C81.3621 107.492 81.4207 109.213 81.538 110.665C81.6552 112.041 81.8436 112.729 82.1031 112.729C82.2204 112.729 82.3418 112.653 82.4674 112.5C82.593 112.271 82.7228 112.041 82.8567 111.812V126.376C82.6642 126.835 82.4716 127.255 82.279 127.638C82.0948 128.02 81.8729 128.211 81.6133 128.211C81.2114 128.211 80.8639 127.905 80.5709 127.294C80.2862 126.682 80.0433 125.688 79.8424 124.312C79.6498 122.859 79.4991 121.024 79.3902 118.807C79.2814 116.514 79.2102 113.723 79.1767 110.436C78.892 113.265 78.5906 115.902 78.2724 118.349C77.9542 120.719 77.5984 122.821 77.2048 124.656C76.8113 126.414 76.3717 127.791 75.886 128.784C75.4004 129.855 74.852 130.39 74.2407 130.39C73.7216 130.39 73.215 129.625 72.721 128.096C72.2353 126.567 71.7957 124.312 71.4022 121.33C71.017 118.349 70.7072 114.679 70.4728 110.321C70.2383 105.887 70.1211 100.765 70.1211 94.9541C70.1211 88.6086 70.2383 83.1422 70.4728 78.555C70.7072 73.8914 71.0128 70.0306 71.3896 66.9725C71.7664 63.8379 72.1976 61.4297 72.6833 59.7477C73.1689 58.0657 73.663 56.9572 74.1654 56.422L77.9459 52.1789C78.3059 51.7966 78.5864 50.5352 78.7874 48.3945C78.9967 46.1774 79.1014 42.6606 79.1014 37.844C79.1014 30.4281 78.8334 25.1147 78.2975 21.9037C77.77 18.6162 77.0081 16.9725 76.0116 16.9725C74.9901 16.9725 74.2282 18.9602 73.7258 22.9358C73.2234 26.8349 72.9387 32.7217 72.8717 40.5963H70.7114ZM79.0511 64.1055C78.8669 65.3287 78.6366 66.3609 78.3603 67.2018C78.0924 67.9664 77.7951 68.6162 77.4686 69.1514C77.142 69.6865 76.7945 70.1835 76.4261 70.6422C76.0577 71.0245 75.6893 71.445 75.3209 71.9037C74.9022 72.4388 74.517 73.2034 74.1654 74.1973C73.8137 75.1911 73.5081 76.4908 73.2485 78.0963C72.9889 79.7018 72.788 81.6514 72.6456 83.945C72.5033 86.1621 72.4321 88.7997 72.4321 91.8578C72.4321 95.3746 72.4907 98.4709 72.6079 101.147C72.7335 103.823 72.901 106.078 73.1103 107.913C73.328 109.748 73.5876 111.124 73.889 112.041C74.1905 112.959 74.5212 113.417 74.8813 113.417C75.1073 113.417 75.3669 113.188 75.66 112.729C75.953 112.194 76.2545 111.43 76.5643 110.436C76.8741 109.442 77.1755 108.18 77.4686 106.651C77.77 105.046 78.038 103.135 78.2724 100.917C78.5069 98.7003 78.6953 96.1774 78.8376 93.3486C78.9799 90.5199 79.0511 87.3471 79.0511 83.8303V64.1055Z" fill="#9900FF"/>
<path d="M56.6445 3.78613H62.3718C64.0129 3.78613 65.2396 6.57665 66.0518 12.1577C66.8724 17.7387 67.2827 25.8427 67.2827 36.4696C67.2827 42.1271 67.132 46.9054 66.8305 50.8045C66.5291 54.7036 66.1314 58.1439 65.6374 61.1256C66.3491 63.5721 66.9143 67.0889 67.3329 71.676C67.7516 76.2632 67.9609 82.1883 67.9609 89.4513C67.9609 95.1852 67.8562 100.346 67.6469 104.933C67.4376 109.52 67.1194 113.419 66.6924 116.63C66.2653 119.841 65.7211 122.326 65.0596 124.084C64.4065 125.766 63.632 126.607 62.736 126.607H56.6445V3.78613ZM58.9555 109.749H62.4723C63.0835 109.749 63.5901 109.329 63.992 108.488C64.4023 107.571 64.7289 106.271 64.9717 104.589C65.2145 102.907 65.3862 100.881 65.4866 98.5109C65.5871 96.1409 65.6374 93.465 65.6374 90.4834C65.6374 87.5017 65.5871 84.8259 65.4866 82.4559C65.3862 80.0094 65.2145 77.9834 64.9717 76.3779C64.7289 74.6959 64.4023 73.4344 63.992 72.5935C63.5901 71.676 63.0835 71.2173 62.4723 71.2173H58.9555V109.749ZM58.9555 55.7357H62.4472C63.2259 55.7357 63.8413 54.3213 64.2934 51.4926C64.7456 48.6638 64.9717 44.2678 64.9717 38.3045C64.9717 34.9406 64.9089 32.15 64.7833 29.9329C64.6577 27.6393 64.4902 25.8045 64.2809 24.4283C64.0716 23.0522 63.8329 22.0965 63.565 21.5614C63.3054 20.9497 63.0375 20.6439 62.7612 20.6439H58.9555V55.7357Z" fill="#9900FF"/>
<path d="M51.7212 65.0229C51.7212 58.2187 51.6374 51.9878 51.47 46.3303C51.3025 40.5963 51.0513 35.6651 50.7164 31.5367C50.3814 27.4083 49.967 24.1972 49.473 21.9037C48.9873 19.5336 48.4221 18.3486 47.7774 18.3486C47.1326 18.3486 46.5675 19.5336 46.0818 21.9037C45.5962 24.1972 45.1859 27.4083 44.8509 31.5367C44.516 35.6651 44.2648 40.5963 44.0974 46.3303C43.9299 51.9878 43.8462 58.2187 43.8462 65.0229C43.8462 71.9037 43.9299 78.2492 44.0974 84.0596C44.2648 89.7936 44.516 94.7248 44.8509 98.8532C45.1859 102.982 45.5962 106.231 46.0818 108.601C46.5675 110.894 47.1326 112.041 47.7774 112.041C48.4221 112.041 48.9873 110.894 49.473 108.601C49.967 106.231 50.3814 102.982 50.7164 98.8532C51.0513 94.7248 51.3025 89.7936 51.47 84.0596C51.6374 78.2492 51.7212 71.9037 51.7212 65.0229ZM54.0322 65.0229C54.0322 75.1147 53.8898 84.2125 53.6051 92.3165C53.3204 100.344 52.9102 107.187 52.3743 112.844C51.8384 118.502 51.1811 122.859 50.4024 125.917C49.632 128.899 48.757 130.39 47.7774 130.39C46.7977 130.39 45.9227 128.899 45.1524 125.917C44.382 122.859 43.7289 118.502 43.1931 112.844C42.6572 107.187 42.2469 100.344 41.9622 92.3165C41.6775 84.2125 41.5352 75.1147 41.5352 65.0229C41.5352 55.0841 41.6775 46.1009 41.9622 38.0734C42.2469 30.0459 42.6572 23.2034 43.1931 17.5459C43.7289 11.8884 44.382 7.5688 45.1524 4.58715C45.9227 1.52905 46.7977 0 47.7774 0C48.757 0 49.632 1.52905 50.4024 4.58715C51.1811 7.5688 51.8384 11.8884 52.3743 17.5459C52.9102 23.2034 53.3204 30.0459 53.6051 38.0734C53.8898 46.1009 54.0322 55.0841 54.0322 65.0229Z" fill="#9900FF"/>
<path d="M40.0405 83.3716C40.007 86.3532 39.94 89.6024 39.8395 93.1193C39.7474 96.6361 39.6092 100.153 39.425 103.67C39.2408 107.11 39.0022 110.436 38.7091 113.647C38.4244 116.858 38.0728 119.725 37.6541 122.248C37.2438 124.694 36.7582 126.644 36.1971 128.096C35.6361 129.625 34.9956 130.39 34.2755 130.39C33.882 130.39 33.4675 129.931 33.0321 129.014C32.5967 128.173 32.1696 126.72 31.751 124.656C31.3407 122.592 30.9472 119.954 30.5704 116.743C30.2019 113.456 29.8754 109.404 29.5907 104.587C29.3144 99.7706 29.0925 94.1896 28.925 87.844C28.7576 81.422 28.6738 74.0826 28.6738 65.8257C28.6738 55.6575 28.8329 46.5214 29.1511 38.4174C29.4693 30.237 29.8921 23.318 30.4196 17.6606C30.9555 12.0031 31.5751 7.64525 32.2785 4.58715C32.9902 1.52905 33.7354 0 34.5141 0C35.2175 0 35.8371 0.688073 36.373 2.06422C36.9172 3.44037 37.3903 5.27522 37.7922 7.5688C38.1942 9.86238 38.5333 12.5382 38.8096 15.5963C39.0859 18.578 39.3078 21.7508 39.4753 25.1147C39.6511 28.4021 39.7809 31.7661 39.8646 35.2064C39.9567 38.6468 40.0153 41.9342 40.0405 45.0688H37.8802C37.7629 36.7355 37.4448 30.1988 36.9256 25.4587C36.4149 20.7186 35.6948 18.3486 34.7653 18.3486C34.129 18.3486 33.5722 19.5336 33.0949 21.9037C32.626 24.2737 32.2324 27.5994 31.9143 31.8807C31.6044 36.0856 31.37 41.2079 31.2109 47.2477C31.0602 53.211 30.9848 59.7859 30.9848 66.9725C30.9848 75.0765 31.0686 82.0719 31.236 87.9587C31.4035 93.7691 31.6421 98.5856 31.9519 102.408C32.2617 106.154 32.6385 108.945 33.0823 110.78C33.5345 112.538 34.0452 113.417 34.6146 113.417C35.0165 113.417 35.3975 112.768 35.7576 111.468C36.1176 110.092 36.44 108.142 36.7247 105.619C37.0094 103.02 37.2522 99.8471 37.4531 96.1009C37.6541 92.3547 37.7964 88.1116 37.8802 83.3716H40.0405Z" fill="#9900FF"/>
<path d="M14.4434 3.78613H16.7544V97.9375H16.8046L23.4111 3.78613H26.0612V126.607H23.7376V32.4558H23.6874L17.0935 126.607H14.4434V3.78613Z" fill="#9900FF"/>
<path d="M0 3.78441H2.311V20.6422H2.36124C2.51196 17.8135 2.70036 15.1376 2.92643 12.6147C3.16088 10.0917 3.4372 7.91284 3.75538 6.07798C4.08194 4.16667 4.45454 2.67584 4.8732 1.6055C5.30024 0.535162 5.78588 0 6.33014 0C7.05024 0 7.74103 1.26147 8.40251 3.78441C9.06399 6.30734 9.65012 10.0917 10.1609 15.1376C10.6716 20.1835 11.0777 26.529 11.3792 34.1743C11.6806 41.7431 11.8313 50.5734 11.8313 60.6651C11.8313 73.2798 11.689 84.0214 11.4043 92.8899C11.128 101.682 10.7303 108.869 10.2111 114.45C9.70036 120.031 9.08074 124.083 8.35227 126.606C7.6238 129.128 6.8116 130.39 5.91567 130.39C5.47189 130.39 5.05741 129.855 4.67225 128.784C4.28708 127.714 3.93959 126.338 3.62978 124.656C3.32835 122.898 3.06878 120.986 2.85108 118.922C2.63337 116.781 2.47009 114.717 2.36124 112.729H2.311V175H0V3.78441ZM2.26077 65.8257C2.26077 72.4771 2.33194 78.6315 2.47428 84.289C2.61663 89.87 2.83433 94.7248 3.12739 98.8532C3.42883 102.982 3.80143 106.231 4.24521 108.601C4.69737 110.894 5.22907 112.041 5.84031 112.041C6.47667 112.041 7.02512 110.894 7.48564 108.601C7.95454 106.231 8.33971 102.982 8.64115 98.8532C8.94258 94.7248 9.16447 89.87 9.30682 84.289C9.44916 78.6315 9.52033 72.4771 9.52033 65.8257C9.52033 58.8685 9.44916 52.4847 9.30682 46.6743C9.16447 40.8639 8.94258 35.8563 8.64115 31.6514C8.33971 27.4465 7.95454 24.1972 7.48564 21.9037C7.02512 19.5336 6.47667 18.3486 5.84031 18.3486C5.22907 18.3486 4.69737 19.5336 4.24521 21.9037C3.80143 24.1972 3.42883 27.4465 3.12739 31.6514C2.83433 35.8563 2.61663 40.8639 2.47428 46.6743C2.33194 52.4847 2.26077 58.8685 2.26077 65.8257Z" fill="#9900FF"/>
</svg>
