<svg width="126" height="175" viewBox="0 0 126 175" fill="none" xmlns="http://www.w3.org/2000/svg">
<path d="M125.728 117.282C125.561 124.465 125.197 131.494 124.636 138.369C124.075 145.243 123.339 151.4 122.43 156.838C121.52 162.276 120.443 166.637 119.2 169.921C117.972 173.307 116.607 175 115.106 175C113.469 175 111.952 173.204 110.557 169.613C109.178 165.919 107.98 160.43 106.964 153.144C105.963 145.756 105.175 136.522 104.599 125.44C104.022 114.358 103.734 101.327 103.734 86.3456C103.734 76.2899 103.894 67.209 104.212 59.1029C104.546 50.8942 104.985 43.6089 105.531 37.2471C106.092 30.7828 106.737 25.2419 107.464 20.6244C108.192 15.9044 108.958 12.0566 109.761 9.08092C110.58 6.00264 111.414 3.74524 112.263 2.30871C113.112 0.769573 113.931 0 114.72 0C116.387 0 117.911 1.69305 119.291 5.07916C120.671 8.46526 121.854 13.647 122.839 20.6244C123.84 27.4993 124.613 36.1697 125.159 46.6359C125.72 56.9994 126 69.2099 126 83.2674V97.4274H108.192C108.207 105.431 108.374 112.716 108.693 119.283C109.011 125.748 109.466 131.288 110.057 135.906C110.648 140.523 111.361 144.115 112.195 146.68C113.044 149.142 113.999 150.374 115.061 150.374C116.137 150.374 117.047 149.348 117.79 147.296C118.533 145.243 119.155 142.627 119.655 139.446C120.155 136.265 120.557 132.725 120.86 128.826C121.179 124.927 121.444 121.079 121.656 117.282H125.728ZM121.793 74.8021C121.763 66.7986 121.581 59.6673 121.247 53.4081C120.929 47.1489 120.474 41.9159 119.882 37.7089C119.306 33.3993 118.609 30.1671 117.79 28.0123C116.971 25.7549 116.061 24.6262 115.061 24.6262C114.106 24.6262 113.226 25.9088 112.422 28.4741C111.619 30.9367 110.914 34.4254 110.307 38.9402C109.701 43.3524 109.216 48.6368 108.852 54.7933C108.488 60.8473 108.268 67.5169 108.192 74.8021H121.793Z" fill="#9900FF"/>
<path d="M77.7832 5.08203H81.968V131.445H82.059L94.0222 5.08203H98.8211V169.924H94.6135V43.5605H94.5226L82.5821 169.924H77.7832V5.08203Z" fill="#9900FF"/>
<path d="M51.8555 5.08203H56.0403V71.5728H67.4122V5.08203H71.6197V169.924H67.4122V96.199H56.0403V169.924H51.8555V5.08203Z" fill="#9900FF"/>
<path d="M46.6689 117.282C46.5021 124.465 46.1382 131.494 45.5772 138.369C45.0162 145.243 44.2808 151.4 43.3711 156.838C42.4613 162.276 41.3848 166.637 40.1415 169.921C38.9133 173.307 37.5487 175 36.0476 175C34.4101 175 32.8938 173.204 31.4989 169.613C30.1191 165.919 28.9213 160.43 27.9054 153.144C26.9047 145.756 26.1162 136.522 25.54 125.44C24.9639 114.358 24.6758 101.327 24.6758 86.3456C24.6758 76.2899 24.835 67.209 25.1534 59.1029C25.487 50.8942 25.9267 43.6089 26.4725 37.2471C27.0335 30.7828 27.6779 25.2419 28.4057 20.6244C29.1335 15.9044 29.8992 12.0566 30.7029 9.08092C31.5216 6.00264 32.3556 3.74524 33.2047 2.30871C34.0538 0.769573 34.8725 0 35.661 0C37.3289 0 38.8527 1.69305 40.2325 5.07916C41.6123 8.46526 42.7949 13.647 43.7805 20.6244C44.7812 27.4993 45.5545 36.1697 46.1003 46.6359C46.6613 56.9994 46.9419 69.2099 46.9419 83.2674V97.4274H29.1335C29.1487 105.431 29.3155 112.716 29.6339 119.283C29.9523 125.748 30.4072 131.288 30.9985 135.906C31.5899 140.523 32.3025 144.115 33.1364 146.68C33.9855 149.142 34.9408 150.374 36.0021 150.374C37.0787 150.374 37.9884 149.348 38.7314 147.296C39.4743 145.243 40.096 142.627 40.5964 139.446C41.0967 136.265 41.4985 132.725 41.8018 128.826C42.1202 124.927 42.3855 121.079 42.5978 117.282H46.6689ZM42.7343 74.8021C42.7039 66.7986 42.522 59.6673 42.1884 53.4081C41.87 47.1489 41.4151 41.9159 40.8238 37.7089C40.2476 33.3993 39.5502 30.1671 38.7314 28.0123C37.9126 25.7549 37.0029 24.6262 36.0021 24.6262C35.0469 24.6262 34.1675 25.9088 33.3639 28.4741C32.5603 30.9367 31.8552 34.4254 31.2487 38.9402C30.6422 43.3524 30.157 48.6368 29.7931 54.7933C29.4292 60.8473 29.2094 67.5169 29.1335 74.8021H42.7343Z" fill="#9900FF"/>
<path d="M15.5567 29.7082H4.18484V169.924H0V5.08203H19.7643V169.924H15.5567V29.7082Z" fill="#9900FF"/>
</svg>
