<svg width="126" height="175" viewBox="0 0 126 175" fill="none" xmlns="http://www.w3.org/2000/svg">
<path d="M122.689 52.2165H115.311L115.167 75.6777C115.095 87.5453 114.915 97.4653 114.628 105.438C114.34 113.35 113.944 119.709 113.44 124.517C112.948 129.325 112.348 132.733 111.64 134.742C110.933 136.75 110.123 137.754 109.211 137.754C108.875 137.754 108.581 137.48 108.329 136.932C108.089 136.446 107.903 135.928 107.771 135.381V120.592C108.239 121.505 108.653 121.961 109.013 121.961C109.265 121.961 109.505 121.748 109.733 121.322C109.973 120.896 110.195 120.074 110.399 118.857C110.615 117.64 110.813 115.936 110.993 113.745C111.173 111.493 111.328 108.572 111.46 104.981C111.604 101.391 111.718 97.0393 111.802 91.9271C111.898 86.815 111.964 80.729 112 73.6694L112.162 37.6104H126V135.381H122.689V52.2165Z" fill="#9900FF"/>
<path d="M102.66 86.3593C102.66 80.9429 102.54 75.9828 102.3 71.4793C102.06 66.9148 101.701 62.9894 101.221 59.703C100.741 56.4166 100.147 53.8605 99.4392 52.0348C98.7434 50.1481 97.9336 49.2048 97.0099 49.2048C96.0861 49.2048 95.2764 50.1481 94.5805 52.0348C93.8847 53.8605 93.2969 56.4166 92.8171 59.703C92.3372 62.9894 91.9773 66.9148 91.7374 71.4793C91.4974 75.9828 91.3775 80.9429 91.3775 86.3593C91.3775 91.8366 91.4974 96.888 91.7374 101.513C91.9773 106.078 92.3372 110.003 92.8171 113.289C93.2969 116.576 93.8847 119.162 94.5805 121.049C95.2764 122.875 96.0861 123.788 97.0099 123.788C97.9336 123.788 98.7434 122.875 99.4392 121.049C100.147 119.162 100.741 116.576 101.221 113.289C101.701 110.003 102.06 106.078 102.3 101.513C102.54 96.888 102.66 91.8366 102.66 86.3593ZM105.971 86.3593C105.971 94.3927 105.767 101.635 105.359 108.086C104.952 114.476 104.364 119.923 103.596 124.427C102.828 128.93 101.886 132.399 100.771 134.834C99.6671 137.207 98.4134 138.394 97.0099 138.394C95.6063 138.394 94.3526 137.207 93.2489 134.834C92.1452 132.399 91.2095 128.93 90.4417 124.427C89.6739 119.923 89.0861 114.476 88.6782 108.086C88.2703 101.635 88.0664 94.3927 88.0664 86.3593C88.0664 78.4476 88.2703 71.2967 88.6782 64.9065C89.0861 58.5163 89.6739 53.0694 90.4417 48.5658C91.2095 44.0622 92.1452 40.6237 93.2489 38.2502C94.3526 35.8158 95.6063 34.5986 97.0099 34.5986C98.4134 34.5986 99.6671 35.8158 100.771 38.2502C101.886 40.6237 102.828 44.0622 103.596 48.5658C104.364 53.0694 104.952 58.5163 105.359 64.9065C105.767 71.2967 105.971 78.4476 105.971 86.3593Z" fill="#9900FF"/>
<path d="M83.6581 0C83.6341 0.912887 83.5982 2.03878 83.5502 3.37768C83.5142 4.65573 83.4362 6.02506 83.3162 7.48567C83.1963 8.94629 83.0283 10.4373 82.8124 11.9588C82.6084 13.4194 82.3325 14.7888 81.9846 16.0668C81.7927 16.7363 81.6187 17.3144 81.4628 17.8013C81.3068 18.2882 81.1089 18.7142 80.8689 19.0793C80.629 19.4445 80.3231 19.7488 79.9512 19.9922C79.5793 20.2357 79.0814 20.3878 78.4576 20.4487L77.09 20.6312C76.1543 20.753 75.3085 21.7267 74.5527 23.5525C73.8089 25.3174 73.1491 27.8126 72.5733 31.0382C72.0095 34.2028 71.5416 38.037 71.1697 42.5405C70.7978 47.0441 70.5219 52.065 70.3419 57.6032C70.5939 55.1688 70.9058 52.7953 71.2777 50.4827C71.6496 48.1092 72.1114 46.0095 72.6633 44.1837C73.2151 42.2971 73.8629 40.8061 74.6067 39.7106C75.3505 38.5543 76.2143 37.9761 77.198 37.9761C78.3137 37.9761 79.3694 38.9803 80.3651 40.9886C81.3728 42.997 82.2485 46.0095 82.9923 50.0262C83.7481 54.0429 84.3479 59.0334 84.7918 64.9976C85.2357 70.9618 85.4576 77.8997 85.4576 85.8114C85.4576 88.3066 85.4216 91.3496 85.3497 94.9403C85.2777 98.4701 85.1337 102.183 84.9178 106.077C84.7018 109.972 84.3899 113.867 83.982 117.762C83.5862 121.597 83.0523 125.035 82.3805 128.078C81.7207 131.121 80.9109 133.586 79.9512 135.472C79.0035 137.42 77.8638 138.394 76.5322 138.394C75.9803 138.394 75.3925 138.15 74.7687 137.663C74.1569 137.237 73.539 136.416 72.9152 135.199C72.3034 133.981 71.7036 132.277 71.1157 130.086C70.5399 127.895 70.012 125.096 69.5322 121.688C69.2922 119.984 69.0523 118.036 68.8124 115.845C68.5844 113.594 68.3745 110.885 68.1826 107.721C67.9906 104.556 67.8347 100.813 67.7147 96.4922C67.6067 92.1712 67.5527 87.059 67.5527 81.1557C67.5527 77.2607 67.5887 72.8484 67.6607 67.9188C67.7327 62.9892 67.8586 57.9683 68.0386 52.8562C68.2185 47.744 68.4585 42.8144 68.7584 38.0674C69.0583 33.2595 69.4422 29.0602 69.9101 25.4696C70.4139 21.5746 70.9418 18.4099 71.4936 15.9755C72.0454 13.5412 72.6333 11.6241 73.2571 10.2243C73.8809 8.82458 74.5527 7.8204 75.2725 7.21181C75.9923 6.60322 76.7721 6.20763 77.6119 6.02505L78.7815 5.84248C79.1654 5.78162 79.4893 5.69033 79.7533 5.56861C80.0292 5.38603 80.2571 5.11217 80.4371 4.74701C80.617 4.38186 80.761 3.83413 80.8689 3.10382C80.9769 2.37351 81.0669 1.3389 81.1389 0H83.6581ZM70.8638 88.2762C70.8638 90.102 70.8818 92.2625 70.9178 94.7577C70.9658 97.2529 71.0557 99.8698 71.1877 102.609C71.3197 105.286 71.5116 107.964 71.7635 110.642C72.0155 113.32 72.3454 115.724 72.7532 117.854C73.1731 119.923 73.689 121.627 74.3008 122.966C74.9126 124.244 75.6444 124.883 76.4962 124.883C77.4439 124.883 78.2417 124.122 78.8895 122.601C79.5373 121.018 80.0712 119.01 80.491 116.576C80.9109 114.08 81.2288 111.342 81.4448 108.36C81.6727 105.378 81.8347 102.487 81.9306 99.6873C82.0386 96.8269 82.0986 94.2404 82.1106 91.9277C82.1346 89.5542 82.1466 87.7589 82.1466 86.5417C82.1466 82.099 82.0446 77.7476 81.8407 73.4874C81.6487 69.2273 81.3308 65.454 80.8869 62.1676C80.455 58.8812 79.8852 56.2338 79.1774 54.2255C78.4816 52.2171 77.6239 51.213 76.6042 51.213C75.6084 51.213 74.7507 52.2171 74.0309 54.2255C73.3111 56.173 72.7173 58.8508 72.2494 62.2589C71.7815 65.6062 71.4336 69.5316 71.2057 74.0351C70.9778 78.4779 70.8638 83.2249 70.8638 88.2762Z" fill="#9900FF"/>
<path d="M55.3882 52.2165H48.748V37.6104H65.3393V52.2165H58.6992V135.381H55.3882V52.2165Z" fill="#9900FF"/>
<path d="M29.8164 37.6104H33.4514L38.5799 117.214H38.6519L43.7804 37.6104H47.4154L40.0555 139.306C39.6836 144.418 39.3417 148.861 39.0298 152.634C38.7179 156.407 38.412 159.602 38.112 162.219C37.8121 164.897 37.5062 167.058 37.1943 168.701C36.8944 170.344 36.5585 171.622 36.1866 172.535C35.8267 173.509 35.4188 174.148 34.9629 174.452C34.5191 174.817 34.0032 175 33.4154 175C32.9355 175 32.5576 174.878 32.2817 174.635C32.0178 174.452 31.7838 174.209 31.5799 173.904V158.75C31.7958 159.116 32.0778 159.481 32.4257 159.846C32.7736 160.211 33.1395 160.394 33.5233 160.394C34.1352 160.394 34.627 159.633 34.9989 158.111C35.3828 156.651 35.6767 154.551 35.8807 151.813L36.9604 138.028L29.8164 37.6104Z" fill="#9900FF"/>
<path d="M12.4165 77.9603C12.4165 73.335 12.3025 69.2575 12.0746 65.7276C11.8466 62.137 11.5407 59.1244 11.1568 56.6901C10.7729 54.2557 10.329 52.3995 9.82519 51.1214C9.32134 49.8434 8.79349 49.2044 8.24165 49.2044C7.3539 49.2044 6.59812 50.1781 5.97429 52.1256C5.35047 54.0731 4.84062 56.7509 4.44473 60.159C4.04884 63.5063 3.76093 67.4317 3.58098 71.9353C3.40103 76.4389 3.31105 81.2467 3.31105 86.3589C3.31105 89.0976 3.34105 91.9579 3.40103 94.94C3.47301 97.9221 3.58098 100.843 3.72494 103.704C3.8689 106.564 4.06084 109.272 4.30077 111.828C4.5407 114.385 4.84062 116.636 5.20051 118.584C5.56041 120.531 5.98029 122.083 6.46015 123.24C6.95201 124.335 7.52185 124.883 8.16967 124.883C9.54927 124.883 10.599 122.418 11.3188 117.488C12.0506 112.498 12.4165 105.438 12.4165 96.3094V77.9603ZM12.4165 123.605H12.3445C11.9966 126.709 11.6307 129.234 11.2468 131.182C10.8749 133.068 10.479 134.529 10.0591 135.564C9.65124 136.659 9.21937 137.389 8.7635 137.754C8.31962 138.18 7.86375 138.393 7.39589 138.393C6.46015 138.393 5.54842 137.268 4.66067 135.016C3.77292 132.764 2.98115 129.447 2.28535 125.065C1.60154 120.623 1.0497 115.115 0.62982 108.542C0.20994 101.969 0 94.3923 0 85.8111C0 81.6119 0.0599829 77.443 0.179949 73.3046C0.299914 69.1053 0.485861 65.1191 0.737789 61.3458C0.989717 57.5725 1.30763 54.0427 1.69152 50.7563C2.0874 47.4699 2.55527 44.6399 3.09512 42.2664C3.64696 39.8929 4.27678 38.0367 4.98458 36.6978C5.69237 35.2981 6.48415 34.5982 7.3599 34.5982C8.01971 34.5982 8.61354 35.0851 9.14139 36.0588C9.66924 36.9717 10.1311 38.1584 10.527 39.6191C10.9349 41.0797 11.2828 42.662 11.5707 44.3661C11.8706 46.0701 12.1285 47.6829 12.3445 49.2044H12.4165V1.18652H15.7275V49.2044H15.7995C16.0154 47.6829 16.2674 46.0701 16.5553 44.3661C16.8552 42.662 17.2031 41.0797 17.599 39.6191C18.0069 38.1584 18.4687 36.9717 18.9846 36.0588C19.5124 35.0851 20.1123 34.5982 20.7841 34.5982C21.6598 34.5982 22.4516 35.2981 23.1594 36.6978C23.8672 38.0367 24.491 39.8929 25.0308 42.2664C25.5827 44.6399 26.0506 47.4699 26.4345 50.7563C26.8303 54.0427 27.1542 57.5725 27.4062 61.3458C27.6581 65.1191 27.844 69.1053 27.964 73.3046C28.084 77.443 28.144 81.6119 28.144 85.8111C28.144 94.3923 27.934 101.969 27.5141 108.542C27.0943 115.115 26.5364 120.623 25.8406 125.065C25.1568 129.447 24.371 132.764 23.4833 135.016C22.5955 137.268 21.6838 138.393 20.7481 138.393C20.2802 138.393 19.8183 138.18 19.3625 137.754C18.9186 137.389 18.4867 136.659 18.0668 135.564C17.659 134.529 17.2631 133.068 16.8792 131.182C16.4953 129.234 16.1354 126.709 15.7995 123.605H15.7275V173.905H12.4165V123.605ZM19.9023 124.883C20.5621 124.883 21.144 124.335 21.6478 123.24C22.1517 122.083 22.5835 120.531 22.9434 118.584C23.3153 116.636 23.6213 114.385 23.8612 111.828C24.1011 109.272 24.2931 106.564 24.437 103.704C24.581 100.843 24.6829 97.9221 24.7429 94.94C24.8029 91.9579 24.8329 89.0976 24.8329 86.3589C24.8329 81.2467 24.7369 76.4389 24.545 71.9353C24.365 67.4317 24.0771 63.5063 23.6812 60.159C23.2853 56.7509 22.7755 54.0731 22.1517 52.1256C21.5279 50.1781 20.7781 49.2044 19.9023 49.2044C19.3505 49.2044 18.8226 49.8434 18.3188 51.1214C17.8149 52.3995 17.371 54.2557 16.9871 56.6901C16.6033 59.1244 16.2973 62.137 16.0694 65.7276C15.8415 69.2575 15.7275 73.335 15.7275 77.9603V96.3094C15.7275 105.438 16.0874 112.498 16.8072 117.488C17.527 122.418 18.5587 124.883 19.9023 124.883Z" fill="#9900FF"/>
</svg>
