<svg width="126" height="175" viewBox="0 0 126 175" fill="none" xmlns="http://www.w3.org/2000/svg">
<path d="M115.387 54.4855C115.409 44.4298 115.544 35.9645 115.793 29.0897C116.042 22.1123 116.379 16.4688 116.803 12.1592C117.227 7.8496 117.729 4.77133 118.307 2.92436C118.892 0.974785 119.529 0 120.217 0C120.787 0 121.34 0.820876 121.874 2.46262C122.416 4.10437 122.895 6.77221 123.312 10.4661C123.729 14.0575 124.062 18.7775 124.311 24.6262C124.567 30.3723 124.695 37.4011 124.695 45.7124V141.601C124.695 144.269 124.746 146.577 124.849 148.527C124.951 150.374 125.116 151.297 125.343 151.297C125.445 151.297 125.551 151.195 125.661 150.989C125.771 150.682 125.884 150.374 126.001 150.066V169.613C125.833 170.229 125.665 170.793 125.496 171.306C125.335 171.819 125.142 172.076 124.915 172.076C124.563 172.076 124.26 171.665 124.004 170.844C123.755 170.023 123.543 168.69 123.367 166.843C123.199 164.893 123.067 162.43 122.972 159.455C122.877 156.376 122.814 152.631 122.785 148.219C122.536 152.016 122.273 155.556 121.995 158.839C121.717 162.02 121.406 164.842 121.062 167.304C120.718 169.664 120.334 171.511 119.909 172.845C119.485 174.282 119.006 175 118.471 175C118.018 175 117.575 173.974 117.143 171.922C116.719 169.87 116.335 166.843 115.991 162.841C115.654 158.839 115.383 153.914 115.178 148.065C114.974 142.114 114.871 135.239 114.871 127.441C114.871 118.924 114.974 111.588 115.178 105.431C115.383 99.1718 115.65 93.99 115.98 89.8857C116.309 85.6787 116.686 82.4465 117.11 80.1891C117.535 77.9317 117.966 76.4439 118.406 75.7256L121.71 70.0308C122.024 69.5177 122.269 67.8247 122.445 64.9516C122.628 61.976 122.719 57.2559 122.719 50.7916C122.719 40.8385 122.485 33.7071 122.017 29.3975C121.556 24.9853 120.89 22.7792 120.019 22.7792C119.126 22.7792 118.46 25.4471 118.021 30.7828C117.582 36.0158 117.334 43.9167 117.275 54.4855H115.387ZM122.675 86.0378C122.514 87.6796 122.313 89.0648 122.072 90.1935C121.838 91.2196 121.578 92.0918 121.292 92.81C121.007 93.5283 120.703 94.1953 120.381 94.8109C120.059 95.324 119.737 95.8883 119.415 96.504C119.05 97.2222 118.713 98.2483 118.406 99.5822C118.098 100.916 117.831 102.661 117.604 104.815C117.377 106.97 117.202 109.587 117.077 112.665C116.953 115.641 116.891 119.181 116.891 123.285C116.891 128.005 116.942 132.161 117.044 135.752C117.154 139.343 117.301 142.37 117.484 144.833C117.674 147.296 117.901 149.142 118.164 150.374C118.428 151.605 118.717 152.221 119.031 152.221C119.229 152.221 119.456 151.913 119.712 151.297C119.968 150.579 120.231 149.553 120.502 148.219C120.773 146.885 121.036 145.192 121.292 143.14C121.556 140.985 121.79 138.42 121.995 135.444C122.2 132.468 122.364 129.082 122.489 125.286C122.613 121.489 122.675 117.231 122.675 112.511V86.0378Z" fill="#9900FF"/>
<path d="M103.094 5.08105H105.113V84.8084L111.052 5.08105H113.697L108.176 77.8823L113.785 169.923H111.184L106.595 95.1206L105.113 112.513V169.923H103.094V5.08105Z" fill="#9900FF"/>
<path d="M89.9648 5.08105H91.9845V131.444H92.0284L97.8021 5.08105H100.118V169.923H98.0875V43.5595H98.0436L92.2809 169.923H89.9648V5.08105Z" fill="#9900FF"/>
<path d="M81.8531 29.7073H77.8027V5.08105H87.9232V29.7073H83.8728V169.923H81.8531V29.7073Z" fill="#9900FF"/>
<path d="M66.1878 54.4855C66.2097 44.4298 66.3451 35.9645 66.5939 29.0897C66.8427 22.1123 67.1793 16.4688 67.6038 12.1592C68.0282 7.8496 68.5294 4.77133 69.1075 2.92436C69.693 0.974785 70.3296 0 71.0175 0C71.5883 0 72.1407 0.820876 72.6749 2.46262C73.2165 4.10437 73.6958 6.77221 74.1129 10.4661C74.53 14.0575 74.8629 18.7775 75.1118 24.6262C75.3679 30.3723 75.4959 37.4011 75.4959 45.7124V141.601C75.4959 144.269 75.5472 146.577 75.6496 148.527C75.7521 150.374 75.9167 151.297 76.1435 151.297C76.246 151.297 76.3521 151.195 76.4619 150.989C76.5716 150.682 76.6851 150.374 76.8021 150.066V169.613C76.6338 170.229 76.4655 170.793 76.2972 171.306C76.1362 171.819 75.9423 172.076 75.7155 172.076C75.3642 172.076 75.0605 171.665 74.8044 170.844C74.5556 170.023 74.3434 168.69 74.1678 166.843C73.9995 164.893 73.8677 162.43 73.7726 159.455C73.6775 156.376 73.6153 152.631 73.586 148.219C73.3372 152.016 73.0738 155.556 72.7957 158.839C72.5176 162.02 72.2066 164.842 71.8627 167.304C71.5187 169.664 71.1346 171.511 70.7101 172.845C70.2857 174.282 69.8064 175 69.2722 175C68.8185 175 68.3758 173.974 67.944 171.922C67.5196 169.87 67.1354 166.843 66.7915 162.841C66.4549 158.839 66.1841 153.914 65.9792 148.065C65.7743 142.114 65.6719 135.239 65.6719 127.441C65.6719 118.924 65.7743 111.588 65.9792 105.431C66.1841 99.1718 66.4512 93.99 66.7805 89.8857C67.1098 85.6787 67.4867 82.4465 67.9111 80.1891C68.3355 77.9317 68.7673 76.4439 69.2063 75.7256L72.5103 70.0308C72.825 69.5177 73.0701 67.8247 73.2457 64.9516C73.4287 61.976 73.5201 57.2559 73.5201 50.7916C73.5201 40.8385 73.286 33.7071 72.8176 29.3975C72.3566 24.9853 71.6907 22.7792 70.8199 22.7792C69.9271 22.7792 69.2612 25.4471 68.8222 30.7828C68.3831 36.0158 68.1343 43.9167 68.0758 54.4855H66.1878ZM73.4762 86.0378C73.3152 87.6796 73.114 89.0648 72.8725 90.1935C72.6384 91.2196 72.3786 92.0918 72.0932 92.81C71.8078 93.5283 71.5041 94.1953 71.1821 94.8109C70.8601 95.324 70.5382 95.8883 70.2162 96.504C69.8503 97.2222 69.5137 98.2483 69.2063 99.5822C68.899 100.916 68.6319 102.661 68.405 104.815C68.1782 106.97 68.0026 109.587 67.8782 112.665C67.7538 115.641 67.6916 119.181 67.6916 123.285C67.6916 128.005 67.7428 132.161 67.8452 135.752C67.955 139.343 68.1014 142.37 68.2843 144.833C68.4746 147.296 68.7014 149.142 68.9649 150.374C69.2283 151.605 69.5173 152.221 69.832 152.221C70.0296 152.221 70.2564 151.913 70.5126 151.297C70.7687 150.579 71.0321 149.553 71.3029 148.219C71.5736 146.885 71.8371 145.192 72.0932 143.14C72.3566 140.985 72.5908 138.42 72.7957 135.444C73.0006 132.468 73.1652 129.082 73.2896 125.286C73.414 121.489 73.4762 117.231 73.4762 112.511V86.0378Z" fill="#9900FF"/>
<path d="M51.2383 5.08105H54.18L57.2864 140.217H57.3303L60.4806 5.08105H63.2467V169.923H61.3587V37.249H61.3148L58.2084 169.923H56.2765L53.1702 37.249H53.1263V169.923H51.2383V5.08105Z" fill="#9900FF"/>
<path d="M48.7355 117.282C48.655 124.465 48.4793 131.494 48.2086 138.369C47.9378 145.243 47.5829 151.4 47.1439 156.838C46.7048 162.276 46.1852 166.637 45.5852 169.921C44.9924 173.307 44.3338 175 43.6094 175C42.8191 175 42.0873 173.204 41.4141 169.613C40.7482 165.919 40.1701 160.43 39.6798 153.144C39.1968 145.756 38.8163 136.522 38.5382 125.44C38.2601 114.358 38.1211 101.327 38.1211 86.3456C38.1211 76.2899 38.1979 67.209 38.3516 59.1029C38.5126 50.8942 38.7248 43.6089 38.9882 37.2471C39.259 30.7828 39.57 25.2419 39.9213 20.6244C40.2725 15.9044 40.6421 12.0566 41.0299 9.08092C41.4251 6.00264 41.8275 3.74524 42.2373 2.30871C42.6471 0.769573 43.0423 0 43.4228 0C44.2277 0 44.9632 1.69305 45.6291 5.07916C46.295 8.46526 46.8658 13.647 47.3414 20.6244C47.8244 27.4993 48.1976 36.1697 48.461 46.6359C48.7318 56.9994 48.8672 69.2099 48.8672 83.2674V97.4274H40.2725C40.2798 105.431 40.3603 112.716 40.514 119.283C40.6677 125.748 40.8872 131.288 41.1726 135.906C41.458 140.523 41.8019 144.115 42.2044 146.68C42.6142 149.142 43.0752 150.374 43.5874 150.374C44.107 150.374 44.5461 149.348 44.9046 147.296C45.2632 145.243 45.5632 142.627 45.8047 139.446C46.0462 136.265 46.2401 132.725 46.3865 128.826C46.5401 124.927 46.6682 121.079 46.7707 117.282H48.7355ZM46.8365 74.8021C46.8219 66.7986 46.7341 59.6673 46.5731 53.4081C46.4194 47.1489 46.1999 41.9159 45.9145 37.7089C45.6364 33.3993 45.2998 30.1671 44.9046 28.0123C44.5095 25.7549 44.0704 24.6262 43.5874 24.6262C43.1264 24.6262 42.702 25.9088 42.3142 28.4741C41.9263 30.9367 41.586 34.4254 41.2933 38.9402C41.0006 43.3524 40.7665 48.6368 40.5908 54.7933C40.4152 60.8473 40.3091 67.5169 40.2725 74.8021H46.8365Z" fill="#9900FF"/>
<path d="M30.6129 29.7073H26.5625V5.08105H36.6829V29.7073H32.6326V169.923H30.6129V29.7073Z" fill="#9900FF"/>
<path d="M14.9495 54.4855C14.9714 44.4298 15.1068 35.9645 15.3556 29.0897C15.6044 22.1123 15.941 16.4688 16.3655 12.1592C16.7899 7.8496 17.2912 4.77133 17.8693 2.92436C18.4547 0.974785 19.0913 0 19.7792 0C20.35 0 20.9025 0.820876 21.4367 2.46262C21.9782 4.10437 22.4575 6.77221 22.8746 10.4661C23.2917 14.0575 23.6247 18.7775 23.8735 24.6262C24.1296 30.3723 24.2576 37.4011 24.2576 45.7124V141.601C24.2576 144.269 24.3089 146.577 24.4113 148.527C24.5138 150.374 24.6784 151.297 24.9053 151.297C25.0077 151.297 25.1138 151.195 25.2236 150.989C25.3334 150.682 25.4468 150.374 25.5639 150.066V169.613C25.3956 170.229 25.2272 170.793 25.0589 171.306C24.8979 171.819 24.704 172.076 24.4772 172.076C24.1259 172.076 23.8222 171.665 23.5661 170.844C23.3173 170.023 23.1051 168.69 22.9295 166.843C22.7612 164.893 22.6295 162.43 22.5343 159.455C22.4392 156.376 22.377 152.631 22.3477 148.219C22.0989 152.016 21.8355 155.556 21.5574 158.839C21.2793 162.02 20.9683 164.842 20.6244 167.304C20.2805 169.664 19.8963 171.511 19.4719 172.845C19.0474 174.282 18.5681 175 18.0339 175C17.5802 175 17.1375 173.974 16.7057 171.922C16.2813 169.87 15.8971 166.843 15.5532 162.841C15.2166 158.839 14.9458 153.914 14.7409 148.065C14.536 142.114 14.4336 135.239 14.4336 127.441C14.4336 118.924 14.536 111.588 14.7409 105.431C14.9458 99.1718 15.2129 93.99 15.5422 89.8857C15.8715 85.6787 16.2484 82.4465 16.6728 80.1891C17.0972 77.9317 17.529 76.4439 17.9681 75.7256L21.272 70.0308C21.5867 69.5177 21.8318 67.8247 22.0074 64.9516C22.1904 61.976 22.2819 57.2559 22.2819 50.7916C22.2819 40.8385 22.0477 33.7071 21.5794 29.3975C21.1183 24.9853 20.4524 22.7792 19.5816 22.7792C18.6889 22.7792 18.0229 25.4471 17.5839 30.7828C17.1448 36.0158 16.896 43.9167 16.8375 54.4855H14.9495ZM22.238 86.0378C22.077 87.6796 21.8757 89.0648 21.6342 90.1935C21.4001 91.2196 21.1403 92.0918 20.8549 92.81C20.5695 93.5283 20.2658 94.1953 19.9438 94.8109C19.6219 95.324 19.2999 95.8883 18.9779 96.504C18.612 97.2222 18.2754 98.2483 17.9681 99.5822C17.6607 100.916 17.3936 102.661 17.1668 104.815C16.9399 106.97 16.7643 109.587 16.6399 112.665C16.5155 115.641 16.4533 119.181 16.4533 123.285C16.4533 128.005 16.5045 132.161 16.607 135.752C16.7167 139.343 16.8631 142.37 17.046 144.833C17.2363 147.296 17.4631 149.142 17.7266 150.374C17.99 151.605 18.2791 152.221 18.5937 152.221C18.7913 152.221 19.0182 151.913 19.2743 151.297C19.5304 150.579 19.7938 149.553 20.0646 148.219C20.3353 146.885 20.5988 145.192 20.8549 143.14C21.1183 140.985 21.3525 138.42 21.5574 135.444C21.7623 132.468 21.927 129.082 22.0514 125.286C22.1758 121.489 22.238 117.231 22.238 112.511V86.0378Z" fill="#9900FF"/>
<path d="M0 5.08105H2.94173L6.0481 140.217H6.09201L9.24229 5.08105H12.0084V169.923H10.1204V37.249H10.0765L6.97014 169.923H5.03826L1.93188 37.249H1.88797V169.923H0V5.08105Z" fill="#9900FF"/>
</svg>
