<svg width="126" height="175" viewBox="0 0 126 175" fill="none" xmlns="http://www.w3.org/2000/svg">
<path d="M107.959 3.78441H111.483V20.6422H111.56C111.789 17.8135 112.077 15.1376 112.421 12.6147C112.779 10.0917 113.2 7.91284 113.685 6.07798C114.183 4.16667 114.752 2.67584 115.39 1.6055C116.041 0.535162 116.782 0 117.612 0C118.71 0 119.763 1.26147 120.772 3.78441C121.78 6.30734 122.674 10.0917 123.453 15.1376C124.232 20.1835 124.851 26.529 125.311 34.1743C125.77 41.7431 126 50.5734 126 60.6651C126 73.2798 125.783 84.0214 125.349 92.8899C124.928 101.682 124.321 108.869 123.529 114.45C122.751 120.031 121.806 124.083 120.695 126.606C119.584 129.128 118.346 130.39 116.98 130.39C116.303 130.39 115.671 129.855 115.083 128.784C114.496 127.714 113.966 126.338 113.494 124.656C113.034 122.898 112.638 120.986 112.306 118.922C111.974 116.781 111.726 114.717 111.56 112.729H111.483V175H107.959V3.78441ZM111.406 65.8257C111.406 72.4771 111.515 78.6315 111.732 84.289C111.949 89.87 112.281 94.7248 112.728 98.8532C113.187 102.982 113.756 106.231 114.432 108.601C115.122 110.894 115.933 112.041 116.865 112.041C117.835 112.041 118.671 110.894 119.373 108.601C120.088 106.231 120.676 102.982 121.135 98.8532C121.595 94.7248 121.933 89.87 122.151 84.289C122.368 78.6315 122.476 72.4771 122.476 65.8257C122.476 58.8685 122.368 52.4847 122.151 46.6743C121.933 40.8639 121.595 35.8563 121.135 31.6514C120.676 27.4465 120.088 24.1972 119.373 21.9037C118.671 19.5336 117.835 18.3486 116.865 18.3486C115.933 18.3486 115.122 19.5336 114.432 21.9037C113.756 24.1972 113.187 27.4465 112.728 31.6514C112.281 35.8563 111.949 40.8639 111.732 46.6743C111.515 52.4847 111.406 58.8685 111.406 65.8257Z" fill="#FF00FF"/>
<path d="M100.642 65.0229C100.642 58.2186 100.514 51.9878 100.258 46.3303C100.003 40.5963 99.6201 35.6651 99.1094 31.5367C98.5987 27.4082 97.9667 24.1972 97.2133 21.9037C96.4728 19.5336 95.611 18.3486 94.6278 18.3486C93.6447 18.3486 92.7829 19.5336 92.0423 21.9037C91.3018 24.1972 90.6762 27.4082 90.1655 31.5367C89.6548 35.6651 89.2717 40.5963 89.0164 46.3303C88.761 51.9878 88.6333 58.2186 88.6333 65.0229C88.6333 71.9037 88.761 78.2492 89.0164 84.0596C89.2717 89.7936 89.6548 94.7248 90.1655 98.8532C90.6762 102.982 91.3018 106.231 92.0423 108.601C92.7829 110.894 93.6447 112.041 94.6278 112.041C95.611 112.041 96.4728 110.894 97.2133 108.601C97.9667 106.231 98.5987 102.982 99.1094 98.8532C99.6201 94.7248 100.003 89.7936 100.258 84.0596C100.514 78.2492 100.642 71.9037 100.642 65.0229ZM104.165 65.0229C104.165 75.1147 103.948 84.2125 103.514 92.3165C103.08 100.344 102.455 107.187 101.637 112.844C100.82 118.502 99.818 122.859 98.6306 125.917C97.4559 128.899 96.1217 130.39 94.6278 130.39C93.134 130.39 91.7998 128.899 90.6251 125.917C89.4505 122.859 88.4546 118.502 87.6374 112.844C86.8203 107.187 86.1946 100.344 85.7605 92.3165C85.3264 84.2125 85.1094 75.1147 85.1094 65.0229C85.1094 55.0841 85.3264 46.1009 85.7605 38.0734C86.1946 30.0459 86.8203 23.2034 87.6374 17.5459C88.4546 11.8884 89.4505 7.5688 90.6251 4.58715C91.7998 1.52905 93.134 0 94.6278 0C96.1217 0 97.4559 1.52905 98.6306 4.58715C99.818 7.5688 100.82 11.8884 101.637 17.5459C102.455 23.2034 103.08 30.0459 103.514 38.0734C103.948 46.1009 104.165 55.0841 104.165 65.0229Z" fill="#FF00FF"/>
<path d="M72.1647 22.1357H65.0977V3.78711H82.7557V22.1357H75.6886V126.608H72.1647V22.1357Z" fill="#FF00FF"/>
<path d="M44.8357 40.5963C44.874 33.104 45.1102 26.7966 45.5443 21.6743C45.9784 16.4755 46.5657 12.2706 47.3063 9.05963C48.0468 5.84862 48.9214 3.55504 49.9301 2.1789C50.9515 0.726298 52.0623 0 53.2625 0C54.2584 0 55.2224 0.611622 56.1544 1.83486C57.0993 3.05811 57.9356 5.04587 58.6633 7.79817C59.3911 10.474 59.972 13.9908 60.4061 18.3486C60.853 22.63 61.0765 27.867 61.0765 34.0596V105.505C61.0765 107.492 61.1658 109.213 61.3446 110.665C61.5233 112.041 61.8106 112.729 62.2064 112.729C62.3852 112.729 62.5703 112.653 62.7618 112.5C62.9533 112.271 63.1512 112.041 63.3555 111.812V126.376C63.0619 126.835 62.7682 127.255 62.4745 127.638C62.1936 128.02 61.8553 128.211 61.4595 128.211C60.8466 128.211 60.3168 127.905 59.8699 127.294C59.4358 126.682 59.0655 125.688 58.7591 124.312C58.4654 122.859 58.2356 121.024 58.0696 118.807C57.9036 116.514 57.7951 113.723 57.744 110.436C57.3099 113.265 56.8503 115.902 56.3651 118.349C55.8799 120.719 55.3373 122.821 54.7372 124.656C54.1371 126.414 53.4668 127.791 52.7262 128.784C51.9857 129.855 51.1494 130.39 50.2174 130.39C49.4257 130.39 48.6533 129.625 47.9 128.096C47.1594 126.567 46.4891 124.312 45.889 121.33C45.3017 118.349 44.8293 114.679 44.4718 110.321C44.1143 105.887 43.9355 100.765 43.9355 94.9541C43.9355 88.6086 44.1143 83.1422 44.4718 78.555C44.8293 73.8914 45.2953 70.0306 45.8699 66.9725C46.4444 63.8379 47.102 61.4297 47.8425 59.7477C48.5831 58.0657 49.3364 56.9572 50.1024 56.422L55.8672 52.1789C56.4162 51.7966 56.8439 50.5352 57.1503 48.3945C57.4695 46.1774 57.6291 42.6605 57.6291 37.844C57.6291 30.4281 57.2206 25.1147 56.4034 21.9037C55.599 18.6162 54.4371 16.9725 52.9178 16.9725C51.3601 16.9725 50.1982 18.9602 49.4321 22.9358C48.6661 26.8349 48.2319 32.7217 48.1298 40.5963H44.8357ZM57.5525 64.1055C57.2716 65.3287 56.9205 66.3608 56.4992 67.2018C56.0906 67.9664 55.6373 68.6162 55.1394 69.1514C54.6414 69.6865 54.1116 70.1835 53.5498 70.6422C52.988 71.0245 52.4262 71.445 51.8644 71.9037C51.226 72.4388 50.6387 73.2034 50.1024 74.1972C49.5662 75.1911 49.1002 76.4908 48.7044 78.0963C48.3086 79.7018 48.0021 81.6514 47.7851 83.945C47.568 86.1621 47.4595 88.7997 47.4595 91.8578C47.4595 95.3746 47.5489 98.4709 47.7276 101.147C47.9191 103.823 48.1745 106.078 48.4937 107.913C48.8257 109.748 49.2215 111.124 49.6811 112.041C50.1407 112.959 50.6451 113.417 51.1941 113.417C51.5388 113.417 51.9346 113.188 52.3815 112.729C52.8284 112.194 53.288 111.43 53.7604 110.436C54.2329 109.442 54.6925 108.18 55.1394 106.651C55.599 105.046 56.0076 103.135 56.3651 100.917C56.7226 98.7003 57.0099 96.1774 57.2269 93.3486C57.444 90.5199 57.5525 87.3471 57.5525 83.8303V64.1055Z" fill="#FF00FF"/>
<path d="M22.8477 3.78441H26.3716V20.6422H26.4482C26.678 17.8135 26.9653 15.1376 27.31 12.6147C27.6675 10.0917 28.0889 7.91284 28.5741 6.07798C29.072 4.16667 29.6402 2.67584 30.2786 1.6055C30.9297 0.535162 31.6703 0 32.5002 0C33.5982 0 34.6516 1.26147 35.6602 3.78441C36.6689 6.30734 37.5627 10.0917 38.3415 15.1376C39.1203 20.1835 39.7396 26.529 40.1992 34.1743C40.6589 41.7431 40.8887 50.5734 40.8887 60.6651C40.8887 73.2798 40.6716 84.0214 40.2375 92.8899C39.8162 101.682 39.2097 108.869 38.4181 114.45C37.6393 120.031 36.6944 124.083 35.5836 126.606C34.4728 129.128 33.2343 130.39 31.8682 130.39C31.1915 130.39 30.5595 129.855 29.9721 128.784C29.3848 127.714 28.855 126.338 28.3825 124.656C27.9229 122.898 27.5271 120.986 27.1951 118.922C26.8632 116.781 26.6142 114.717 26.4482 112.729H26.3716V175H22.8477V3.78441ZM26.295 65.8257C26.295 72.4771 26.4035 78.6315 26.6206 84.289C26.8376 89.87 27.1696 94.7248 27.6165 98.8532C28.0761 102.982 28.6443 106.231 29.321 108.601C30.0104 110.894 30.8212 112.041 31.7533 112.041C32.7236 112.041 33.5599 110.894 34.2622 108.601C34.9772 106.231 35.5645 102.982 36.0241 98.8532C36.4838 94.7248 36.8221 89.87 37.0392 84.289C37.2562 78.6315 37.3648 72.4771 37.3648 65.8257C37.3648 58.8685 37.2562 52.4847 37.0392 46.6743C36.8221 40.8639 36.4838 35.8563 36.0241 31.6514C35.5645 27.4465 34.9772 24.1972 34.2622 21.9037C33.5599 19.5336 32.7236 18.3486 31.7533 18.3486C30.8212 18.3486 30.0104 19.5336 29.321 21.9037C28.6443 24.1972 28.0761 27.4465 27.6165 31.6514C27.1696 35.8563 26.8376 40.8639 26.6206 46.6743C26.4035 52.4847 26.295 58.8685 26.295 65.8257Z" fill="#FF00FF"/>
<path d="M15.5322 65.0229C15.5322 58.2186 15.4045 51.9878 15.1491 46.3303C14.8938 40.5963 14.5107 35.6651 14 31.5367C13.4893 27.4082 12.8573 24.1972 12.104 21.9037C11.3634 19.5336 10.5016 18.3486 9.51847 18.3486C8.53534 18.3486 7.67351 19.5336 6.93297 21.9037C6.19243 24.1972 5.56681 27.4082 5.05609 31.5367C4.54537 35.6651 4.16234 40.5963 3.90698 46.3303C3.65162 51.9878 3.52394 58.2186 3.52394 65.0229C3.52394 71.9037 3.65162 78.2492 3.90698 84.0596C4.16234 89.7936 4.54537 94.7248 5.05609 98.8532C5.56681 102.982 6.19243 106.231 6.93297 108.601C7.67351 110.894 8.53534 112.041 9.51847 112.041C10.5016 112.041 11.3634 110.894 12.104 108.601C12.8573 106.231 13.4893 102.982 14 98.8532C14.5107 94.7248 14.8938 89.7936 15.1491 84.0596C15.4045 78.2492 15.5322 71.9037 15.5322 65.0229ZM19.0561 65.0229C19.0561 75.1147 18.839 84.2125 18.4049 92.3165C17.9708 100.344 17.3452 107.187 16.5281 112.844C15.7109 118.502 14.7086 122.859 13.5212 125.917C12.3466 128.899 11.0123 130.39 9.51847 130.39C8.02463 130.39 6.69038 128.899 5.51573 125.917C4.34109 122.859 3.34519 118.502 2.52804 112.844C1.7109 107.187 1.08527 100.344 0.651163 92.3165C0.217054 84.2125 0 75.1147 0 65.0229C0 55.0841 0.217054 46.1009 0.651163 38.0734C1.08527 30.0459 1.7109 23.2034 2.52804 17.5459C3.34519 11.8884 4.34109 7.5688 5.51573 4.58715C6.69038 1.52905 8.02463 0 9.51847 0C11.0123 0 12.3466 1.52905 13.5212 4.58715C14.7086 7.5688 15.7109 11.8884 16.5281 17.5459C17.3452 23.2034 17.9708 30.0459 18.4049 38.0734C18.839 46.1009 19.0561 55.0841 19.0561 65.0229Z" fill="#FF00FF"/>
</svg>
