<svg width="126" height="175" viewBox="0 0 126 175" fill="none" xmlns="http://www.w3.org/2000/svg">
<path d="M121.978 4.22852H125.999V141.435H121.978V4.22852ZM99.6016 4.22852H103.622V55.8571H110.659C111.926 55.8571 113.063 56.8819 114.068 58.9317C115.088 60.8961 115.947 63.7572 116.646 67.5151C117.346 71.1876 117.877 75.6715 118.242 80.9667C118.62 86.1766 118.81 92.0696 118.81 98.646C118.81 105.308 118.62 111.286 118.242 116.581C117.877 121.791 117.346 126.275 116.646 130.033C115.947 133.706 115.088 136.524 114.068 138.488C113.063 140.453 111.926 141.435 110.659 141.435H99.6016V4.22852ZM103.622 122.603H109.85C110.55 122.603 111.198 122.176 111.795 121.322C112.407 120.467 112.931 119.101 113.368 117.222C113.806 115.258 114.148 112.781 114.396 109.792C114.643 106.717 114.767 103.002 114.767 98.646C114.767 94.3756 114.636 90.7458 114.374 87.7566C114.126 84.7673 113.769 82.3333 113.303 80.4543C112.851 78.4899 112.298 77.0807 111.642 76.2266C111.001 75.2872 110.287 74.8174 109.501 74.8174H103.622V122.603Z" fill="#FF00FF"/>
<path d="M74.0352 4.22852H78.056V120.937H88.9821V4.22852H93.0247V120.937H95.9092V175H92.1506V141.435H74.0352V4.22852Z" fill="#FF00FF"/>
<path d="M49.125 4.22852H53.1458V59.5723H64.0719V4.22852H68.1146V141.435H64.0719V80.0699H53.1458V141.435H49.125V4.22852Z" fill="#FF00FF"/>
<path d="M24.1677 45.3511C24.2114 36.9812 24.4809 29.9352 24.9762 24.2129C25.4715 18.4052 26.1417 13.7078 26.9866 10.1207C27.8316 6.53364 28.8295 3.97143 29.9804 2.4341C31.1458 0.811365 32.4133 0 33.7827 0C34.919 0 36.0189 0.683258 37.0823 2.04977C38.1604 3.41628 39.1146 5.63687 39.945 8.71152C40.7754 11.7008 41.4382 15.6295 41.9335 20.4977C42.4434 25.2805 42.6984 31.1309 42.6984 38.0488V117.862C42.6984 120.082 42.8003 122.004 43.0043 123.627C43.2082 125.164 43.536 125.933 43.9876 125.933C44.1916 125.933 44.4028 125.847 44.6214 125.676C44.8399 125.42 45.0657 125.164 45.2988 124.908V141.178C44.9637 141.69 44.6286 142.16 44.2936 142.587C43.9731 143.014 43.587 143.228 43.1354 143.228C42.4361 143.228 41.8316 142.886 41.3217 142.203C40.8264 141.519 40.4039 140.409 40.0542 138.872C39.7192 137.249 39.4569 135.199 39.2676 132.723C39.0782 130.16 38.9543 127.043 38.8961 123.37C38.4008 126.531 37.8763 129.477 37.3227 132.21C36.7691 134.858 36.15 137.206 35.4653 139.256C34.7806 141.221 34.0157 142.758 33.1708 143.868C32.3258 145.064 31.3716 145.662 30.3082 145.662C29.4049 145.662 28.5236 144.808 27.664 143.099C26.8191 141.391 26.0543 138.872 25.3696 135.541C24.6994 132.21 24.1604 128.111 23.7525 123.242C23.3446 118.289 23.1406 112.566 23.1406 106.076C23.1406 98.9868 23.3446 92.8802 23.7525 87.7557C24.1604 82.5459 24.6921 78.2328 25.3477 74.8166C26.0033 71.3149 26.7535 68.6246 27.5985 66.7456C28.4434 64.8666 29.303 63.6282 30.177 63.0304L36.7546 58.2903C37.381 57.8633 37.869 56.454 38.2187 54.0626C38.5829 51.5858 38.765 47.6571 38.765 42.2765C38.765 33.992 38.2988 28.0562 37.3664 24.4691C36.4486 20.7966 35.1229 18.9604 33.3893 18.9604C31.612 18.9604 30.2863 21.1809 29.4122 25.6221C28.5381 29.9779 28.0428 36.5542 27.9263 45.3511H24.1677ZM38.6776 71.6138C38.3571 72.9803 37.9564 74.1333 37.4757 75.0728C37.0095 75.9269 36.4923 76.6528 35.9242 77.2507C35.356 77.8485 34.7514 78.4037 34.1104 78.9161C33.4694 79.3431 32.8284 79.8129 32.1874 80.3253C31.459 80.9232 30.7889 81.7772 30.177 82.8875C29.5652 83.9978 29.0334 85.4497 28.5818 87.2433C28.1302 89.0368 27.7806 91.2147 27.5329 93.7769C27.2853 96.2537 27.1614 99.2003 27.1614 102.617C27.1614 106.545 27.2634 110.004 27.4674 112.994C27.6859 115.983 27.9772 118.502 28.3415 120.552C28.7202 122.602 29.1718 124.139 29.6963 125.164C30.2207 126.189 30.7962 126.701 31.4226 126.701C31.816 126.701 32.2676 126.445 32.7775 125.933C33.2873 125.335 33.8118 124.481 34.3508 123.37C34.8898 122.26 35.4143 120.851 35.9242 119.143C36.4486 117.349 36.9148 115.214 37.3227 112.737C37.7306 110.26 38.0584 107.442 38.3061 104.282C38.5537 101.122 38.6776 97.5775 38.6776 93.6488V71.6138Z" fill="#FF00FF"/>
<path d="M8.06347 24.7262H0V4.22852H20.1477V24.7262H12.0843V141.435H8.06347V24.7262Z" fill="#FF00FF"/>
</svg>
