<svg width="126" height="175" viewBox="0 0 126 175" fill="none" xmlns="http://www.w3.org/2000/svg">
<path d="M106.633 40.5963C106.673 33.104 106.92 26.7966 107.374 21.6743C107.828 16.4755 108.442 12.2706 109.216 9.05963C109.991 5.84862 110.906 3.55504 111.96 2.1789C113.029 0.726298 114.19 0 115.445 0C116.487 0 117.495 0.611622 118.47 1.83486C119.458 3.05811 120.332 5.04587 121.093 7.79817C121.854 10.474 122.462 13.9908 122.916 18.3486C123.383 22.63 123.617 27.867 123.617 34.0596V105.505C123.617 107.492 123.71 109.213 123.897 110.665C124.084 112.041 124.385 112.729 124.799 112.729C124.986 112.729 125.179 112.653 125.38 112.5C125.58 112.271 125.787 112.041 126 111.812V126.376C125.693 126.835 125.386 127.255 125.079 127.638C124.785 128.02 124.432 128.211 124.018 128.211C123.377 128.211 122.823 127.905 122.355 127.294C121.901 126.682 121.514 125.688 121.194 124.312C120.886 122.859 120.646 121.024 120.473 118.807C120.299 116.514 120.185 113.723 120.132 110.436C119.678 113.265 119.197 115.902 118.69 118.349C118.183 120.719 117.615 122.821 116.988 124.656C116.36 126.414 115.659 127.791 114.885 128.784C114.11 129.855 113.236 130.39 112.261 130.39C111.433 130.39 110.625 129.625 109.837 128.096C109.063 126.567 108.362 124.312 107.734 121.33C107.12 118.349 106.626 114.679 106.252 110.321C105.878 105.887 105.691 100.765 105.691 94.9541C105.691 88.6086 105.878 83.1422 106.252 78.555C106.626 73.8914 107.113 70.0306 107.714 66.9725C108.315 63.8379 109.003 61.4297 109.777 59.7477C110.552 58.0657 111.339 56.9572 112.141 56.422L118.169 52.1789C118.743 51.7966 119.191 50.5352 119.511 48.3945C119.845 46.1774 120.012 42.6606 120.012 37.844C120.012 30.4281 119.585 25.1147 118.73 21.9037C117.889 18.6162 116.674 16.9725 115.085 16.9725C113.456 16.9725 112.241 18.9602 111.44 22.9358C110.638 26.8349 110.184 32.7217 110.078 40.5963H106.633ZM119.932 64.1055C119.638 65.3287 119.271 66.3609 118.83 67.2018C118.403 67.9664 117.929 68.6162 117.408 69.1514C116.887 69.6865 116.333 70.1835 115.746 70.6422C115.158 71.0245 114.571 71.445 113.983 71.9037C113.316 72.4388 112.701 73.2034 112.141 74.1973C111.58 75.1911 111.092 76.4908 110.679 78.0963C110.265 79.7018 109.944 81.6514 109.717 83.945C109.49 86.1621 109.377 88.7997 109.377 91.8578C109.377 95.3746 109.47 98.4709 109.657 101.147C109.857 103.823 110.124 106.078 110.458 107.913C110.805 109.748 111.219 111.124 111.7 112.041C112.181 112.959 112.708 113.417 113.282 113.417C113.643 113.417 114.057 113.188 114.524 112.729C114.991 112.194 115.472 111.43 115.966 110.436C116.46 109.442 116.941 108.18 117.408 106.651C117.889 105.046 118.316 103.135 118.69 100.917C119.064 98.7003 119.364 96.1774 119.591 93.3486C119.818 90.5199 119.932 87.3471 119.932 83.8303V64.1055Z" fill="#FF00FF"/>
<path d="M83.6406 3.78441H87.3259V20.6422H87.406C87.6463 17.8135 87.9468 15.1376 88.3073 12.6147C88.6812 10.0917 89.1218 7.91284 89.6292 6.07798C90.1499 4.16667 90.7441 2.67584 91.4117 1.6055C92.0927 0.535162 92.8671 0 93.735 0C94.8833 0 95.9849 1.26147 97.0398 3.78441C98.0946 6.30734 99.0293 10.0917 99.8438 15.1376C100.658 20.1835 101.306 26.529 101.787 34.1743C102.267 41.7431 102.508 50.5734 102.508 60.6651C102.508 73.2798 102.281 84.0214 101.827 92.8899C101.386 101.682 100.752 108.869 99.9239 114.45C99.1094 120.031 98.1213 124.083 96.9596 126.606C95.798 129.128 94.5028 130.39 93.0741 130.39C92.3664 130.39 91.7055 129.855 91.0913 128.784C90.4771 127.714 89.9229 126.338 89.4289 124.656C88.9482 122.898 88.5343 120.986 88.1871 118.922C87.84 116.781 87.5796 114.717 87.406 112.729H87.3259V175H83.6406V3.78441ZM87.2458 65.8257C87.2458 72.4771 87.3593 78.6315 87.5863 84.289C87.8132 89.87 88.1604 94.7248 88.6277 98.8532C89.1084 102.982 89.7026 106.231 90.4103 108.601C91.1313 110.894 91.9792 112.041 92.9539 112.041C93.9687 112.041 94.8433 110.894 95.5777 108.601C96.3254 106.231 96.9396 102.982 97.4203 98.8532C97.901 94.7248 98.2548 89.87 98.4818 84.289C98.7088 78.6315 98.8223 72.4771 98.8223 65.8257C98.8223 58.8685 98.7088 52.4847 98.4818 46.6743C98.2548 40.8639 97.901 35.8563 97.4203 31.6514C96.9396 27.4465 96.3254 24.1972 95.5777 21.9037C94.8433 19.5336 93.9687 18.3486 92.9539 18.3486C91.9792 18.3486 91.1313 19.5336 90.4103 21.9037C89.7026 24.1972 89.1084 27.4465 88.6277 31.6514C88.1604 35.8563 87.8132 40.8639 87.5863 46.6743C87.3593 52.4847 87.2458 58.8685 87.2458 65.8257Z" fill="#FF00FF"/>
<path d="M60.9667 40.5963C61.0068 33.104 61.2538 26.7966 61.7078 21.6743C62.1618 16.4755 62.776 12.2706 63.5504 9.05963C64.3249 5.84862 65.2395 3.55504 66.2943 2.1789C67.3625 0.726298 68.5242 0 69.7793 0C70.8208 0 71.8289 0.611622 72.8036 1.83486C73.7917 3.05811 74.6663 5.04587 75.4274 7.79817C76.1885 10.474 76.796 13.9908 77.25 18.3486C77.7173 22.63 77.951 27.867 77.951 34.0596V105.505C77.951 107.492 78.0445 109.213 78.2314 110.665C78.4183 112.041 78.7188 112.729 79.1327 112.729C79.3196 112.729 79.5132 112.653 79.7135 112.5C79.9138 112.271 80.1208 112.041 80.3344 111.812V126.376C80.0273 126.835 79.7202 127.255 79.4131 127.638C79.1193 128.02 78.7655 128.211 78.3516 128.211C77.7107 128.211 77.1565 127.905 76.6892 127.294C76.2352 126.682 75.848 125.688 75.5275 124.312C75.2204 122.859 74.9801 121.024 74.8065 118.807C74.6329 116.514 74.5194 113.723 74.466 110.436C74.012 113.265 73.5314 115.902 73.024 118.349C72.5166 120.719 71.9491 122.821 71.3215 124.656C70.694 126.414 69.993 127.791 69.2185 128.784C68.4441 129.855 67.5695 130.39 66.5948 130.39C65.7669 130.39 64.9591 129.625 64.1713 128.096C63.3969 126.567 62.6959 124.312 62.0683 121.33C61.4541 118.349 60.9601 114.679 60.5862 110.321C60.2123 105.887 60.0254 100.765 60.0254 94.9541C60.0254 88.6086 60.2123 83.1422 60.5862 78.555C60.9601 73.8914 61.4474 70.0306 62.0483 66.9725C62.6491 63.8379 63.3368 61.4297 64.1112 59.7477C64.8857 58.0657 65.6735 56.9572 66.4746 56.422L72.5032 52.1789C73.0774 51.7966 73.5247 50.5352 73.8451 48.3945C74.1789 46.1774 74.3458 42.6606 74.3458 37.844C74.3458 30.4281 73.9186 25.1147 73.064 21.9037C72.2228 18.6162 71.0077 16.9725 69.4188 16.9725C67.7898 16.9725 66.5748 18.9602 65.7736 22.9358C64.9725 26.8349 64.5185 32.7217 64.4117 40.5963H60.9667ZM74.2657 64.1055C73.972 65.3287 73.6048 66.3609 73.1642 67.2018C72.7369 67.9664 72.2629 68.6162 71.7421 69.1514C71.2214 69.6865 70.6673 70.1835 70.0798 70.6422C69.4922 71.0245 68.9047 71.445 68.3172 71.9037C67.6496 72.4388 67.0354 73.2034 66.4746 74.1973C65.9138 75.1911 65.4264 76.4908 65.0125 78.0963C64.5986 79.7018 64.2781 81.6514 64.0511 83.945C63.8242 86.1621 63.7107 88.7997 63.7107 91.8578C63.7107 95.3746 63.8041 98.4709 63.9911 101.147C64.1913 103.823 64.4584 106.078 64.7922 107.913C65.1394 109.748 65.5533 111.124 66.034 112.041C66.5147 112.959 67.0421 113.417 67.6162 113.417C67.9767 113.417 68.3907 113.188 68.858 112.729C69.3253 112.194 69.806 111.43 70.3001 110.436C70.7941 109.442 71.2748 108.18 71.7421 106.651C72.2228 105.046 72.6501 103.135 73.024 100.917C73.3978 98.7003 73.6983 96.1774 73.9252 93.3486C74.1522 90.5199 74.2657 87.3471 74.2657 83.8303V64.1055Z" fill="#FF00FF"/>
<path d="M46.207 22.1348H38.8164V3.78613H57.2828V22.1348H49.8922V126.607H46.207V22.1348Z" fill="#FF00FF"/>
<path d="M16.543 3.78613H20.2282V97.9375H20.3083L30.8434 3.78613H35.0694V126.607H31.3641V32.4558H31.284L20.769 126.607H16.543V3.78613Z" fill="#FF00FF"/>
<path d="M0 3.78613H13.319V22.1348H3.68526V126.607H0V3.78613Z" fill="#FF00FF"/>
</svg>
