<svg width="250" height="110" viewBox="0 0 250 110" fill="none" xmlns="http://www.w3.org/2000/svg">
<path d="M221.227 2.35742H227.426V31.1813H237.433C239.409 31.1813 241.173 31.7535 242.723 32.8979C244.272 33.9946 245.586 35.5919 246.665 37.6899C247.743 39.7403 248.563 42.2436 249.124 45.1999C249.708 48.1085 250 51.3986 250 55.0701C250 58.7893 249.708 62.1271 249.124 65.0834C248.563 67.992 247.743 70.4953 246.665 72.5933C245.586 74.6437 244.272 76.2172 242.723 77.3139C241.173 78.4106 239.409 78.9589 237.433 78.9589H221.227V2.35742ZM227.426 68.445H236.22C237.298 68.445 238.298 68.2066 239.218 67.7297C240.162 67.2529 240.971 66.49 241.644 65.441C242.318 64.3443 242.846 62.9615 243.228 61.2926C243.61 59.5761 243.801 57.5019 243.801 55.0701C243.801 52.686 243.599 50.6595 243.194 48.9906C242.812 47.3217 242.262 45.9628 241.543 44.9138C240.847 43.8171 239.993 43.0303 238.983 42.5535C237.994 42.029 236.882 41.7668 235.647 41.7668H227.426V68.445Z" fill="#FF00FF"/>
<path d="M196.327 13.8012H183.895V2.35742H214.959V13.8012H202.527V78.9589H196.327V13.8012Z" fill="#FF00FF"/>
<path d="M146.428 2.35742H152.627V61.0781H152.762L170.484 2.35742H177.594V78.9589H171.36V20.2382H171.226L153.537 78.9589H146.428V2.35742Z" fill="#FF00FF"/>
<path d="M131.03 48.0608C129.682 48.8237 128.2 49.4675 126.583 49.992C124.988 50.5165 123.494 50.7787 122.102 50.7787C117.272 50.7787 113.69 48.8237 111.354 44.9138C109.018 40.9562 107.85 34.7336 107.85 26.2462V2.35742H114.049V23.5998C114.049 26.4608 114.206 28.9403 114.521 31.0383C114.858 33.1363 115.397 34.8767 116.138 36.2595C116.879 37.5946 117.856 38.5959 119.069 39.2635C120.282 39.931 121.776 40.2648 123.55 40.2648C124.022 40.2648 124.584 40.1694 125.235 39.9787C125.909 39.788 126.594 39.5495 127.29 39.2635C127.987 38.9774 128.66 38.6674 129.312 38.3337C129.986 37.9522 130.558 37.5707 131.03 37.1893V2.35742H137.263V78.9589H131.03V48.0608Z" fill="#FF00FF"/>
<path d="M71.0234 2.35742H77.8294L87.4318 64.7258H87.5666L97.169 2.35742H103.975L90.1946 82.0344C89.4983 86.0397 88.8581 89.5205 88.2741 92.4768C87.6901 95.4331 87.1173 97.9364 86.5558 99.9867C85.9942 102.085 85.4215 103.777 84.8375 105.065C84.2759 106.352 83.647 107.354 82.9507 108.069C82.2768 108.832 81.5131 109.332 80.6596 109.571C79.8285 109.857 78.8626 110 77.762 110C76.8635 110 76.156 109.905 75.6393 109.714C75.1452 109.571 74.7072 109.38 74.3253 109.142V97.2689C74.7296 97.555 75.2575 97.841 75.9089 98.1271C76.5603 98.4132 77.2454 98.5563 77.9641 98.5563C79.1097 98.5563 80.0306 97.9602 80.7269 96.7682C81.4457 95.6238 81.996 93.9788 82.3779 91.8331L84.3995 81.0331L71.0234 2.35742Z" fill="#FF00FF"/>
<path d="M49.6299 34.6888H52.7633C53.5944 34.6888 54.4592 34.4742 55.3576 34.0451C56.2561 33.616 57.076 32.9484 57.8172 32.0424C58.5584 31.0888 59.1649 29.8729 59.6366 28.3948C60.1308 26.9166 60.3778 25.1285 60.3778 23.0305C60.3778 21.5047 60.2206 20.0504 59.9062 18.6676C59.6141 17.2371 59.1649 15.9974 58.5584 14.9484C57.9744 13.8517 57.2332 12.9934 56.3347 12.3735C55.4362 11.7537 54.3918 11.4437 53.2013 11.4437C52.5724 11.4437 51.8311 11.6345 50.9776 12.0159C50.124 12.3974 49.2817 13.1126 48.4506 14.1616C47.642 15.1629 46.912 16.6173 46.2606 18.5245C45.6317 20.3841 45.2274 22.8159 45.0477 25.8199H39.2525C39.4097 22.3868 39.7354 19.3828 40.2296 16.808C40.7238 14.1855 41.3415 11.9206 42.0827 10.0133C42.8239 8.10598 43.655 6.50862 44.576 5.2212C45.5194 3.93378 46.4852 2.90861 47.4735 2.1457C48.4843 1.38278 49.4951 0.83444 50.5059 0.500664C51.5167 0.166889 52.4825 0 53.4035 0C55.0207 0 56.6155 0.45298 58.1878 1.35894C59.7601 2.21722 61.164 3.55232 62.3994 5.36425C63.6573 7.12849 64.6681 9.36955 65.4318 12.0874C66.1955 14.8053 66.5773 17.9762 66.5773 21.6C66.5773 23.9365 66.4201 26.0107 66.1056 27.8226C65.7911 29.5868 65.3756 31.1365 64.859 32.4716C64.3648 33.8067 63.8033 34.9511 63.1743 35.9047C62.5454 36.8107 61.9277 37.5736 61.3212 38.1935V38.5511C61.9502 38.7895 62.6465 39.2901 63.4102 40.0531C64.1739 40.7683 64.8814 41.8173 65.5328 43.2001C66.1842 44.5352 66.7233 46.2756 67.1501 48.4213C67.5993 50.5193 67.8239 53.0942 67.8239 56.1458C67.8239 60.4372 67.3859 64.1564 66.5099 67.3035C65.6564 70.4505 64.5333 73.073 63.1407 75.171C61.748 77.2214 60.1757 78.7472 58.4237 79.7485C56.6717 80.7975 54.9084 81.322 53.1339 81.322C50.8428 81.322 48.7651 80.7021 46.9008 79.4624C45.0589 78.2227 43.4641 76.4584 42.1164 74.1697C40.7687 71.8809 39.6905 69.1392 38.8819 65.9445C38.0957 62.7498 37.624 59.2213 37.4668 55.3591H43.7C43.8572 58.1723 44.239 60.5087 44.8455 62.3683C45.452 64.228 46.182 65.7061 47.0355 66.8028C47.8891 67.8995 48.8325 68.6862 49.8657 69.1631C50.9214 69.6399 51.9884 69.8783 53.0665 69.8783C55.9192 69.8783 58.0531 68.6624 59.4681 66.2306C60.9057 63.7988 61.6245 60.5326 61.6245 56.4319C61.6245 54.6677 61.4897 53.0941 61.2202 51.7114C60.9731 50.3286 60.5463 49.1604 59.9398 48.2067C59.3334 47.2054 58.5247 46.4663 57.514 45.9895C56.5256 45.465 55.2902 45.2027 53.8078 45.2027C53.5158 45.2027 53.1788 45.2266 52.797 45.2743C52.4376 45.2743 52.067 45.2981 51.6851 45.3458C51.3257 45.3935 50.9663 45.465 50.607 45.5604C50.2476 45.608 49.9219 45.6557 49.6299 45.7034V34.6888Z" fill="#FF00FF"/>
<path d="M0 2.35742H6.19946V61.0781H6.33423L24.0566 2.35742H31.1658V78.9589H24.9326V20.2382H24.7978L7.10916 78.9589H0V2.35742Z" fill="#FF00FF"/>
</svg>
