<svg width="126" height="175" viewBox="0 0 126 175" fill="none" xmlns="http://www.w3.org/2000/svg">
<path d="M103.957 0H108.342V130.971H108.437L120.973 0H126.002V170.852H121.593V39.8815H121.497L108.986 170.852H103.957V0Z" fill="#FF00FF"/>
<path d="M83.937 69.8724H86.1534L94.5184 0H99.8091L89.7759 81.0392L100.19 170.852H94.7806L86.1534 93.1632H83.937V170.852H79.5519V93.1632H77.3117L68.613 170.852H63.2031L73.7131 81.0392L63.7274 0H69.042L77.3117 69.8724H79.5519V0H83.937V69.8724Z" fill="#FF00FF"/>
<path d="M55.0036 0H59.3887V170.852H55.0036V0ZM30.5996 0H34.9847V64.289H42.6586C44.0409 64.289 45.2801 65.5652 46.3764 68.1176C47.4886 70.5637 48.426 74.1264 49.1886 78.8058C49.9512 83.3789 50.5311 88.9623 50.9283 95.5561C51.3414 102.043 51.548 109.382 51.548 117.571C51.548 125.866 51.3414 133.311 50.9283 139.904C50.5311 146.392 49.9512 151.975 49.1886 156.655C48.426 161.228 47.4886 164.737 46.3764 167.183C45.2801 169.629 44.0409 170.852 42.6586 170.852H30.5996V0ZM34.9847 147.402H41.7768C42.5395 147.402 43.2465 146.87 43.8979 145.807C44.5652 144.743 45.1372 143.042 45.6138 140.702C46.0904 138.256 46.4638 135.172 46.7339 131.449C47.004 127.621 47.139 122.995 47.139 117.571C47.139 112.253 46.9961 107.733 46.7101 104.011C46.44 100.289 46.0507 97.2577 45.5423 94.918C45.0498 92.4719 44.446 90.7171 43.7311 89.6536C43.032 88.4837 42.2535 87.8988 41.3955 87.8988H34.9847V147.402Z" fill="#FF00FF"/>
<path d="M19.7568 25.5242H9.98563L9.79497 66.5223C9.69964 87.2607 9.46132 104.596 9.08001 118.528C8.6987 132.353 8.17439 143.467 7.50709 151.869C6.85569 160.27 6.06128 166.226 5.12389 169.736C4.1865 173.245 3.11405 175 1.90656 175C1.4617 175 1.07244 174.521 0.738793 173.564C0.421033 172.713 0.174768 171.809 0 170.852V145.009C0.619633 146.604 1.16777 147.402 1.64441 147.402C1.97806 147.402 2.29582 147.03 2.59769 146.285C2.91545 145.541 3.20938 144.105 3.47948 141.978C3.76546 139.851 4.02762 136.873 4.26594 133.045C4.50426 129.11 4.7108 124.005 4.88557 117.73C5.07623 111.455 5.22716 103.851 5.33838 94.918C5.46548 85.9845 5.55287 75.3494 5.60053 63.0128L5.81502 0H24.1419V170.852H19.7568V25.5242Z" fill="#FF00FF"/>
</svg>
